<svg width="1530" height="2154" viewBox="0 0 1530 2154" fill="none" xmlns="http://www.w3.org/2000/svg">
<path d="M1388.5 1690.5C1388.5 1707.3 1331.83 1762.5 1303.5 1788C1286.5 1815 1250.8 1875.8 1244 1903C1237.2 1930.2 1051.83 1976.33 960 1996L629 2072.5L429.5 2149H382.5V2106.5L319 2047L234 1958L111 1754.5L34.5 1639.5L5 1431.5V1168.5L81.5 973.5L319 863H463.5L539.5 778H730.5L866.5 723L900.5 557.5L926 332.5L989.5 124.5V44L1112.5 6L1244 86.5L1350.5 218L1388.5 430L1473.5 663.5L1524.5 973.5V1224L1473.5 1368L1388.5 1474M1388.5 1690.5C1388.5 1673.7 1388.5 1539.17 1388.5 1474M1388.5 1690.5V1474" stroke="black" stroke-width="10"/>
</svg>
