<svg width="1520" height="2143" viewBox="0 0 1520 2143" fill="none" xmlns="http://www.w3.org/2000/svg">
<path d="M984.5 118.5L921 326.5L895.5 551.5L861.5 717L725.5 772H534.5L458.5 857H314L76.5 967.5L0 1162.5V1425.5L29.5 1633.5L106 1748.5L229 1952L314 2041L377.5 2100.5V2143H424.5L624 2066.5L955 1990C1046.83 1970.33 1232.2 1924.2 1239 1897C1245.8 1869.8 1281.5 1809 1298.5 1782C1326.83 1756.5 1383.5 1701.3 1383.5 1684.5V1468L1468.5 1362L1519.5 1218V967.5L1468.5 657.5L1383.5 424L1345.5 212L1239 80.5L1107.5 0L984.5 38V118.5Z" fill="#BEBEBE"/>
</svg>
