<svg width="2898" height="5555" viewBox="0 0 2898 5555" fill="none" xmlns="http://www.w3.org/2000/svg">
<path d="M592 4747L699 4894.5L750.5 5193L810 5355.5L1020 5492H1134.5L1215.5 5554.5H1274.5L1407.5 5492H1577H1746.5L1872 5444L1953 5252C1936 5212.83 1907.1 5131.5 1927.5 5119.5C1947.9 5107.5 1999.67 5065.17 2023 5045.5L2215 5067.5H2484C2516 5044.17 2583.7 4993.1 2598.5 4975.5C2613.3 4957.9 2622 4835.5 2624.5 4776.5L2598.5 4573.5V4507L2654 4422.5L2794 4234L2897.5 3979.5V3511.5V3319.5L2875 3356.5L2831 3319.5V3268L2875 3186.5L2794 3223.5C2783.17 3243.17 2759.2 3289.9 2750 3319.5C2738.5 3356.5 2731 3393 2709 3419C2691.4 3439.8 2610.67 3489.33 2572.5 3511.5H2381C2335.5 3489.33 2238.6 3445 2215 3445H2023L1894 3419L1850 3356.5L1746.5 3223.5L1647 3113L1543.5 2980C1512.67 2923.5 1449.6 2806.8 1444 2792C1438.4 2777.2 1417.33 2680.17 1407.5 2633.5L1381.5 2537.5L1444 2559.5V2519L1407.5 2464L1444 2405L1503 2301.5V2087.5L1543.5 1999H1503L1444 2087.5L1407.5 2154V2250L1326 2154V1999L1381.5 1862.5V1755.5L1444 1626.5L1503 1464.5L1407.5 1431L1381.5 1239.5L1407.5 1047.5L1444 951.5L1503 911V837.5L1543.5 789.5L1602.5 693.5V549.5L1647 361.5L1543.5 236V184.5L1602.5 140L1543.5 70L1466.5 0H1407.5H1363L1230 99.5L1138 184.5H1060.5L1012.5 236L898.5 262L861.5 406L817 453.5V501.5L750.5 549.5V649L699 693.5V789.5L632.5 837.5L522 951.5L485 1110V1169L522 1342.5L448.5 1409L374.5 1431V1464.5L419 1490L448.5 1519.5L485 1490L522 1553V1667L592 1755.5L673.5 1925.5L750.5 2069V2183.5V2301.5V2405L721 2486V2589L750.5 2677.5L765.5 2618.5L795 2589H898.5H986L1079 2705.5V2840.5L1274.5 2933.5L1326 3068.5L1407.5 3223.5L1503 3319.5L1577 3445L1543.5 3613H1479.5L1444 3571L1381.5 3543L1407.5 3487L1353.5 3511.5L1326 3571L1353.5 3613L1302.5 3650L1215.5 3696.5H1134.5L1056 3622L939.5 3571L846.5 3622L721 3511.5L632.5 3419H522L553.5 3613V3887.5L485 4017.5L330 4157L125.5 4203.5L0 4259.5V4334L97.5 4422.5L330 4507L419 4573.5L592 4747Z" fill="#BEBEBE"/>
</svg>
