<svg width="2908" height="5565" viewBox="0 0 2908 5565" fill="none" xmlns="http://www.w3.org/2000/svg">
<path d="M2220 3450C2243.6 3450 2340.5 3494.33 2386 3516.5H2577.5C2615.67 3494.33 2696.4 3444.8 2714 3424C2736 3398 2743.5 3361.5 2755 3324.5C2764.2 3294.9 2788.17 3248.17 2799 3228.5L2880 3191.5L2836 3273V3324.5L2880 3361.5L2902.5 3324.5V3516.5V3984.5L2799 4239L2659 4427.5L2603.5 4512V4578.5L2629.5 4781.5C2627 4840.5 2618.3 4962.9 2603.5 4980.5C2588.7 4998.1 2521 5049.17 2489 5072.5H2220L2028 5050.5C2004.67 5070.17 1952.9 5112.5 1932.5 5124.5C1912.1 5136.5 1941 5217.83 1958 5257L1877 5449L1751.5 5497H1582H1412.5L1279.5 5559.5H1220.5L1139.5 5497H1025L815 5360.5L755.5 5198L704 4899.5L597 4752L424 4578.5L335 4512L102.5 4427.5L5 4339V4264.5L130.5 4208.5L335 4162L490 4022.5L558.5 3892.5V3618L527 3424H637.5L726 3516.5L851.5 3627L944.5 3576L1061 3627L1139.5 3701.5H1220.5L1307.5 3655L1358.5 3618L1331 3576L1358.5 3516.5L1412.5 3492L1386.5 3548L1449 3576L1484.5 3618H1548.5L1582 3450L1508 3324.5L1412.5 3228.5L1331 3073.5L1279.5 2938.5L1084 2845.5V2710.5L991 2594H903.5H800L770.5 2623.5L755.5 2682.5L726 2594V2491L755.5 2410V2306.5V2188.5V2074L678.5 1930.5L597 1760.5L527 1672V1558L490 1495L453.5 1524.5L424 1495L379.5 1469.5V1436L453.5 1414L527 1347.5L490 1174V1115L527 956.5L637.5 842.5L704 794.5V698.5L755.5 654V554.5L822 506.5V458.5L866.5 411L903.5 267L1017.5 241L1065.5 189.5H1143L1235 104.5L1368 5H1412.5H1471.5L1548.5 75L1607.5 145L1548.5 189.5V241L1652 366.5L1607.5 554.5V698.5L1548.5 794.5L1508 842.5V916L1449 956.5L1412.5 1052.5L1386.5 1244.5L1412.5 1436L1508 1469.5L1449 1631.5L1386.5 1760.5V1867.5L1331 2004V2159L1412.5 2255V2159L1449 2092.5L1508 2004H1548.5L1508 2092.5V2306.5L1449 2410L1412.5 2469L1449 2524V2564.5L1386.5 2542.5L1412.5 2638.5C1422.33 2685.17 1443.4 2782.2 1449 2797C1454.6 2811.8 1517.67 2928.5 1548.5 2985L1652 3118L1751.5 3228.5L1855 3361.5L1899 3424L2028 3450M2220 3450C2196.4 3450 2082.17 3450 2028 3450M2220 3450H2028" stroke="black" stroke-width="10"/>
</svg>
