<svg width="4480" height="4674" viewBox="0 0 4480 4674" fill="none" xmlns="http://www.w3.org/2000/svg">
<path d="M3442.09 325.157C3448.05 326.893 3460.57 338.18 3466.08 343.606L3511.71 379.818L3503.88 406.715L3489.26 416.004L3480.53 445.99L3449.37 441.904L3419.98 446.371L3412.57 471.827L3433.99 494.736L3421.68 537.003L3444.08 571.141L3453.29 608.209L3430.45 658.872L3419.47 655.673L3400.01 685.958L3380 680.132L3354.47 726.884C3354.47 726.884 3337.98 760.118 3330.75 752.802C3323.52 745.486 3326.77 711.247 3315.96 689.618C3307.62 672.949 3287.81 653.286 3287.81 653.286L3229.75 636.379L3171.36 630.838L3112.81 656.514L3068.12 709.15L3037.84 772.232L3006.14 803.641L2942.46 829.387L2872.81 828.904C2872.81 828.904 2832.01 817.023 2824.15 830.884C2816.28 844.745 2818.31 878.683 2810.86 876.513C2803.4 874.342 2782.61 868.288 2782.61 868.288L2757.27 844.236L2744.53 791.548L2716.28 783.323L2699.63 758.675L2678.07 736.246L2644.73 726.536L2644.83 698.429L2652.24 672.973L2669.34 642.003L2672.52 603.33L2691.3 566.596L2740.45 522.032L2820.31 472.863L2849.14 432.285L2870.58 386.425L2852.75 361.434L2854.33 309.268L2933.08 240.5L2993.3 194.47L3029.68 180.578L3067.74 191.659L3096.05 158.742L3139.8 137.095L3178.36 142.069L3251 136.652L3284.42 127.106C3294.61 130.594 3318.53 138.288 3332.68 141.157C3346.82 144.025 3360.49 161.587 3365.55 170.009L3380.78 201.016L3358.04 223.571L3351.47 246.145L3369.81 279.621L3423.65 319.788M3442.09 325.157C3436.13 323.42 3427.31 320.854 3423.65 319.788M3442.09 325.157L3423.65 319.788" stroke="black" stroke-width="10"/>
<path d="M181.183 3071.38L91.3455 3106.41L39.1275 3019.35L91.3455 2945.17V2879.74L39.1275 2797.32V2679.86L6 2566.53L39.1275 2523.26L181.183 2436.2V2323.38L134.018 2262.08L181.183 2166.77L304.709 2131.74H418.129L551.2 2070.95L693.256 2018.41L745.474 1892.2H825.766L977.928 1844.8L1072.82 1748.98L1110.44 1696.44L1309.76 1640.29L1376.02 1670.68L1551.76 1609.89L1755.58 1548.59L1712.91 1435.77L1755.58 1300.8L1840.93 1183.35C1875.55 1183.35 1949.63 1186.85 1968.95 1200.86C1988.26 1214.88 1992.72 1244.48 1992.53 1257.53H2096.96H2224.98L2367.04 1148.32L2580.4 1113.8H2732L2898.2 1061.77H3049.8L3116.06 957.196L3177.82 843.863L3282.26 818.106L3324.93 866.015H3405.22L3455.36 871.007L3505.5 876L3473.75 916.598L3442 957.196C3442 957.196 3368.91 952.684 3367.6 983.469C3366.27 1014.75 3442 1013.35 3442 1013.35L3500.11 1017.98L3616 936.5L3722.5 818.106L3813.5 710L3876 621.5V594L3889.22 582.682L3922.35 691.379L4031.27 726.409L4079 843.864L4031.27 1013.35L3984.11 1113.8L3922.35 1213.74V1292.05V1535.71L4031.27 1709.83L4173.89 1892.2V2066.32L4230.6 2222.92L4259.24 2488.23L4135.71 2649.47L4112.13 2814.32V2910.14L4173.89 2853.47C4191.11 2873.9 4226.56 2919.92 4230.6 2940.53C4234.64 2961.14 4194.48 3016.09 4173.89 3040.98L4135.71 3105.89H4031.27L3922.35 3232.11L3851.04 3327.92V3488.65L3822.96 3545.32L3780.29 3649.89V3780.23V3854.41L3822.96 3945.59L3728.07 3919.32L3604.55 3797.74L3547.84 3649.89V3414.98L3472.04 3288.77L3462.49 3206.35L3377.15 3027.59L3324.93 2970.92V2853.47L3296.29 2814.32L3285.5 2653.59L3253 2492.86L3210 2400.5L3116.06 2305L3021.17 2237.5H2913L2884.5 2195L2959 2101V2054.5L3021.17 1985V1916L2959 1868L2755.58 1892.2L2591.5 1947.5L2544.5 1985L2561.31 2101L2510 2195L2411.5 2203L2377.5 2181L2332 2101H2319L2325.5 2203L2332 2305C2369.81 2316.51 2565.13 2432.69 2580.4 2418.68C2595.67 2404.67 2687.83 2424.52 2732 2436.2V2492.86L2779.73 2566.53V2653.59L2755.58 2836.47L2732 2971.44V3053.86L2779.73 3175.95L2898.2 3271.26L3021.17 3310.41V3454.14L3144.69 3663.29V3828.14L3177.82 4106.83L3282.26 4237.17L3291.8 4311.35V4376.26L3335 4423.61V4490.61L3291.8 4524.62L3212.5 4541.62L3162.5 4584.11L3101.5 4668.61H2978.49L3066.5 4524.62L3082.93 4402.53L3049.8 4289.71H2978.49L2850.47 4150.11L2779.73 3945.59L2684.84 3915.2H2561.31L2466.42 3871.92V3784.86L2423.75 3663.29L2314.82 3589.11L2224.98 3562.83L2096.96 3532.44L1893.15 3497.92L1802.75 3427.86L1712.91 3349.56L1688.77 3271.26H1612.97L1499.55 3310.41L1281.13 3271.26L1233.96 3201.71V3071.38L1186.24 3019.35L1072.82 3053.86V3106.41L996.457 3175.95L883.037 3201.71H825.766V3149.68L996.457 3053.86L1072.82 2971.44L1143.57 2906.01C1146.75 2887.13 1159.74 2838.94 1186.24 2797.32C1212.74 2755.69 1279.63 2701.67 1309.76 2679.86L1186.24 2740.65C1146.75 2759.54 1063.05 2797.32 1044.18 2797.32C1025.32 2797.32 992.152 2832 977.928 2849.35L939.747 2906.01H825.766L745.474 3019.35L551.2 3071.38M181.183 3071.38C200.273 3071.38 243.171 3071.38 262.036 3071.38M181.183 3071.38H262.036M262.036 3071.38C280.902 3071.38 462.673 3071.38 551.2 3071.38M262.036 3071.38H551.2" stroke="black" stroke-width="10"/>
<path d="M4260.22 1683C4250.1 1683 4220.62 1672.67 4207.14 1667.5L4161.82 1606H4116.5L4091.18 1513L4060.56 1466.5L4043 1414L4060.56 1339.5L4043 1274.5L4060.56 1188L4134.05 1129.5V1024C4138.27 1006.5 4149.73 965.9 4161.82 943.5C4173.91 921.1 4185.37 901.167 4189.59 894H4260.22L4313.31 971.5H4361.49L4381.5 1024C4392.52 1030.17 4414.57 1045.6 4414.57 1058C4414.57 1070.4 4427.91 1090.17 4434.58 1098.5L4475 1188V1392.5L4452.54 1537.5L4414.57 1624.5L4333.72 1683M4260.22 1683C4270.35 1683 4313.44 1683 4333.72 1683M4260.22 1683H4333.72" stroke="black" stroke-width="10"/>
</svg>
