<svg width="4469" height="4729" viewBox="0 0 4469 4729" fill="none" xmlns="http://www.w3.org/2000/svg">
<path d="M2710.28 783.323L2738.53 791.548L2751.27 844.236L2776.61 868.288C2776.61 868.288 2797.4 874.342 2804.86 876.513C2812.31 878.683 2810.28 844.745 2818.15 830.884C2826.01 817.023 2866.81 828.904 2866.81 828.904L2936.46 829.387L3000.14 803.641L3031.84 772.232L3062.12 709.15L3106.81 656.514L3165.36 630.838L3223.75 636.379L3281.81 653.286C3281.81 653.286 3301.62 672.949 3309.96 689.618C3320.77 711.247 3317.52 745.486 3324.75 752.802C3331.98 760.118 3348.47 726.884 3348.47 726.884L3374 680.132L3394.01 685.958L3413.47 655.673L3424.45 658.872L3447.29 608.209L3438.08 571.141L3415.68 537.003L3427.99 494.736L3406.57 471.827L3413.98 446.371L3443.37 441.904L3474.53 445.99L3483.26 416.004L3497.88 406.715L3505.71 379.818L3460.08 343.606C3454.57 338.18 3442.05 326.893 3436.09 325.157L3417.65 319.788L3363.81 279.621L3345.47 246.145L3352.04 223.571L3374.78 201.016L3359.55 170.009C3354.49 161.587 3340.82 144.025 3326.68 141.157C3312.53 138.288 3288.61 130.594 3278.42 127.106L3245 136.652L3172.36 142.069L3133.8 137.095L3090.05 158.742L3061.74 191.659L3023.68 180.578L2987.3 194.47L2927.08 240.5L2848.33 309.268L2846.75 361.434L2864.58 386.425L2843.14 432.285L2814.31 472.863L2734.45 522.032L2685.3 566.596L2666.52 603.33L2663.34 642.003L2646.24 672.973L2638.83 698.429L2638.73 726.536L2672.07 736.246L2693.63 758.675L2710.28 783.323Z" fill="#947DD9"/>
<path d="M175.183 2323.38V2436.2L33.1275 2523.26L0 2566.53L33.1275 2679.86V2797.32L85.3455 2879.74V2945.17L33.1275 3019.35L85.3455 3106.41L175.183 3071.38H256.036H545.2L739.474 3019.35L819.766 2906.01H933.747L971.928 2849.35C986.152 2832 1019.32 2797.32 1038.18 2797.32C1057.05 2797.32 1140.75 2759.54 1180.24 2740.65L1303.76 2679.86C1273.63 2701.67 1206.74 2755.69 1180.24 2797.32C1153.74 2838.94 1140.75 2887.13 1137.57 2906.01L1066.82 2971.44L990.457 3053.86L819.766 3149.68V3201.71H877.037L990.457 3175.95L1066.82 3106.41V3053.86L1180.24 3019.35L1227.96 3071.38V3201.71L1275.13 3271.26L1493.55 3310.41L1606.97 3271.26H1682.77L1706.91 3349.56L1796.75 3427.86L1887.15 3497.92L2090.96 3532.44L2218.98 3562.83L2308.82 3589.11L2417.75 3663.29L2460.42 3784.86V3871.92L2555.31 3915.2H2678.84L2773.73 3945.59L2844.47 4150.11L2972.49 4289.71H3043.8L3076.93 4402.53L3060.5 4524.62L2915.78 4729L3095.5 4668.61L3156.5 4584.11L3206.5 4541.62L3285.8 4524.62L3329 4490.61V4423.61L3285.8 4376.26V4311.35L3276.26 4237.17L3171.82 4106.83L3138.69 3828.14V3663.29L3015.17 3454.14V3310.41L2892.2 3271.26L2773.73 3175.95L2726 3053.86V2971.44L2749.58 2836.47L2773.73 2653.59V2566.53L2726 2492.86V2436.2C2681.83 2424.52 2589.67 2404.67 2574.4 2418.68C2559.13 2432.69 2363.81 2316.51 2326 2305L2319.5 2203L2313 2101H2326L2371.5 2181L2405.5 2203L2504 2195L2555.31 2101L2538.5 1985L2585.5 1947.5L2749.58 1892.2L2953 1868L3015.17 1916V1985L2953 2054.5V2101L2878.5 2195L2907 2237.5H3015.17L3110.06 2305L3204 2400.5L3247 2492.86L3279.5 2653.59L3290.29 2814.32L3318.93 2853.47V2970.92L3371.15 3027.59L3456.49 3206.35L3466.04 3288.77L3541.84 3414.98V3649.89L3598.55 3797.74L3722.07 3919.32L3816.96 3945.59L3774.29 3854.41V3780.23V3649.89L3816.96 3545.32L3845.04 3488.65V3327.92L3916.35 3232.11L4025.27 3105.89H4129.71L4167.89 3040.98C4188.48 3016.09 4228.64 2961.14 4224.6 2940.53C4220.56 2919.92 4185.11 2873.9 4167.89 2853.47L4106.13 2910.14V2814.32L4129.71 2649.47L4253.24 2488.23L4224.6 2222.92L4167.89 2066.32V1892.2L4025.27 1709.83L3916.35 1535.71V1292.05V1213.74L3978.11 1113.8L4025.27 1013.35L4073 843.864L4025.27 726.409L3916.35 691.379L3883.22 582.682L3870 594V621.5L3807.5 710L3716.5 818.106L3610 936.5L3494.11 1017.98L3436 1013.35C3436 1013.35 3360.27 1014.75 3361.6 983.469C3362.91 952.684 3436 957.196 3436 957.196L3467.75 916.598L3499.5 876L3449.36 871.007L3399.22 866.015H3318.93L3276.26 818.106L3171.82 843.863L3110.06 957.196L3043.8 1061.77H2892.2L2726 1113.8H2574.4L2361.04 1148.32L2218.98 1257.53H2090.96H1986.53C1986.72 1244.48 1982.26 1214.88 1962.95 1200.86C1943.63 1186.85 1869.55 1183.35 1834.93 1183.35L1749.58 1300.8L1706.91 1435.77L1749.58 1548.59L1545.76 1609.89L1370.02 1670.68L1303.76 1640.29L1104.44 1696.44L1066.82 1748.98L971.928 1844.8L819.766 1892.2H739.474L687.256 2018.41L545.2 2070.95L412.129 2131.74H298.709L175.183 2166.77L128.018 2262.08L175.183 2323.38Z" fill="#947DD9"/>
<path d="M4128.05 1024V1129.5L4054.56 1188L4037 1274.5L4054.56 1339.5L4037 1414L4054.56 1466.5L4085.18 1513L4110.5 1606H4155.82L4201.14 1667.5C4214.62 1672.67 4244.1 1683 4254.22 1683H4327.72L4408.57 1624.5L4446.54 1537.5L4469 1392.5V1188L4428.58 1098.5C4421.91 1090.17 4408.57 1070.4 4408.57 1058C4408.57 1045.6 4386.52 1030.17 4375.5 1024L4355.49 971.5H4307.31L4254.22 894H4183.59C4179.37 901.167 4167.91 921.1 4155.82 943.5C4143.73 965.9 4132.27 1006.5 4128.05 1024Z" fill="#947DD9"/>
</svg>
