<svg width="7161" height="6157" viewBox="0 0 7161 6157" fill="none" xmlns="http://www.w3.org/2000/svg">
<path d="M1831.5 5823.5H1975.5L2033.5 6006H2187H2369.5L2581 6150.5L2725 6073.5L2831 5919.5H2965.5V5823.5H3042.5L3157.5 5708L3215.5 5343L3273 5179.5H3628.5L3849.5 5285.5H4032L4118.5 5179.5L4032 4978V4795.5L4224.5 4324.5L4426 3940L4734 3805.5H5108.5L5214.5 3555.5L5310.5 3209.5L5493 3046H5666L5752.5 2883L5598.5 2806V2594.5L5752.5 2383L5925.5 2287L6060 2056.5L6117.5 1806.5L6175.5 1710.5L6367.5 1681.5L6598 1537.5L6502 1460.5L6598 1374L6732.5 1431.5L6781 1537.5L6732.5 1614L6973 1710.5L7155.5 1614V1431.5H6973L6848 1278L6732.5 1230V1162.5C6678.17 1095.17 6563.7 952.9 6540.5 922.5C6517.3 892.1 6383.5 755.833 6319.5 691.5V528L6060 480H5752.5L5493 307H5310.5L5060.5 201.5H4849L4734 9.5L4609 201.5L4522.5 480C4490.33 569.833 4426 759.1 4426 797.5C4426 835.9 4490.33 1056.83 4522.5 1162.5V1537.5L4378 1806.5L4118.5 2056.5H3772.5L3686 1922L3628.5 1614V1278L3594.5 1078H3457.5L3380.25 1157.25L3245.5 1201.5L3136 1326L3042.5 1537.5L2965.5 1681.5L2859.5 1768L2658 1979.5L2369.5 2219.5H2264L1975.5 2287L1831.5 2383V2594.5L1735.5 2671.5L1591 2806L1543 3036.5L1360.5 3123L1255 3440V3690L1178 3940V4151.5L1072 4401L822.5 4632H505L332 4689.5L140 4795.5L5.5 4901V4978L140 5035.5H505H966.5V5122L1072 5179.5L1178 5285.5L1495 5343L1591 5410.5L1495 5516V5708C1527 5746.5 1604.5 5823.5 1658.5 5823.5M1831.5 5823.5C1796.33 5823.5 1712.5 5823.5 1658.5 5823.5M1831.5 5823.5H1658.5" stroke="black" stroke-width="10"/>
</svg>
