<svg width="7151" height="6142" viewBox="0 0 7151 6142" fill="none" xmlns="http://www.w3.org/2000/svg">
<path d="M3037.5 1528.5L3131 1317L3240.5 1192.5L3375.25 1148.25L3452.5 1069H3589.5L3623.5 1269V1605L3681 1913L3767.5 2047.5H4113.5L4373 1797.5L4517.5 1528.5V1153.5C4485.33 1047.83 4421 826.9 4421 788.5C4421 750.1 4485.33 560.833 4517.5 471L4604 192.5L4729 0.5L4844 192.5H5055.5L5305.5 298H5488L5747.5 471H6055L6314.5 519V682.5C6378.5 746.833 6512.3 883.1 6535.5 913.5C6558.7 943.9 6673.17 1086.17 6727.5 1153.5V1221L6843 1269L6968 1422.5H7150.5V1605L6968 1701.5L6727.5 1605L6776 1528.5L6727.5 1422.5L6593 1365L6497 1451.5L6593 1528.5L6362.5 1672.5L6170.5 1701.5L6112.5 1797.5L6055 2047.5L5920.5 2278L5747.5 2374L5593.5 2585.5V2797L5747.5 2874L5661 3037H5488L5305.5 3200.5L5209.5 3546.5L5103.5 3796.5H4729L4421 3931L4219.5 4315.5L4027 4786.5V4969L4113.5 5170.5L4027 5276.5H3844.5L3623.5 5170.5H3268L3210.5 5334L3152.5 5699L3037.5 5814.5H2960.5V5910.5H2826L2720 6064.5L2576 6141.5L2364.5 5997H2182H2028.5L1970.5 5814.5H1826.5H1653.5C1599.5 5814.5 1522 5737.5 1490 5699V5507L1586 5401.5L1490 5334L1173 5276.5L1067 5170.5L961.5 5113V5026.5H500H135L0.5 4969V4892L135 4786.5L327 4680.5L500 4623H817.5L1067 4392L1173 4142.5V3931L1250 3681V3431L1355.5 3114L1538 3027.5L1586 2797L1730.5 2662.5L1826.5 2585.5V2374L1970.5 2278L2259 2210.5H2364.5L2653 1970.5L2854.5 1759L2960.5 1672.5L3037.5 1528.5Z" fill="#BEBEBE"/>
</svg>
