<svg width="5304" height="11113" viewBox="0 0 5304 11113" fill="none" xmlns="http://www.w3.org/2000/svg">
<path d="M5118.39 279.05L5126.98 300.515L5137.61 310L5149.05 293.027L5163.77 279.05L5175.22 264.074L5194.43 255.588L5204.25 238.116V227.633H5242.68H5271.7C5273.88 222.641 5279.06 212.457 5282.33 211.659C5285.6 210.86 5292.96 194.353 5296.23 186.2L5304 149.758V107.826V68.3897L5296.23 57.4074H5255.76L5251.67 36.4412V0H5204.25L5188.3 23.4622L5179.72 51.4171L5156.82 68.3897L5137.61 89.8551L5111.44 99.3398L5105.31 211.659L5091 217.15V255.588L5105.31 264.074L5118.39 279.05Z" fill="#6B6B6B"/>
<path d="M1336.5 3064.5L1270.5 3138.5H1192L1171.5 3184L1097 3221L994 3184V3138.5L1060 3064.5L1097 3043.5H1171.5L1237.5 3015L1303.5 2994L1371.05 2970.54L1336.5 3064.5Z" fill="#6B6B6B"/>
<path d="M773.5 5418.5L749 5476L654 5497L575.5 5443V5377L654 5344L683 5253.5L749 5204H802.5L819 5270V5344L773.5 5377V5418.5Z" fill="#6B6B6B"/>
<path d="M1479 4750L1273 4614L1186 4465.5V4366.5L1248 4325L1334.5 4300.5H1421.5V4346L1334.5 4391V4432.5C1334.5 4458.9 1353.83 4501.17 1363.5 4519L1421.5 4614V4680L1479 4750Z" fill="#6B6B6B"/>
<path d="M478.469 7695.29C517.657 7671.94 568.912 7621.36 568.912 7621.36C568.912 7621.36 527.654 7625.48 501.21 7628.03C475.023 7630.56 434.141 7634.38 434.141 7634.38L359.795 7641.97L302.615 7628.44C302.615 7628.44 254.642 7606.42 243.275 7602.58C231.907 7598.73 168.419 7544.54 168.419 7544.54L116.37 7514.28L125.822 7448.86L74.885 7454.33L42.4253 7501.94L49.7707 7595.74L228.859 7682.68C228.859 7682.68 320.773 7744.9 351.769 7743.76C382.764 7742.63 432.958 7722.41 478.469 7695.29Z" fill="#6B6B6B"/>
<path d="M4267.24 10097.5L4247.63 10141.8L4189.05 10167.2L4130.21 10121.3L4137.9 10049.6L4175.6 10058.1L4267.24 10097.5Z" fill="#6B6B6B"/>
<path d="M4228.24 10239.4L4165.58 10266.6L4160.28 10332.7L4188.13 10396.7L4254.91 10423.7L4313.5 10435.5L4310.75 10380.7L4267.24 10351.5L4269.25 10285.3L4256.18 10255.2L4228.24 10239.4Z" fill="#6B6B6B"/>
<path d="M4461.28 10623.4L4457.9 10671.5L4481.77 10726.5L4512.43 10741.1L4551.24 10696.3L4527.37 10641.3L4461.28 10623.4Z" fill="#6B6B6B"/>
<path d="M4804.75 10865.9L4785.42 10821.4L4863.06 10769L4952.65 10781.4L5021.93 10829L5001.53 10893.8L4924.44 10910.2L4811 10880.2L4804.75 10865.9Z" fill="#6B6B6B"/>
<path d="M4921.63 10743.5L4920.82 10708.1L4954.99 10701.1L4987.36 10719.6L4987.83 10750.5L4978.29 10754.7L4921.63 10743.5Z" fill="#6B6B6B"/>
</svg>
