<svg width="5309" height="11118" viewBox="0 0 5309 11118" fill="none" xmlns="http://www.w3.org/2000/svg">
<path d="M5118.39 284.05L5126.98 305.515L5137.61 315L5149.05 298.027L5163.77 284.05L5175.22 269.074L5194.43 260.588L5204.25 243.116V232.633H5242.68H5271.7C5273.88 227.641 5279.06 217.457 5282.33 216.659C5285.6 215.86 5292.96 199.353 5296.23 191.2L5304 154.758V112.826V73.3897L5296.23 62.4074H5255.76L5251.67 41.4412V5H5204.25L5188.3 28.4622L5179.72 56.4171L5156.82 73.3897L5137.61 94.8551L5111.44 104.34L5105.31 216.659L5091 222.15V260.588L5105.31 269.074L5118.39 284.05Z" stroke="black" stroke-width="10"/>
<path d="M1377.5 2958L1371.05 2975.54M1371.05 2975.54L1336.5 3069.5L1270.5 3143.5H1192L1171.5 3189L1097 3226L994 3189V3143.5L1060 3069.5L1097 3048.5H1171.5L1237.5 3020L1303.5 2999L1371.05 2975.54Z" stroke="black" stroke-width="10"/>
<path d="M773.5 5423.5L749 5481L654 5502L575.5 5448V5382L654 5349L683 5258.5L749 5209H802.5L819 5275V5349L773.5 5382V5423.5Z" stroke="black" stroke-width="10"/>
<path d="M1334.5 4396L1421.5 4351V4305.5H1334.5L1248 4330L1186 4371.5V4470.5L1273 4619L1479 4755L1421.5 4685V4619L1363.5 4524C1353.83 4506.17 1334.5 4463.9 1334.5 4437.5M1334.5 4396C1334.5 4398.83 1334.5 4411.1 1334.5 4437.5M1334.5 4396V4437.5" stroke="black" stroke-width="10"/>
<path d="M478.469 7700.29C517.657 7676.94 568.912 7626.36 568.912 7626.36C568.912 7626.36 527.654 7630.48 501.21 7633.03C475.023 7635.56 434.141 7639.38 434.141 7639.38L359.795 7646.97L302.615 7633.44C302.615 7633.44 254.642 7611.42 243.275 7607.58C231.907 7603.73 168.419 7549.54 168.419 7549.54L116.37 7519.28L125.822 7453.86L74.885 7459.33L42.4253 7506.94L49.7707 7600.74L228.859 7687.68C228.859 7687.68 320.773 7749.9 351.769 7748.76C382.764 7747.63 432.958 7727.41 478.469 7700.29Z" stroke="black" stroke-width="10"/>
<path d="M4267.24 10102.5L4247.63 10146.8L4189.05 10172.2L4130.21 10126.3L4137.9 10054.6L4175.6 10063.1L4267.24 10102.5Z" stroke="black" stroke-width="10"/>
<path d="M4228.24 10244.4L4165.58 10271.6L4160.28 10337.7L4188.13 10401.7L4254.91 10428.7L4313.5 10440.5L4310.75 10385.7L4267.24 10356.5L4269.25 10290.3L4256.18 10260.2L4228.24 10244.4Z" stroke="black" stroke-width="10"/>
<path d="M4461.28 10628.4L4457.9 10676.5L4481.77 10731.5L4512.43 10746.1L4551.24 10701.3L4527.37 10646.3L4461.28 10628.4Z" stroke="black" stroke-width="10"/>
<path d="M4804.75 10870.9L4785.42 10826.4L4863.06 10774L4952.65 10786.4L5021.93 10834L5001.53 10898.8L4924.44 10915.2L4811 10885.2L4804.75 10870.9Z" stroke="black" stroke-width="10"/>
<path d="M4921.63 10748.5L4920.82 10713.1L4954.99 10706.1L4987.36 10724.6L4987.83 10755.5L4978.29 10759.7L4921.63 10748.5Z" stroke="black" stroke-width="10"/>
</svg>
