<svg version="1.2" xmlns="http://www.w3.org/2000/svg" viewBox="0 0 259 192" width="259" height="192"><style>.a{fill:#ac1013}.b{fill:none;stroke:#ac1013;stroke-miterlimit:10;stroke-width:2}</style><path class="a" d="m131.5 171.6q-25.9-22.2-51.7-44.5c5.6-6.4 15-15.1 28.9-20.3 5.8-2.2 28.2-10.6 50.8 1 11.9 6.1 18.8 15.3 22.1 20.3q-25 21.8-50.1 43.5z"/><path class="b" d="m131.6 171.6q-59.5-50.2-119.1-100.4c12.9-14.4 34.7-34 66.7-45.7 13.2-4.9 64.9-24 117 2.3 27.4 13.8 43.4 34.3 51 45.6q-57.8 49.1-115.6 98.2z"/><path class="a" d="m131.3 164c-5.2 12.1-7.2 22.3-4.2 25.3 2.4 2.3 4.6 2.1 4.6 2.1 0 0 1.5-0.2 2.9-1.6 3.7-3.9-2.8-24.2-3.3-25.8z"/><path class="a" d="m12.8 70.6c-3.8-0.2-9.7 0.2-11.6-4.2-1.2-2.7 0-6.8 3.1-7.3 5.7-1 7.4 6.7 8.5 11.5z"/><path class="a" d="m44.4 43.5c-3.7-0.7-9.6-1.1-11-5.6-0.8-2.9 0.8-6.7 4-6.9 5.7-0.3 6.5 7.6 7 12.5z"/><path class="a" d="m85.1 24.5c-3.3-1.8-9-3.7-9.1-8.5 0-3 2.6-6.2 5.6-5.5 5.7 1.3 4.3 9.1 3.5 14z"/><path class="a" d="m246.3 73.9c0.8-3.8 1.4-9.9 5.8-11.1 2.8-0.8 6.5 1 6.5 4.3 0.1 5.9-7.5 6.4-12.3 6.8z"/><path class="a" d="m218.8 43.5c0.3-3.9-0.1-10 4.1-12 2.7-1.2 6.6 0 7.1 3.3 1 5.8-6.5 7.5-11.2 8.7z"/><path class="a" d="m182.4 23.9c-0.8-3.7-3-9.5 0.5-12.6 2.2-2 6.3-2 7.7 0.9 2.6 5.3-4 9.2-8.2 11.7z"/><path class="a" d="m135.7 15c-2-3.2-5.8-7.9-3.5-12.1 1.4-2.6 5.2-4 7.5-1.7 4.2 4.1-0.8 10-4 13.8z"/><path class="b" d="m218.8 43.3l-88.1 124.7"/><path class="b" d="m182.9 22.6l-47.7 146.3"/><path class="b" d="m131.3 164l-46.1-139.8"/><path class="b" d="m132 144.8l-0.7 23.2-86.9-124.7"/><path class="b" d="m135.7 14.2l-3.7 130.6"/><path class="a" d="m59.1 88.9c-2.2 0.2-3.9-0.9-4.1-2.1-0.1-0.7 0.2-1.5 0.8-2 0.7-0.7 1.7-0.9 2.5-0.7 1.2 0.4 2.1 1.6 2.1 3 0-0.6 0.1-1.3 0.3-1.9 0.7-1.3 3.3-1.4 4.3-0.4 0.8 0.7 0.9 2.2 0.2 3.2-0.7 0.8-1.8 1-2 1 1.3 0.3 2.3 1.3 2.4 2.4 0.1 0.5 0 1.2-0.6 1.8-0.5 0.5-1.3 0.8-1.9 0.7-1.3-0.1-2.4-1.4-2.4-3.1-0.1 2.2-2 3.5-3.6 3.3-1.2-0.3-2.3-1.5-2.2-2.7 0.1-1.5 2-2.9 4.2-2.5z"/><path class="a" d="m77.5 60c-4.6-1.3-7.2-4.8-6.8-7.5 0.2-1.5 1.4-2.8 2.9-3.4 1.9-0.9 4.1-0.5 5.6 0.6 2.3 1.5 3.3 4.7 2.2 7.6 0.4-1.3 1.1-2.6 2.1-3.6 2.3-2.2 7.6-0.3 9.1 2.4 1.1 2.1 0.2 5.2-2.1 6.6-2 1.3-4.2 0.8-4.7 0.6 2.5 1.7 3.8 4.4 3.3 6.7-0.3 1.1-1.1 2.5-2.6 3.2-1.4 0.7-3.2 0.7-4.5 0-2.4-1.2-3.7-4.6-2.5-8.1-1.9 4.4-6.8 5.7-9.8 3.9-2.4-1.4-3.6-4.8-2.6-7.2 1.3-3 6.1-4.4 10.4-1.8z"/><path class="a" d="m94.3 95.6c-2.2 0.2-3.9-0.9-4.1-2.1-0.1-0.7 0.2-1.5 0.7-2 0.7-0.7 1.8-0.9 2.6-0.7 1.2 0.3 2.1 1.6 2.1 3 0-0.6 0.1-1.3 0.3-1.9 0.7-1.3 3.3-1.4 4.3-0.4 0.8 0.7 0.9 2.2 0.1 3.2-0.6 0.8-1.7 1-1.9 1 1.3 0.3 2.3 1.3 2.4 2.4 0.1 0.5-0.1 1.2-0.6 1.8-0.5 0.5-1.3 0.8-2 0.7-1.2-0.1-2.3-1.4-2.3-3.1-0.1 2.2-2 3.5-3.6 3.3-1.3-0.3-2.3-1.5-2.2-2.7 0.1-1.5 1.9-2.9 4.2-2.5z"/><path class="a" d="m110.5 53.4c-2.2 0.2-3.9-0.9-4.1-2.1-0.1-0.7 0.2-1.5 0.7-2 0.7-0.6 1.8-0.8 2.6-0.6 1.2 0.3 2.1 1.5 2.1 2.9 0-0.6 0.1-1.3 0.3-1.8 0.7-1.4 3.3-1.4 4.3-0.5 0.8 0.7 0.9 2.2 0.1 3.2-0.6 0.9-1.7 1-1.9 1 1.3 0.4 2.3 1.3 2.4 2.4 0.1 0.5-0.1 1.2-0.6 1.8-0.5 0.6-1.3 0.8-2 0.7-1.2-0.1-2.3-1.4-2.3-3.1-0.1 2.2-2 3.6-3.6 3.3-1.3-0.2-2.3-1.5-2.2-2.7 0.1-1.5 1.9-2.9 4.2-2.5z"/><path class="a" d="m99.7 30.8c-2.2 0.2-3.9-0.9-4.1-2.1-0.1-0.7 0.2-1.5 0.7-2 0.7-0.7 1.8-0.8 2.6-0.6 1.2 0.3 2.1 1.5 2.1 2.9 0-0.6 0.1-1.3 0.3-1.8 0.7-1.4 3.3-1.4 4.3-0.5 0.8 0.7 0.9 2.2 0.1 3.2-0.6 0.9-1.7 1-1.9 1 1.3 0.4 2.3 1.3 2.4 2.4 0.1 0.5-0.1 1.2-0.6 1.8-0.5 0.5-1.3 0.8-2 0.7-1.2-0.1-2.3-1.4-2.3-3.1-0.1 2.2-2 3.6-3.6 3.3-1.3-0.2-2.3-1.5-2.2-2.7 0.1-1.5 1.9-2.9 4.2-2.5z"/><path class="a" d="m124.5 27.4c-2.2 0.2-3.9-0.8-4.1-2.1-0.1-0.7 0.2-1.4 0.7-2 0.8-0.6 1.8-0.8 2.6-0.6 1.2 0.3 2.1 1.5 2.1 2.9 0-0.6 0.1-1.3 0.3-1.8 0.7-1.4 3.3-1.4 4.3-0.5 0.8 0.8 0.9 2.3 0.1 3.2-0.6 0.9-1.7 1-1.9 1.1 1.3 0.3 2.3 1.2 2.4 2.3 0.1 0.5-0.1 1.3-0.6 1.8-0.5 0.6-1.3 0.8-2 0.8-1.2-0.2-2.3-1.4-2.3-3.1-0.1 2.1-2 3.5-3.6 3.2-1.3-0.2-2.3-1.5-2.2-2.7 0.1-1.5 1.9-2.9 4.2-2.5z"/><path class="a" d="m38.8 74.7c-2.1 0.2-3.8-0.9-4.1-2.1-0.1-0.7 0.2-1.5 0.8-2 0.7-0.7 1.7-0.8 2.5-0.6 1.2 0.3 2.1 1.5 2.1 2.9 0-0.6 0.1-1.3 0.4-1.8 0.6-1.4 3.2-1.4 4.3-0.5 0.8 0.7 0.8 2.2 0.1 3.2-0.7 0.9-1.7 1-2 1 1.4 0.4 2.3 1.3 2.5 2.4 0 0.5-0.1 1.2-0.7 1.8-0.5 0.6-1.3 0.8-1.9 0.7-1.2-0.1-2.3-1.4-2.3-3.1-0.2 2.2-2.1 3.6-3.7 3.3-1.2-0.2-2.3-1.5-2.2-2.7 0.1-1.5 2-2.9 4.2-2.5z"/></svg>