<svg version="1.2" xmlns="http://www.w3.org/2000/svg" viewBox="0 0 360 124" width="360" height="124"><style>.a{fill:#f4b869}</style><path fill-rule="evenodd" class="a" d="m358.5 24.6c0 12.3-10.1 22.3-22.4 22.3h-61.1c-8.4 0-15.3 6.9-15.3 15.3 0 8.5 6.9 15.4 15.3 15.4h2.9c12.3 0 22.3 10 22.3 22.3 0 12.3-10 22.3-22.3 22.3h-254.1c-12.3 0-22.3-10-22.3-22.3 0-12.3 10-22.3 22.3-22.3h18q0 0 0 0h31q0.1-0.1 0.2-0.1h23.9c8.2-0.2 14.8-7 14.8-15.3 0-8.4-6.8-15.3-15.3-15.3h-14.4c-12.3 0-22.3-10-22.3-22.3 0-12.3 10-22.3 22.3-22.3h254.1c12.3 0 22.4 10 22.4 22.3zm-25 0c0-8.4-6.9-15.3-15.3-15.3h-217.6c-8.5 0-15.3 6.9-15.3 15.3 0 8.4 6.8 15.3 15.3 15.3q0.1 0 0.2 0h15.9c12.3 0 22.3 10 22.3 22.3 0 12.3-10 22.3-22.3 22.3l-74.9 0.1c-8.4 0-15.3 6.8-15.3 15.3 0 8.4 6.9 15.3 15.3 15.3h20.4q0.1 0 0.2 0h154.9q0.1 0 0.2 0h43.7c8.5 0 15.3-6.9 15.3-15.3 0-8.5-6.8-15.3-15.3-15.3q-0.1 0-0.2-0.1h-7.8c-12.3 0-22.3-10-22.3-22.3 0-12.3 10-22.3 22.3-22.3h21q0.1 0 0.3 0h43.7c8.4 0 15.3-6.9 15.3-15.3zm-307.8 90.6c-3.8-4-6.2-9.4-6.2-15.3 0-6 2.4-11.3 6.1-15.3h-1.8c-8.5 0-15.3 6.8-15.3 15.3 0 8.4 6.8 15.3 15.3 15.3zm257.8-15.3c0 5.9-2.3 11.3-6.1 15.3h0.5c8.4 0 15.3-6.9 15.3-15.3 0-8.5-6.9-15.3-15.3-15.3h-0.5c3.8 4 6.1 9.3 6.1 15.3zm-199.1-60c-3.8-4-6.1-9.4-6.1-15.3 0-5.9 2.3-11.3 6.1-15.3h-2.4c-8.4 0-15.3 6.9-15.3 15.3 0 8.5 6.9 15.3 15.3 15.3zm168.4 22.3c0-5.9 2.3-11.3 6.1-15.3h-5.6c-8.4 0-15.3 6.9-15.3 15.3 0 8.5 6.9 15.3 15.3 15.3h5.6c-3.8-4-6.1-9.3-6.1-15.3zm-134 0c0 6-2.3 11.3-6.1 15.3h4.1c8.4 0 15.3-6.8 15.3-15.3 0-8.4-6.9-15.3-15.3-15.3h-4.1c3.8 4 6.1 9.4 6.1 15.3zm232.7-37.6c0-8.4-6.9-15.3-15.3-15.3h-1.7c3.7 4 6.1 9.4 6.1 15.3 0 5.9-2.4 11.3-6.2 15.3h1.8c8.4 0 15.3-6.8 15.3-15.3z"/></svg>