<svg version="1.2" xmlns="http://www.w3.org/2000/svg" viewBox="0 0 494 187" width="494" height="187"><defs><linearGradient id="P" gradientUnits="userSpaceOnUse"/><linearGradient id="g1" x2="1" href="#P" gradientTransform="matrix(511.769,0,0,191.014,-6.597,1.658)"><stop stop-color="#e3b057"/><stop offset=".26" stop-color="#f2d779"/><stop offset=".68" stop-color="#c47833"/><stop offset="1" stop-color="#dda14b"/></linearGradient><linearGradient id="g2" x2="1" href="#P" gradientTransform="matrix(510.401,0,0,190.498,-0.624,-215.603)"><stop stop-color="#e3b057"/><stop offset=".26" stop-color="#f2d779"/><stop offset=".68" stop-color="#c47833"/><stop offset="1" stop-color="#dda14b"/></linearGradient></defs><style>.a{fill:url(#g1)}.b{fill:url(#g2)}</style><path fill-rule="evenodd" class="a" d="m26.6 133.7h-25.9v-80.2h25.9v-22.9h-3.8v19.1h-22.1v-22.1h19.1v-3.8h-13.6v-16.6h16.6v13.6h3.8v-19.1h22.1v22.1h-19.1v3.8h22.9v-25.9h389.1v25.9h22.9v-3.8h-19.2v-22.1h22.2v19.1h3.7v-13.6h16.7v16.6h-13.7v3.8h19.2v22.1h-22.2v-19.1h-3.7v22.9h25.9v80.2h-25.9v22.9h3.7v-19.1h22.2v22.1h-19.2v3.8h13.7v16.6h-16.7v-13.6h-3.7v19.1h-22.2v-22.1h19.2v-3.8h-22.9v25.9h-389.1v-25.9h-22.9v3.8h19.1v22.1h-22.1v-19.1h-3.8v13.6h-16.6v-16.6h13.6v-3.8h-19.1v-22.1h22.1v19.1h3.8zm3-3v25.9h25.9v25.9h383.1v-25.9h25.9v-25.9h25.9v-74.2h-25.9v-25.9h-25.9v-25.9h-383.1v25.9h-25.9v25.9h-25.9v74.2zm-9.8 35.7h-10.6v10.6h10.6zm9.8 0v16.2h16.1v-16.2zm-3-3v-3.7h-3.7v3.7zm437.9 3h-16.2v16.2h16.2zm9.7 0v10.7h10.7v-10.7zm0-9.7h16.1v-16.2h-16.1zm-3 3h-3.8v3.7h3.8zm3-129v16.1h16.1v-16.1zm0-9.8h10.7v-10.6h-10.7zm-9.7 0v-16.2h-16.2v16.2zm3 3v3.7h3.8v-3.7zm-437.9-3h16.2v-16.2h-16.2zm-9.7 0v-10.6h-10.7v10.6zm0 9.7h-16.2v16.2h16.2zm3-3h3.7v-3.7h-3.7zm-3 129v-16.1h-16.2v16.1z"/><path fill-rule="evenodd" class="b" d="m466.6-174.8v6.1h14.9v90.1h-14.9v6h26.8v40.9h-40.9v-26.8h-6.1v16h-398.8v-16h-6.1v26.8h-40.8v-40.9h26.8v-6h-14.9v-90.1h14.9v-6.1h-26.8v-40.8h40.8v26.8h6.1v-16h398.8v16h6.1v-26.8h40.9v40.8zm-11.1-14h8.3v-16h18.8v18.7h-16v8.3h23.8v-34.8h-34.9zm8.1 23.1v-9.1h-11.1v-11h-9v-16h-392.9v16h-9.1v11h-11v9.1h-14.9v84h14.9v9.1h11v11.1h9.1v16h392.9v-16h9v-11.1h11.1v-9.1h14.9v-84zm16-23.4v-12.7h-12.7v12.7zm-452.1 11.3v-8.3h-16v-18.7h18.7v16h8.3v-23.8h-34.8v34.8zm3-8v8h8v-8zm-16-16v12.7h12.8v-12.7zm24 143.3h-8.3v16h-18.7v-18.8h16v-8.3h-23.8v34.9h34.8zm0-11.1h-8v8.1h8zm-24 11.3v12.7h12.7v-12.7zm452.1-11.3v8.3h16v18.7h-18.7v-16h-8.4v23.8h34.9v-34.8zm-3 8v-8h-8v8zm16 16v-12.7h-12.8v12.7zm-24-132.2h8v-8.1h-8z"/></svg>