<svg version="1.2" xmlns="http://www.w3.org/2000/svg" viewBox="0 0 198 87" width="198" height="87"><style>tspan{white-space:pre}.a{fill:#fffefe}.b{fill:#cbc8b0}</style><path class="a" d="m168.8 1.8h-42.3c-3.3 0-5.9 2.6-5.9 5.9 0 3.2 2.6 5.9 5.9 5.9h42.3c3.3 0 5.9-2.7 5.9-5.9 0-3.3-2.6-5.9-5.9-5.9z"/><path class="b" d="m168.8 11.4h-42.3c-2.9 0-5.3-2.1-5.8-4.8q-0.1 0.5-0.1 1.1c0 3.2 2.6 5.9 5.9 5.9h42.3c3.3 0 5.9-2.7 5.9-5.9q0-0.6-0.1-1.1c-0.5 2.7-2.9 4.8-5.8 4.8z"/><path class="a" d="m123.1 72.5h-69.7c-3.3 0-5.9 2.6-5.9 5.9 0 3.2 2.6 5.9 5.9 5.9h69.7c3.3 0 5.9-2.7 5.9-5.9 0-3.3-2.6-5.9-5.9-5.9z"/><path class="b" d="m123.1 82.1h-69.7c-2.9 0-5.3-2.1-5.8-4.8q-0.1 0.5-0.1 1.1c0 3.2 2.6 5.9 5.9 5.9h69.7c3.3 0 5.9-2.7 5.9-5.9q0-0.6-0.1-1.1c-0.5 2.7-2.9 4.8-5.8 4.8z"/><path class="a" d="m189.9 25.4h-88.1c-3.2 0-5.9-2.7-5.9-5.9 0-3.3 2.7-5.9 5.9-5.9h5.8c3.2 0 6-2.6 6-5.8 0.1-3.3-2.5-6-5.8-6h-52.3c-3.3 0-6 2.5-6.1 5.8-0.1 3.3 2.6 6 5.9 6h18.1c3.2 0 5.9 2.6 5.9 5.9 0 3.2-2.7 5.9-5.9 5.9h-64.8c-3.3 0-6 2.5-6.1 5.7-0.1 3.4 2.6 6 5.9 6h36.8c3.2 0 5.8 2.7 5.8 5.9 0 3.3-2.6 5.9-5.8 5.9h-12c-3.2 0-6 2.6-6.1 5.8 0 3.3 2.6 6 5.9 6h119.8c3.2 0 6-2.5 6.1-5.8 0-3.3-2.6-6-5.9-6h-61.4c-3.3 0-5.9-2.6-5.9-5.9 0-3.2 2.6-5.9 5.9-5.9h98.5c3.3 0 6-2.6 5.9-6-0.1-3.2-2.8-5.7-6.1-5.7z"/><path class="b" d="m55.3 13.6h18.1c2.9 0 5.3 2.1 5.8 4.8q0.1-0.6 0.1-1.1c0-3.3-2.7-5.9-5.9-5.9h-18.1c-2.9 0-5.2-2-5.8-4.8q-0.1 0.5-0.1 1c-0.1 3.3 2.6 6 5.9 6z"/><path class="b" d="m107.6 11.4h-5.8c-3.2 0-5.9 2.6-5.9 5.9q0 0.5 0.2 1.1c0.5-2.7 2.9-4.8 5.7-4.8h5.8c3.2 0 6-2.6 6-5.8q0.1-0.6-0.1-1.3c-0.5 2.8-3 4.9-5.9 4.9z"/><path class="b" d="m190.1 35h-98.5c-3.3 0-5.9 2.6-5.9 5.8q0 0.6 0.1 1.1c0.5-2.7 2.9-4.8 5.8-4.8h98.5c3.3 0 6-2.6 5.9-6q0-0.4-0.1-0.9c-0.6 2.7-2.9 4.8-5.8 4.8z"/><path class="b" d="m50.9 41.9q0.1-0.5 0.1-1.1c0-3.2-2.6-5.8-5.8-5.8h-36.8c-2.9 0-5.3-2.1-5.8-4.8q-0.1 0.5-0.1 0.9c-0.1 3.4 2.6 6 5.9 6h36.8c2.8 0 5.2 2.1 5.7 4.8z"/><path class="b" d="m152.8 58.5h-119.8c-2.9 0-5.2-2-5.8-4.7q-0.1 0.4-0.1 0.9c0 3.3 2.6 6 5.9 6h119.8c3.2 0 6-2.5 6.1-5.8q0-0.6-0.2-1.2c-0.5 2.8-3 4.8-5.9 4.8z"/><path class="a" d="m963.2 245.4h-42.4c-3.2 0-5.8 2.6-5.8 5.9 0 3.2 2.6 5.9 5.8 5.9h42.4c3.3 0 5.9-2.7 5.9-5.9 0-3.3-2.6-5.9-5.9-5.9z"/><path class="b" d="m963.2 255h-42.4c-2.8 0-5.2-2.1-5.7-4.8q-0.1 0.5-0.1 1.1c0 3.2 2.6 5.9 5.8 5.9h42.4c3.3 0 5.9-2.7 5.9-5.9q0-0.6-0.1-1.1c-0.5 2.7-2.9 4.8-5.8 4.8z"/><path class="a" d="m917.5 316.1h-69.7c-3.3 0-5.9 2.6-5.9 5.9 0 3.2 2.6 5.9 5.9 5.9h69.7c3.3 0 5.9-2.7 5.9-5.9 0-3.3-2.6-5.9-5.9-5.9z"/><path class="b" d="m917.5 325.7h-69.7c-2.9 0-5.3-2.1-5.8-4.8q-0.1 0.5-0.1 1.1c0 3.2 2.6 5.9 5.9 5.9h69.7c3.3 0 5.9-2.7 5.9-5.9q0-0.6-0.1-1.1c-0.5 2.7-2.9 4.8-5.8 4.8z"/><path class="a" d="m939 269h-42.8c-3.2 0-5.9-2.7-5.9-5.9 0-3.3 2.7-5.9 5.9-5.9h5.8c3.2 0 6-2.6 6-5.8 0.1-3.3-2.6-6-5.8-6h-52.3c-3.3 0-6 2.5-6.1 5.8-0.1 3.3 2.6 6 5.9 6h18.1c3.2 0 5.9 2.6 5.9 5.9 0 3.2-2.7 5.9-5.9 5.9h-64.8c-3.3 0-6.1 2.5-6.1 5.7-0.1 3.3 2.6 6 5.9 6h36.8c3.2 0 5.8 2.7 5.8 5.9 0 3.3-2.6 5.9-5.8 5.9h-71.4c-3.3 0-6.1 2.6-6.1 5.8-0.1 3.3 2.6 6 5.9 6h212.1c3.2 0 6-2.5 6-5.8 0.1-3.3-2.6-6-5.8-6h-94.3c-3.3 0-5.9-2.6-5.9-5.9 0-3.2 2.6-5.9 5.9-5.9h53.2c3.3 0 5.9-2.7 5.9-6-0.1-3.2-2.9-5.7-6.1-5.7z"/><path class="b" d="m849.7 257.2h18.1c2.9 0 5.3 2 5.8 4.8q0.1-0.6 0.1-1.1c0-3.3-2.7-5.9-5.9-5.9h-18.1c-2.9 0-5.3-2.1-5.8-4.8q-0.1 0.5-0.1 1c-0.1 3.3 2.6 6 5.9 6z"/><path class="b" d="m902 255h-5.8c-3.2 0-5.9 2.6-5.9 5.9q0 0.5 0.2 1.1c0.5-2.8 2.9-4.8 5.7-4.8h5.8c3.2 0 6-2.6 6-5.8q0.1-0.7-0.1-1.3c-0.5 2.8-3 4.9-5.9 4.9z"/><path class="b" d="m939.2 278.5h-53.2c-3.3 0-5.9 2.7-5.9 5.9q0 0.6 0.1 1.1c0.5-2.7 2.9-4.8 5.8-4.8h53.2c3.3 0 5.9-2.7 5.9-6q0-0.4-0.1-0.9c-0.6 2.7-3 4.7-5.8 4.7z"/><path class="b" d="m845.3 285.5q0.1-0.5 0.1-1.1c0-3.2-2.6-5.9-5.8-5.9h-36.8c-2.9 0-5.3-2-5.8-4.7q-0.1 0.5-0.1 0.9c-0.1 3.3 2.6 6 5.9 6h36.8c2.8 0 5.2 2.1 5.7 4.8z"/><path class="b" d="m980.1 302.1h-212.1c-2.9 0-5.3-2-5.8-4.7q-0.1 0.4-0.1 0.9c-0.1 3.3 2.6 6 5.9 6h212.1c3.2 0 6-2.5 6-5.8q0-0.6-0.1-1.2c-0.5 2.7-3 4.8-5.9 4.8z"/><path class="a" d="m922.9 107.5h33.7c3.3 0 5.9-2.6 5.9-5.9 0-3.2-2.6-5.9-5.9-5.9h-33.7c-3.2 0-5.9 2.7-5.9 5.9 0 3.3 2.7 5.9 5.9 5.9z"/><path class="b" d="m956.6 105.3h-33.7c-2.9 0-5.3-2.1-5.8-4.8q-0.1 0.6-0.1 1.1c0 3.3 2.7 5.9 5.9 5.9h33.7c3.3 0 5.9-2.6 5.9-5.9q0-0.5-0.1-1.1c-0.5 2.7-2.9 4.8-5.8 4.8z"/><path class="a" d="m1061.2 154.6h15.2c3.2 0 5.9-2.6 5.9-5.9 0-3.2-2.7-5.9-5.9-5.9h-15.2c-3.3 0-5.9 2.7-5.9 5.9 0 3.3 2.6 5.9 5.9 5.9z"/><path class="b" d="m1076.4 152.4h-15.2c-2.9 0-5.3-2-5.8-4.8q-0.1 0.6-0.1 1.1c0 3.3 2.6 5.9 5.9 5.9h15.2c3.2 0 5.9-2.6 5.9-5.9q0-0.5-0.1-1.1c-0.5 2.8-2.9 4.8-5.8 4.8z"/><path class="a" d="m1048.2 83.9h17.6c3.3 0 5.9-2.6 5.9-5.9 0-3.2-2.6-5.9-5.9-5.9h-17.6c-3.3 0-5.9 2.7-5.9 5.9 0 3.3 2.6 5.9 5.9 5.9z"/><path class="b" d="m1065.8 81.7h-17.6c-2.9 0-5.3-2-5.8-4.8q-0.1 0.6-0.1 1.1c0 3.3 2.6 5.9 5.9 5.9h17.6c3.3 0 5.9-2.6 5.9-5.9q0-0.5-0.1-1.1c-0.5 2.8-2.9 4.8-5.8 4.8z"/><path class="a" d="m951.3 83.9h75c3.3 0 5.9-2.6 5.9-5.9 0-3.2-2.6-5.9-5.9-5.9h-75c-3.3 0-5.9 2.7-5.9 5.9 0 3.3 2.6 5.9 5.9 5.9z"/><path class="b" d="m1026.3 81.7h-75c-2.9 0-5.3-2-5.8-4.8q-0.1 0.6-0.1 1.1c0 3.3 2.6 5.9 5.9 5.9h75c3.3 0 5.9-2.6 5.9-5.9q0-0.5-0.1-1.1c-0.5 2.8-2.9 4.8-5.8 4.8z"/><path class="a" d="m945.5 131.1h51.6c3.3 0 5.9 2.6 5.9 5.9 0 3.2-2.6 5.8-5.9 5.8h-34.6c-3.2 0-6 2.6-6.1 5.8 0 3.3 2.6 6 5.9 6h81.2c3.2 0 6-2.5 6.1-5.7 0-3.4-2.6-6.1-5.9-6.1h-18.1c-3.3 0-5.9-2.6-5.9-5.8 0-3.3 2.6-5.9 5.9-5.9h66.5c3.2 0 6-2.6 6-5.8 0.1-3.3-2.6-6-5.9-6h-57.8c-3.2 0-5.9-2.6-5.9-5.9 0-3.3 2.7-5.9 5.9-5.9h29.7c3.2 0 6-2.5 6.1-5.8 0-3.3-2.6-6-5.9-6h-90.4c-3.2 0-6 2.6-6.1 5.8 0 3.3 2.6 6 5.9 6h14.3c3.3 0 5.9 2.6 5.9 5.9 0 3.3-2.6 5.9-5.9 5.9h-42.7c-3.3 0-5.9 2.7-5.9 6 0.1 3.2 2.9 5.8 6.1 5.8z"/><path class="b" d="m973.7 107.5h14.3c2.9 0 5.3 2.1 5.8 4.8q0.1-0.5 0.1-1.1c0-3.2-2.6-5.9-5.9-5.9h-14.3c-2.8 0-5.2-2-5.7-4.7q-0.1 0.4-0.2 0.9c0 3.3 2.6 6 5.9 6z"/><path class="b" d="m1064.1 105.3h-29.7c-3.2 0-5.9 2.7-5.9 5.9q0 0.6 0.2 1.1c0.5-2.7 2.9-4.8 5.7-4.8h29.7c3.2 0 6-2.5 6.1-5.8q0-0.6-0.2-1.2c-0.5 2.8-3 4.8-5.9 4.8z"/><path class="b" d="m1092.1 128.9h-66.5c-3.3 0-5.9 2.6-5.9 5.9q0 0.5 0.1 1.1c0.5-2.8 2.9-4.8 5.8-4.8h66.5c3.2 0 6-2.6 6-5.8q0-0.7-0.1-1.3c-0.5 2.8-3 4.9-5.9 4.9z"/><path class="b" d="m1002.9 135.9q0.1-0.6 0.1-1.1c0-3.3-2.6-5.9-5.9-5.9h-51.6c-2.9 0-5.4-2.1-5.9-4.9q-0.2 0.6-0.2 1.3c0.1 3.2 2.9 5.8 6.1 5.8h51.6c2.9 0 5.3 2 5.8 4.8z"/><path class="b" d="m1043.5 152.4h-81.2c-2.8 0-5.2-2-5.7-4.7q-0.1 0.4-0.2 0.9c0 3.3 2.6 6 5.9 6h81.2c3.2 0 6-2.5 6.1-5.7q0-0.7-0.1-1.3c-0.6 2.8-3.1 4.8-6 4.8z"/></svg>
