<svg version="1.2" xmlns="http://www.w3.org/2000/svg" viewBox="0 0 126 317" width="126" height="317"><style>.a{fill:#d12138}</style><path class="a" d="m-480.6-485.8q0.4 0.5 0.8 0.9c-1.3-3.3-2.1-6.6-2.1-9.5 0-5 1.2-8.5 3.4-10.4 2.2-1.8 5.5-2.3 10.1-1.4l0.9 0.1 0.3-0.9c2-6.4 7.5-5.9 7.9-5.9 0.3-0.1 5.8-0.5 7.8 5.9l0.2 0.9 1-0.1c4.6-0.9 7.8-0.4 10 1.4 2.3 1.9 3.5 5.4 3.5 10.4 0 9.8-9 23.2-12.9 28.4q1 0.6 1.6 1.4c3.9-5.3 13.4-19.2 13.4-29.8 0-5.6-1.5-9.7-4.2-12-2.6-2.1-6.1-2.8-10.9-2.1-2.6-6.6-8.7-6.6-9.6-6.5-0.9-0.1-7-0.1-9.5 6.5-4.8-0.7-8.4 0-10.9 2.1-2.8 2.3-4.2 6.4-4.2 12 0 2.2 0.4 4.6 1.1 7 0.8 0.3 1.6 0.8 2.3 1.6z"/><path class="a" d="m-502.1-449.3c-3.4-0.6-6.6-1.5-9.2-3-4.3-2.5-6.7-5.3-7.1-8.2-0.5-2.8 0.8-5.9 3.8-9.4l0.6-0.8-0.6-0.6c-4.5-5-1.3-9.5-1.2-9.7l0.1-0.2c0.1-0.2 1.9-3.9 6.6-3.9q1.1 0 2.5 0.3l0.9 0.2 0.3-0.9c1.6-4.4 3.7-7 6.4-7.9 2.8-1 6.4-0.2 10.7 2.3 8.7 5.2 15.8 20.6 18.2 26.1q0.2-0.1 0.3-0.2 0.7-0.6 1.5-0.9c-2.6-6-9.8-21.4-19-26.8-4.8-2.9-9-3.7-12.4-2.5-3.1 1.1-5.5 3.8-7.3 8.3-7.1-1.2-10.1 4.1-10.5 4.9-0.5 0.7-3.7 6 0.8 11.6-3.1 3.7-4.3 7.1-3.8 10.4 0.6 3.6 3.3 6.8 8.2 9.7 2.4 1.4 5.3 2.4 8.5 3q0.6-1 1.7-1.8z"/><path class="a" d="m-402.2-470.6c4.5-5.6 1.3-10.9 0.8-11.6-0.4-0.8-3.4-6.1-10.5-4.9-1.8-4.5-4.2-7.2-7.3-8.3-3.4-1.2-7.6-0.4-12.5 2.5-1.7 1.1-3.4 2.5-5 4.1 0 0.7 0 1.4-0.2 2.1q-0.2 0.9-0.4 1.8c2-2.6 4.3-4.8 6.7-6.2 4.3-2.5 7.9-3.3 10.7-2.3 2.6 0.9 4.7 3.5 6.4 7.9l0.3 0.9 0.9-0.2c6.5-1.6 9 3.4 9.2 3.8 0.1 0.2 3.3 4.7-1.2 9.7l-0.7 0.6 0.7 0.8c3 3.5 4.3 6.6 3.8 9.4-0.5 2.9-2.9 5.7-7.1 8.2-8.9 5.2-26.2 4-31.9 3.4q0.2 1.1 0 2.1c2.3 0.2 6.4 0.6 11 0.6 7.3 0 16.2-0.9 21.9-4.3 4.9-2.9 7.6-6.1 8.2-9.7 0.5-3.3-0.7-6.7-3.8-10.4z"/><path class="a" d="m-439.4-413c1.5 3.7 2.6 7.4 2.6 10.7 0 5-1.2 8.4-3.5 10.3-2.2 1.9-5.4 2.3-10 1.5l-1-0.2-0.2 0.9c-2 6.5-7.5 6-8 6-0.2 0-5.7 0.5-7.7-6l-0.3-0.9-0.9 0.2c-4.6 0.8-7.9 0.4-10.1-1.5-2.2-1.9-3.4-5.3-3.4-10.3 0-9.9 9.1-23.4 12.9-28.6-0.6-0.4-1-1-1.4-1.6-3.7 5-13.6 19.3-13.6 30.2 0 5.6 1.4 9.6 4.2 12 2.5 2.1 6.1 2.8 10.9 2 2.3 6.1 7.6 6.6 9.2 6.6q0.2 0 0.3 0c0.9 0 7 0.1 9.6-6.6 4.8 0.7 8.3 0.1 10.9-2 2.7-2.4 4.2-6.4 4.2-12 0-2.2-0.5-4.5-1.1-6.9q-1.8-1.9-3.6-3.8z"/><path class="a" d="m-480.6-412.3q0.1-0.5 0.2-1c-2.4 3.2-5.1 6-7.9 7.7-4.3 2.5-7.9 3.3-10.7 2.3-2.7-1-4.8-3.6-6.4-7.9l-0.3-0.9-0.9 0.2c-6.6 1.6-9-3.4-9.2-3.8-0.1-0.2-3.3-4.7 1.2-9.7l0.6-0.7-0.6-0.7c-3-3.5-4.3-6.6-3.8-9.4 0.4-2.9 2.8-5.7 7.1-8.2 8.9-5.3 26.3-4 31.9-3.4 0-0.7 0.1-1.4 0.3-2.1-5.8-0.6-23.7-2-33.2 3.7-4.9 2.8-7.6 6.1-8.2 9.7-0.5 3.2 0.7 6.7 3.8 10.4-4.5 5.6-1.3 10.8-0.8 11.6 0.4 0.7 3.4 6 10.5 4.8 1.8 4.5 4.2 7.3 7.3 8.4q1.5 0.5 3.2 0.5 4.1 0 9.2-3c2-1.2 3.8-2.8 5.5-4.6 0.2-1.4 0.7-2.7 1.2-3.9z"/><path class="a" d="m-398.4-436.5c-0.6-3.6-3.3-6.9-8.2-9.7-2.2-1.3-4.9-2.3-7.8-2.9q-0.5 0.2-1 0.4c-0.7 0.3-1.3 0.6-1.9 0.7q-0.6 0.2-1.2 0.3c4.1 0.5 7.9 1.5 10.9 3.3 4.2 2.5 6.6 5.3 7.1 8.2 0.5 2.8-0.8 5.9-3.8 9.4l-0.7 0.7 0.7 0.7c4.5 5 1.3 9.5 1.1 9.9-0.1 0.2-2.6 5.2-9.1 3.6l-0.9-0.2-0.3 0.9c-1.7 4.3-3.8 6.9-6.4 7.9-2.8 1-6.4 0.2-10.7-2.3-8.6-5.1-15.6-20.1-18.1-25.9q-0.9 0.7-1.8 1c2.5 6.1 9.7 21.3 18.8 26.7q5.2 3 9.3 3 1.7 0 3.2-0.5c3.1-1.1 5.5-3.9 7.3-8.4 7.1 1.2 10.1-4.1 10.5-4.8 0.5-0.8 3.7-6-0.8-11.6 3.1-3.7 4.3-7.2 3.8-10.4z"/><path fill-rule="evenodd" class="a" d="m-459.5-427.3c-11.6 0-21-9.5-21-21.1 0-11.6 9.4-21 21-21 11.6 0 21.1 9.4 21.1 21 0 11.6-9.5 21.1-21.1 21.1zm0-40c-10.4 0-18.9 8.5-18.9 18.9 0 10.5 8.5 19 18.9 19 10.5 0 19-8.5 19-19 0-10.4-8.5-18.9-19-18.9z"/><path class="a" d="m-457.5-468.9h-2.1v-24.9h2.1z"/><path class="a" d="m-465.2-467.5l-5.1-17.3 2-0.6 5.1 17.3z"/><path class="a" d="m-452.1-467.5l-2-0.6 5-17.3 2 0.6z"/><path class="a" d="m-455.2-494.8c0 1.8-1.5 3.3-3.3 3.3-1.8 0-3.3-1.5-3.3-3.3 0-1.8 1.5-3.3 3.3-3.3 1.8 0 3.3 1.5 3.3 3.3z"/><path class="a" d="m-455.9-461c0 1.8-1.5 3.2-3.3 3.2-1.8 0-3.3-1.4-3.3-3.2 0-1.9 1.5-3.3 3.3-3.3 1.8 0 3.3 1.4 3.3 3.3z"/><path class="a" d="m-455.7-448.4c0 1.8-1.4 3.3-3.3 3.3-1.8 0-3.2-1.5-3.2-3.3 0-1.8 1.4-3.2 3.2-3.2 1.9 0 3.3 1.4 3.3 3.2z"/><path class="a" d="m-455.9-434.8c0 1.8-1.5 3.2-3.3 3.2-1.8 0-3.3-1.4-3.3-3.2 0-1.9 1.5-3.3 3.3-3.3 1.8 0 3.3 1.4 3.3 3.3z"/><path class="a" d="m-447.6-454.9c-1.3 1.3-3.4 1.3-4.7 0-1.3-1.3-1.3-3.3 0-4.6 1.3-1.3 3.4-1.3 4.7 0 1.2 1.3 1.2 3.3 0 4.6z"/><path class="a" d="m-466.2-436.4c-1.2 1.3-3.3 1.3-4.6 0-1.3-1.2-1.3-3.3 0-4.6 1.3-1.3 3.4-1.3 4.6 0 1.3 1.3 1.3 3.4 0 4.6z"/><path class="a" d="m-446.1-444.7c-1.8 0-3.3-1.4-3.3-3.2 0-1.9 1.5-3.3 3.3-3.3 1.8 0 3.3 1.4 3.3 3.3 0 1.8-1.5 3.2-3.3 3.2z"/><path class="a" d="m-472.3-444.7c-1.8 0-3.3-1.4-3.3-3.2 0-1.9 1.5-3.3 3.3-3.3 1.8 0 3.3 1.4 3.3 3.3 0 1.8-1.5 3.2-3.3 3.2z"/><path class="a" d="m-452.3-436.4c-1.3-1.2-1.3-3.3 0-4.6 1.3-1.3 3.4-1.3 4.7 0 1.2 1.3 1.2 3.4 0 4.6-1.3 1.3-3.4 1.3-4.7 0z"/><path class="a" d="m-470.8-454.9c-1.3-1.3-1.3-3.3 0-4.6 1.3-1.3 3.4-1.3 4.6 0 1.3 1.3 1.3 3.3 0 4.6-1.2 1.3-3.3 1.3-4.6 0z"/><path class="a" d="m-466.8-487.3c0 1.8-1.4 3.3-3.2 3.3-1.8 0-3.3-1.5-3.3-3.3 0-1.8 1.5-3.3 3.3-3.3 1.8 0 3.2 1.5 3.2 3.3z"/><path class="a" d="m-444-487.3c0 1.8-1.5 3.3-3.3 3.3-1.8 0-3.3-1.5-3.3-3.3 0-1.8 1.5-3.3 3.3-3.3 1.8 0 3.3 1.5 3.3 3.3z"/><path class="a" d="m-458.2-428.2h-2.1v24.9h2.1z"/><path class="a" d="m-466-429.6l-5 17.3 2 0.6 5.1-17.3z"/><path class="a" d="m-452.8-429.6l-2 0.6 5 17.3 2-0.6z"/><path class="a" d="m-455.9-402.3c0-1.8-1.5-3.2-3.3-3.2-1.8 0-3.3 1.4-3.3 3.2 0 1.9 1.5 3.3 3.3 3.3 1.8 0 3.3-1.4 3.3-3.3z"/><path class="a" d="m-467.5-409.8c0-1.8-1.4-3.2-3.2-3.2-1.9 0-3.3 1.4-3.3 3.2 0 1.9 1.4 3.3 3.3 3.3 1.8 0 3.2-1.4 3.2-3.3z"/><path class="a" d="m-444.7-409.8c0-1.8-1.5-3.2-3.3-3.2-1.8 0-3.3 1.4-3.3 3.2 0 1.9 1.5 3.3 3.3 3.3 1.8 0 3.3-1.4 3.3-3.3z"/><path class="a" d="m-440.7-456.3l-1-1.8 22.2-11.4 0.9 1.8z"/><path class="a" d="m-445.5-462.6l13.1-12.3 1.4 1.5-13.1 12.4z"/><path class="a" d="m-439.5-450.9l-0.4-2 17.7-3.4 0.4 2z"/><path class="a" d="m-416.6-466.1c-1.7 0.8-3.6 0.2-4.5-1.5-0.8-1.6-0.2-3.5 1.5-4.4 1.6-0.8 3.5-0.2 4.4 1.4 0.8 1.7 0.2 3.6-1.4 4.5z"/><path class="a" d="m-428.6-473c-1.6 0.9-3.6 0.2-4.4-1.4-0.8-1.6-0.2-3.6 1.4-4.4 1.6-0.8 3.6-0.2 4.4 1.4 0.9 1.6 0.2 3.6-1.4 4.4z"/><path class="a" d="m-418.2-452.7c-1.6 0.8-3.6 0.2-4.4-1.5-0.8-1.6-0.2-3.5 1.4-4.4 1.6-0.8 3.6-0.2 4.4 1.4 0.9 1.7 0.2 3.6-1.4 4.5z"/><path class="a" d="m-477.2-438.3l-1-1.9-22.2 11.4 1 1.9z"/><path class="a" d="m-479.6-445.9l-17.6 3.5 0.4 2 17.6-3.4z"/><path class="a" d="m-473.5-434.2l-1.5-1.5-13.1 12.4 1.5 1.5z"/><path class="a" d="m-499.3-424.5c1.6-0.8 2.3-2.8 1.4-4.4-0.8-1.6-2.8-2.2-4.4-1.4-1.6 0.8-2.2 2.8-1.4 4.4 0.8 1.6 2.8 2.3 4.4 1.4z"/><path class="a" d="m-497.9-438.2c1.6-0.8 2.3-2.8 1.4-4.4-0.8-1.6-2.8-2.2-4.4-1.4-1.6 0.8-2.2 2.8-1.4 4.4 0.8 1.6 2.8 2.3 4.4 1.4z"/><path class="a" d="m-487.5-417.9c1.6-0.9 2.3-2.8 1.4-4.5-0.8-1.6-2.8-2.2-4.4-1.4-1.6 0.9-2.2 2.8-1.4 4.4 0.8 1.7 2.8 2.3 4.4 1.5z"/><path class="a" d="m-477.9-457.9l1.1-1.8-21.2-13-1.1 1.8z"/><path class="a" d="m-472.6-463.8l-12.1-13.3-1.6 1.4 12.1 13.3z"/><path class="a" d="m-479.5-452.6l0.6-2-17.4-4.8-0.5 2z"/><path class="a" d="m-501.1-469.6c1.5 1 3.5 0.5 4.5-1 0.9-1.6 0.4-3.6-1.1-4.6-1.6-0.9-3.6-0.4-4.5 1.1-1 1.6-0.5 3.6 1.1 4.5z"/><path class="a" d="m-488.7-475.5c1.5 1 3.5 0.5 4.5-1.1 0.9-1.5 0.4-3.5-1.1-4.5-1.5-0.9-3.6-0.4-4.5 1.1-1 1.6-0.5 3.6 1.1 4.5z"/><path class="a" d="m-500.6-456.1c1.6 1 3.6 0.5 4.5-1.1 1-1.5 0.5-3.5-1.1-4.5-1.5-0.9-3.5-0.4-4.5 1.1-0.9 1.6-0.4 3.6 1.1 4.5z"/><path class="a" d="m-442.8-437.3l1.1-1.8 21.3 13-1.1 1.8z"/><path class="a" d="m-439.9-444.6l17.4 4.7-0.6 2-17.4-4.7z"/><path class="a" d="m-446.8-433.4l1.6-1.4 12.1 13.3-1.6 1.4z"/><path class="a" d="m-421.8-421.8c-1.6-1-2.1-3-1.1-4.6 0.9-1.5 2.9-2 4.5-1 1.5 0.9 2 2.9 1.1 4.5-1 1.5-3 2-4.5 1.1z"/><path class="a" d="m-422.2-435.6c-1.6-0.9-2.1-3-1.1-4.5 0.9-1.5 3-2 4.5-1.1 1.6 1 2 3 1.1 4.5-1 1.6-3 2.1-4.5 1.1z"/><path class="a" d="m-434.1-416.2c-1.5-0.9-2-3-1.1-4.5 1-1.6 3-2 4.5-1.1 1.6 0.9 2.1 3 1.1 4.5-0.9 1.6-2.9 2-4.5 1.1z"/><path fill-rule="evenodd" class="a" d="m-284.7-427.4c-11.6 0-21-9.4-21-21 0-11.6 9.4-21.1 21-21.1 11.6 0 21.1 9.5 21.1 21.1 0 11.6-9.5 21-21.1 21zm0-40c-10.4 0-18.9 8.5-18.9 19 0 10.4 8.5 18.9 18.9 18.9 10.5 0 19-8.5 19-18.9 0-10.5-8.5-19-19-19z"/><path fill-rule="evenodd" class="a" d="m-268.8-448.4c0 8.8-7.1 15.9-15.9 15.9-8.8 0-15.9-7.1-15.9-15.9 0-8.8 7.1-15.9 15.9-15.9 8.8 0 15.9 7.1 15.9 15.9zm-2.1 0c0-7.6-6.2-13.8-13.8-13.8-7.6 0-13.8 6.2-13.8 13.8 0 7.6 6.2 13.8 13.8 13.8 7.6 0 13.8-6.2 13.8-13.8z"/><path class="a" d="m-273.6-511.9c-1.8-1.1-4-1.1-6 0l-0.1 0.1c-2.2 1.4-3.6 5.3-4.4 8.6-1-3.3-2.9-7.4-5.9-8.8-2.7-0.8-5-0.5-6.7 0.8-2.6 2-3.9 6.3-3.9 13.1 0 11.4 7 26.7 8.9 30.8q0.2-0.1 0.5-0.1 0.7-0.4 1.4-0.7c-1.8-3.8-8.7-19.1-8.7-30 0-6 1-9.9 3.1-11.4 1.2-0.9 2.7-1.1 4.7-0.5 3.3 1.5 5.2 9.2 5.7 12l1.1 7.1 0.9-7.1c0.6-3.9 2.2-10.6 4.4-12.1 0.8-0.4 2.4-0.9 3.9 0 1.5 0.8 3.8 3.5 3.8 12 0 10.8-6.8 25.9-8.7 29.9q1.1 0.2 2.1 0.6c2.1-4.5 8.7-19.4 8.7-30.5 0-9-2.6-12.5-4.8-13.8z"/><path class="a" d="m-284.5-478.8c-0.6 0-1-0.5-1-1.1v-20.6c0-0.6 0.4-1.1 1-1.1 0.6 0 1.1 0.5 1.1 1.1v20.6c0 0.6-0.5 1.1-1.1 1.1z"/><path class="a" d="m-279.7-428.9c1.6 3.4 8.8 19.1 8.8 30.2 0 6-1 9.9-3.1 11.4-1.1 0.9-2.7 1-4.7 0.5-3.3-1.5-5.2-9.2-5.6-12l-1.1-7.1-1 7.1c-0.5 3.9-2.2 10.6-4.4 12-0.8 0.5-2.4 1-3.9 0.1-1.4-0.8-3.8-3.5-3.8-12 0-11 7-26.4 8.8-30.1q-0.2 0-0.5-0.1-0.8-0.2-1.5-0.6c-1.9 4-8.9 19.4-8.9 30.8 0 9 2.6 12.5 4.8 13.8 0.9 0.5 1.9 0.8 2.9 0.8 1 0 2.1-0.3 3.1-0.8l0.1-0.1c2.2-1.4 3.6-5.3 4.4-8.6 1.1 3.3 2.9 7.4 5.9 8.8 2.7 0.7 5 0.5 6.7-0.8 2.6-2 3.9-6.3 3.9-13.1 0-11.4-7-26.8-8.9-30.8q-1 0.3-2 0.6z"/><path class="a" d="m-284.9-395.2c-0.6 0-1-0.5-1-1.1v-20.6c0-0.6 0.4-1.1 1-1.1 0.6 0 1.1 0.5 1.1 1.1v20.6c0 0.6-0.5 1.1-1.1 1.1z"/><path class="a" d="m-221.2-443.3l-0.1-0.1c-1.4-2.2-5.3-3.6-8.6-4.4 3.3-1.1 7.4-2.9 8.8-5.9 0.8-2.7 0.5-5-0.8-6.7-2-2.6-6.3-3.9-13.1-3.9-11.6 0-27.3 7.2-31 9q0.4 0.6 0.7 1.4c0 0.1 0.1 0.3 0.1 0.5 3.4-1.6 19.1-8.8 30.2-8.8 6.1 0 9.9 1 11.4 3.1 0.9 1.1 1.1 2.7 0.5 4.7-1.5 3.3-9.2 5.2-12 5.6l-7.1 1.2 7.2 0.9c3.8 0.5 10.5 2.2 12 4.4 0.4 0.8 0.9 2.4 0 3.9-0.8 1.4-3.5 3.8-12 3.8-11 0-26.5-7.1-30.1-8.8q0 0.2 0 0.3c-0.2 0.6-0.4 1.2-0.6 1.8 4.3 2 19.4 8.8 30.7 8.8 9.1 0 12.5-2.6 13.8-4.8 1.1-1.8 1.1-4 0-6z"/><path class="a" d="m-232.6-447.1h-20.6c-0.6 0-1.1-0.5-1.1-1.1 0-0.6 0.5-1 1.1-1h20.6c0.6 0 1.1 0.4 1.1 1 0 0.6-0.5 1.1-1.1 1.1z"/><path class="a" d="m-304.1-443.5c-3.4 1.6-19.1 8.9-30.3 8.9-6 0-9.9-1-11.4-3.1-0.9-1.1-1-2.7-0.5-4.7 1.6-3.3 9.2-5.2 12-5.7l7.1-1.1-7.1-0.9c-3.9-0.6-10.6-2.2-12-4.4-0.5-0.8-1-2.4-0.1-3.9 0.9-1.4 3.5-3.8 12-3.8 11.2 0 26.9 7.2 30.2 8.8q0.3-1 0.9-1.9c-3.4-1.6-19.3-9-31.1-9-9 0-12.5 2.6-13.8 4.8-1.1 1.8-1.1 4 0 6l0.1 0.1c1.4 2.2 5.3 3.6 8.6 4.4-3.3 1-7.4 2.9-8.7 5.9q-1.2 4.1 0.7 6.7c2 2.6 6.3 3.9 13.1 3.9 11.5 0 27-7.1 30.9-8.9q-0.3-1-0.6-2.1z"/><path class="a" d="m-316.2-447.6h-20.6c-0.6 0-1.1-0.4-1.1-1 0-0.6 0.5-1.1 1.1-1.1h20.6c0.6 0 1.1 0.5 1.1 1.1 0 0.6-0.5 1-1.1 1z"/><path class="a" d="m-231.9-485.5c-0.5-2-2.1-3.5-4.3-4.2h-0.1c-2.5-0.6-6.3 1.2-9.2 3 1.6-3.1 3.2-7.3 2-10.4-1.4-2.5-3.1-3.9-5.3-4.2-3.2-0.5-7.2 1.7-12 6.5-7.9 7.9-13.7 23.1-15.4 27.7q1 0.5 1.9 1c1.5-4.1 7.4-19.6 15-27.2 4.3-4.3 7.7-6.3 10.2-5.9 1.5 0.2 2.7 1.2 3.7 3 1.3 3.4-2.8 10.2-4.4 12.5l-4.3 5.8 5.7-4.4c3.1-2.4 9-5.9 11.6-5.4 0.9 0.3 2.4 1 2.8 2.8 0.4 1.6 0.2 5.1-5.8 11.1-7.5 7.6-22.8 13.4-27.1 15q0.4 0.9 0.6 2c4.3-1.5 20-7.5 28-15.5 6.4-6.4 7-10.7 6.4-13.2z"/><path class="a" d="m-262.3-469.5c-0.3 0-0.5-0.1-0.7-0.3-0.4-0.4-0.4-1 0-1.4l14.6-14.7c0.4-0.4 1-0.4 1.5 0 0.4 0.5 0.4 1.1 0 1.5l-14.7 14.6q-0.3 0.3-0.7 0.3z"/><path class="a" d="m-294.5-430.4c-0.2-0.1-0.4-0.2-0.6-0.3-1.5 4.2-7.3 19.6-15 27.2-4.2 4.3-7.7 6.3-10.2 5.9-1.5-0.2-2.7-1.2-3.7-3-1.3-3.5 2.8-10.2 4.5-12.5l4.2-5.8-5.7 4.4c-3.1 2.3-9 5.9-11.6 5.4-0.9-0.3-2.4-1-2.8-2.8-0.4-1.6-0.2-5.1 5.8-11.1 7.9-7.9 24-13.9 27.6-15.1q-0.6-0.9-1-1.9c-4.2 1.5-20 7.4-28.1 15.5-6.4 6.4-7 10.7-6.3 13.1 0.5 2.1 2 3.6 4.2 4.3h0.1c2.6 0.6 6.4-1.2 9.3-3-1.7 3.1-3.2 7.3-2.1 10.4q2.1 3.7 5.3 4.2 0.4 0 0.9 0c3.1 0 6.7-2.1 11.1-6.5 8-8 13.8-23.4 15.4-27.9q-0.6-0.2-1.3-0.5z"/><path class="a" d="m-321.7-410.6q-0.4 0-0.7-0.3c-0.4-0.5-0.4-1.1 0-1.5l14.6-14.6c0.4-0.5 1.1-0.5 1.5 0 0.4 0.4 0.4 1 0 1.4l-14.6 14.7c-0.3 0.2-0.5 0.3-0.8 0.3z"/><path class="a" d="m-238.3-424.5c-7.9-7.9-23.2-13.8-27.8-15.4q-0.2 0.6-0.5 1.1l-0.5 0.8c3.9 1.4 19.6 7.3 27.3 15 4.3 4.2 6.3 7.7 5.9 10.2-0.2 1.5-1.2 2.7-3 3.7-3.4 1.3-10.2-2.8-12.5-4.5l-5.8-4.2 4.4 5.7c2.4 3.1 5.9 9 5.4 11.6-0.3 0.9-1 2.4-2.8 2.8-1.5 0.4-5.1 0.2-11.1-5.8-7.8-7.8-13.8-23.9-15.1-27.6q-0.9 0.6-1.9 1c1.5 4.3 7.5 20 15.5 28.1 5.2 5.2 9 6.5 11.6 6.5q0.9 0 1.6-0.1c2-0.6 3.6-2.1 4.2-4.3v-0.1c0.6-2.6-1.2-6.4-3-9.3 3.1 1.7 7.3 3.3 10.4 2.1 2.5-1.4 3.9-3.2 4.2-5.3 0.5-3.2-1.7-7.2-6.5-12z"/><path class="a" d="m-248-410.4q-0.4 0-0.7-0.3l-14.6-14.6c-0.4-0.4-0.4-1 0-1.5 0.4-0.4 1-0.4 1.5 0l14.6 14.7c0.4 0.4 0.4 1 0 1.4-0.2 0.2-0.5 0.3-0.8 0.3z"/><path class="a" d="m-302.3-458.4q0.1-0.2 0.2-0.3c-3.6-1.3-19.7-7.3-27.5-15.1-4.3-4.3-6.3-7.7-5.9-10.2 0.2-1.5 1.2-2.7 3-3.7q0.7-0.3 1.5-0.3c3.7 0 9 3.3 11 4.8l5.8 4.2-4.4-5.7c-2.3-3.1-5.9-9-5.4-11.6 0.3-0.9 1-2.4 2.8-2.8 1.6-0.4 5.1-0.2 11.1 5.8 7.8 7.7 13.7 23.5 15.1 27.4q0.8-0.6 1.8-1c-1.5-4.4-7.4-19.9-15.4-27.9-6.4-6.4-10.7-7-13.1-6.4-2.1 0.6-3.6 2.1-4.3 4.3v0.1c-0.6 2.5 1.3 6.3 3 9.3-3.1-1.7-7.3-3.3-10.4-2.1q-3.7 2.1-4.2 5.3c-0.4 3.2 1.7 7.2 6.5 12 8.1 8.1 23.9 14 28.1 15.5q0.2-0.9 0.7-1.6z"/><path class="a" d="m-306.8-469.7c-0.3 0-0.5-0.2-0.7-0.4l-14.6-14.6c-0.5-0.4-0.5-1 0-1.4 0.4-0.5 1-0.5 1.4 0l14.7 14.6c0.4 0.4 0.4 1 0 1.4q-0.4 0.4-0.8 0.4z"/><path class="a" d="m-292-496.9c3.4 0 3.4-5.2 0-5.2-3.3 0-3.3 5.2 0 5.2z"/><path class="a" d="m-276.7-497.1c3.4 0 3.4-5.3 0-5.3-3.4 0-3.4 5.3 0 5.3z"/><path class="a" d="m-292.8-391.5c3.4 0 3.4-5.3 0-5.3-3.3 0-3.3 5.3 0 5.3z"/><path class="a" d="m-276.5-391.1c3.4 0 3.4-5.3 0-5.3-3.4 0-3.4 5.3 0 5.3z"/><path class="a" d="m-231.9-451.5c3.4 0 3.4-5.2 0-5.2-3.3 0-3.4 5.2 0 5.2z"/><path class="a" d="m-231.6-436.2c3.4 0 3.4-5.2 0-5.2-3.4 0-3.4 5.2 0 5.2z"/><path class="a" d="m-337.2-452.3c3.3 0 3.4-5.2 0-5.2-3.4 0-3.4 5.2 0 5.2z"/><path class="a" d="m-337.6-436c3.3 0 3.4-5.2 0-5.2-3.4 0-3.4 5.2 0 5.2z"/><path class="a" d="m-252.5-486.6c3.4 0 3.4-5.3 0-5.3-3.4 0-3.4 5.3 0 5.3z"/><path class="a" d="m-241.5-476c3.4 0 3.4-5.2 0-5.2-3.4 0-3.4 5.2 0 5.2z"/><path class="a" d="m-327.6-412.7c3.4 0 3.4-5.2 0-5.2-3.3 0-3.4 5.2 0 5.2z"/><path class="a" d="m-316.3-400.9c3.3 0 3.3-5.2 0-5.2-3.4 0-3.4 5.2 0 5.2z"/><path class="a" d="m-242.1-412c3.3 0 3.3-5.3 0-5.3-3.4 0-3.4 5.3 0 5.3z"/><path class="a" d="m-252.7-401c3.3 0 3.3-5.3 0-5.3-3.4 0-3.4 5.3 0 5.3z"/><path class="a" d="m-316.1-487.1c3.4 0 3.4-5.2 0-5.2-3.3 0-3.3 5.2 0 5.2z"/><path class="a" d="m-327.9-475.9c3.4 0 3.4-5.2 0-5.2-3.3 0-3.3 5.2 0 5.2z"/><path fill-rule="evenodd" class="a" d="m-109.9-427.9c-11.6 0-21.1-9.5-21.1-21.1 0-11.6 9.5-21 21.1-21 11.6 0 21 9.4 21 21 0 11.6-9.4 21.1-21 21.1zm0-40c-10.5 0-19 8.5-19 18.9 0 10.5 8.5 19 19 19 10.4 0 18.9-8.5 18.9-19 0-10.4-8.5-18.9-18.9-18.9z"/><path fill-rule="evenodd" class="a" d="m-109.9-383.9c-9.9 0-17.9-8-17.9-17.9 0-1.2 0.1-2.9 0.3-4.8-1.2 1.5-2.2 2.8-3.1 3.6-3.4 3.4-7.9 5.3-12.6 5.3-4.8 0-9.3-1.9-12.7-5.3-7-6.9-7-18.3 0-25.3 0.8-0.8 2.1-1.9 3.6-3.1-1.9 0.2-3.5 0.3-4.8 0.3-9.8 0-17.9-8-17.9-17.9 0-9.8 8.1-17.9 17.9-17.9 1.3 0 2.9 0.2 4.8 0.4-1.5-1.2-2.8-2.3-3.6-3.1-7-7-7-18.4 0-25.4 3.4-3.3 7.9-5.2 12.7-5.2 4.7 0 9.2 1.9 12.6 5.2 0.9 0.9 1.9 2.1 3.1 3.7-0.2-2-0.3-3.6-0.3-4.8 0-9.9 8-17.9 17.9-17.9 9.9 0 17.9 8 17.9 17.9 0 1.2-0.1 2.8-0.4 4.8 1.2-1.6 2.3-2.8 3.2-3.7 3.3-3.3 7.8-5.2 12.6-5.2 4.8 0 9.3 1.9 12.7 5.2 7 7 7 18.4 0 25.4-0.9 0.8-2.1 1.9-3.6 3.1 1.9-0.2 3.5-0.4 4.7-0.4 9.9 0 17.9 8.1 17.9 17.9 0 9.9-8 17.9-17.9 17.9-1.2 0-2.8-0.1-4.7-0.3 1.5 1.2 2.7 2.3 3.6 3.1 7 7 7 18.4 0 25.3-3.4 3.4-7.9 5.3-12.7 5.3-4.8 0-9.3-1.9-12.6-5.3-0.9-0.8-2-2.1-3.2-3.6 0.3 1.9 0.4 3.6 0.4 4.8 0 9.9-8 17.9-17.9 17.9zm-14.2-30.8l-0.7 4.4c-0.6 3.6-0.9 6.6-0.9 8.5 0 8.7 7.1 15.8 15.8 15.8 8.7 0 15.8-7.1 15.8-15.8 0-1.9-0.3-4.9-0.9-8.5l-0.7-4.4 2.6 3.6c2.1 3 4 5.3 5.4 6.7 2.9 2.9 6.9 4.6 11.1 4.6 4.2 0 8.2-1.7 11.2-4.6 6.2-6.2 6.2-16.2 0-22.4-1.3-1.3-3.7-3.2-6.7-5.4l-3.5-2.6 4.3 0.7c3.6 0.6 6.7 0.9 8.5 0.9 8.7 0 15.8-7 15.8-15.8 0-8.7-7.1-15.8-15.8-15.8-1.8 0-4.9 0.4-8.5 0.9l-4.3 0.7 3.5-2.5c3-2.2 5.4-4.1 6.7-5.4 6.2-6.2 6.2-16.2 0-22.4-3-3-7-4.6-11.2-4.6-4.2 0-8.2 1.6-11.1 4.6-1.4 1.4-3.3 3.7-5.4 6.7l-2.6 3.6 0.7-4.4c0.6-3.6 0.9-6.6 0.9-8.5 0-8.7-7.1-15.8-15.8-15.8-8.7 0-15.8 7.1-15.8 15.8 0 1.9 0.3 4.9 0.9 8.5l0.7 4.4-2.6-3.6c-2.1-3-4-5.3-5.4-6.7-3-3-6.9-4.6-11.1-4.6-4.3 0-8.2 1.6-11.2 4.6-6.2 6.2-6.2 16.2 0 22.4 1.3 1.3 3.7 3.2 6.6 5.4l3.6 2.5-4.3-0.7c-3.7-0.5-6.7-0.9-8.6-0.9-8.7 0-15.8 7.1-15.8 15.8 0 8.8 7.1 15.8 15.8 15.8 1.9 0 4.9-0.3 8.6-0.9l4.3-0.7-3.6 2.6c-2.9 2.2-5.3 4.1-6.6 5.4-6.2 6.2-6.2 16.2 0 22.4 3 2.9 6.9 4.6 11.2 4.6 4.2 0 8.1-1.7 11.1-4.6 1.4-1.4 3.3-3.7 5.4-6.7z"/><path class="a" d="m-115.1-468.4c4-1 8-0.7 11.8 0.5 0.5-1.7 0.8-3.7 0.8-5.7 0-6.9-3.3-12.4-7.4-12.4-4.1 0-7.4 5.5-7.4 12.4 0 2 0.3 4 0.8 5.7q0.7-0.3 1.4-0.5z"/><path class="a" d="m-106.1-429.7c-3.7 0.6-7 0.4-10.2-0.8-0.7 1.9-1 4-1 6.2 0 6.9 3.3 12.4 7.4 12.4 4.1 0 7.4-5.5 7.4-12.4 0-2.2-0.3-4.2-0.9-6q-1.3 0.4-2.7 0.6z"/><path class="a" d="m-85.2-456.4c-1.9 0-3.6 0.3-5.2 0.7q0.4 1.1 0.7 2.3c0.8 3.9 0.4 7.7-0.9 11.1 1.6 0.5 3.4 0.8 5.4 0.8 6.8 0 12.3-3.4 12.3-7.5 0-4.1-5.5-7.4-12.3-7.4z"/><path class="a" d="m-129.1-446.8c-0.4-3-0.1-5.9 0.8-8.5-1.9-0.7-4-1.1-6.3-1.1-6.8 0-12.4 3.3-12.4 7.4 0 4.1 5.6 7.5 12.4 7.5 2.3 0 4.5-0.4 6.3-1.1q-0.5-1.9-0.8-4.2z"/><path class="a" d="m-83.7-475.2c-2.9-2.9-9.2-1.3-14 3.5-1.5 1.5-2.6 3.1-3.4 4.6 4.1 1.9 7.6 5 9.7 9.1 1.4-0.8 2.9-1.8 4.2-3.2 4.8-4.8 6.4-11 3.5-14z"/><path class="a" d="m-121.2-432.9c-3.2-2.2-5.1-4.6-6.3-7.5-1.8 0.8-3.5 2-5.1 3.6-4.9 4.9-6.4 11.1-3.5 14 2.9 2.9 9.2 1.4 14-3.4 1.6-1.6 2.8-3.4 3.6-5.2q-1.4-0.6-2.7-1.5z"/><path class="a" d="m-87.2-436.8c-1.4-1.3-2.9-2.4-4.4-3.2-2.1 3.9-5.5 7.1-9.6 8.9 0.8 1.7 2 3.3 3.5 4.9 4.8 4.8 11.1 6.3 14 3.4 2.9-2.9 1.3-9.1-3.5-14z"/><path class="a" d="m-118.4-466.5c-0.9-1.7-2.1-3.5-3.7-5.2-4.8-4.8-11.1-6.4-14-3.5-2.9 3-1.4 9.2 3.5 14 1.6 1.7 3.4 2.9 5.1 3.7 1.9-3.9 5.1-7.1 9.1-9z"/><path fill-rule="evenodd" class="a" d="m106.8-432.9c-3.7 0.1-8.8-0.4-13.7-1.2 5.3 4.3 11.3 9.5 14.5 13.7 6.9 8.7-6.2 25.5-7 34.4-7.9-4.2-29.1-2.3-32.7-12.8-1.4-3.9-2.3-9.4-3-14.9-0.7 5.5-1.7 11-3 14.9-3.6 10.5-24.9 8.6-32.8 12.8-0.8-8.9-13.9-25.7-7-34.4 3.3-4.2 9.2-9.4 14.6-13.7-5 0.8-10 1.3-13.8 1.2-11-0.5-15.3-21.4-21.5-27.8 8.3-3.3 20.7-20.6 31-16.5 4.3 1.7 10 5.2 15.1 8.7-2.3-5.7-4.5-12-5.3-16.6-1.8-10.9 17.7-19.4 22.7-26.8 4.9 7.4 24.5 15.9 22.6 26.8-0.8 4.6-3 10.9-5.3 16.6 5.1-3.5 10.8-7 15.1-8.7 10.3-4.1 22.7 13.2 31 16.5-6.2 6.4-10.4 27.3-21.5 27.8zm-6.9-27.7c-3.5 0-5.1 2.8-5 5.5l-27.1 5.6 9.2-9.8q0.3 0.1 0.7 0.1c3.3 0 3.3-5.3 0-5.3-2.3 0-3 2.3-2.3 3.9l-9.6 10.1v-26.7c5.6-1.1 5.2-10.4-1.1-10.4-6.4 0-6.8 9.4-1 10.4v26.5l-8.5-10.1c0.7-1.5 0-3.9-2.3-3.9-3.3 0-3.3 5.3 0 5.3q0.4 0 0.6-0.1l8.5 10-28.7-5.6c0.2-2.8-1.4-5.8-5-5.8-6.8 0-6.8 10.5 0 10.5 2.2 0 3.7-1.2 4.4-2.7l28.1 5.5-12.2 4.4c-0.4-0.5-1-0.8-1.9-0.8-3.4 0-3.4 5.3 0 5.3 1.6 0 2.4-1.2 2.5-2.4l12.9-4.7-14.7 22.8c-0.7-0.3-1.5-0.5-2.5-0.5-6.7 0-6.7 10.5 0 10.5 4.9 0 6.3-5.5 4.1-8.6l14.7-22.7 0.1 13c-2.3 0.9-2 5 1 5 3 0 3.3-4 1.1-5l-0.1-12.9 15.5 24.9c-2.9 2.8-1.7 9.1 3.5 9.1 6.8 0 6.8-10.5 0-10.5-0.6 0-1.2 0.1-1.7 0.3l-15.7-25.1 14.6 6.4c0 1.3 0.8 2.6 2.5 2.6 3.4 0 3.4-5.3 0-5.3-0.8 0-1.4 0.3-1.8 0.8l-14.6-6.5 27.3-5.5c0.7 1.6 2.2 2.9 4.5 2.9 6.8 0 6.8-10.5 0-10.5z"/><path class="a" d="m190.5-470.6c-2-7.7 0-16.3 6.1-22.4 5.9-5.9 14.1-8 21.7-6.3q0.3-1 1-1.9c-8.4-2.1-17.6 0.1-24.2 6.7-6.8 6.8-9 16.6-6.4 25.3q0.8-0.9 1.8-1.4z"/><path class="a" d="m218.9-400.8q-2.8 0.7-5.8 0.7c-6.2 0-12.1-2.4-16.5-6.8-5.7-5.7-7.9-13.7-6.4-21.1q-1.1-0.4-1.9-1.2c-1.9 8.3 0.3 17.3 6.8 23.8 4.8 4.8 11.2 7.4 18 7.4 2.3 0 4.6-0.3 6.8-0.9q-0.7-0.8-1-1.9z"/><path class="a" d="m290.7-430.2q-0.9 0.7-1.9 1c0.5 1.9 0.7 3.8 0.7 5.8 0 6.2-2.4 12.1-6.8 16.5-4.4 4.4-10.3 6.8-16.5 6.8-1.9 0-3.8-0.2-5.6-0.7q-0.6 1.1-1.5 1.8c2.2 0.7 4.6 1 7.1 1 6.8 0 13.2-2.6 18-7.4 4.8-4.8 7.4-11.2 7.4-18 0-2.4-0.3-4.7-0.9-6.8z"/><path class="a" d="m282.7-493c4.4 4.4 6.8 10.3 6.8 16.5 0 1.9-0.2 3.8-0.7 5.6q1.1 0.2 2 0.7c0.6-2 0.8-4.1 0.8-6.3 0-6.8-2.6-13.2-7.4-18-6.6-6.6-15.9-8.8-24.4-6.6q0.6 0.9 0.8 1.9c7.7-1.8 16.1 0.2 22.1 6.2z"/><path fill-rule="evenodd" class="a" d="m224.4-419.7c-3.8 0-7.7-1.5-10.6-4.4-2.8-2.9-4.4-6.6-4.4-10.7 0-4 1.6-7.8 4.4-10.6q1.4-1.4 3.5-2.7c0.6-0.5 1-1.1 1-1.9 0-0.7-0.4-1.4-1-1.8q-2.1-1.3-3.5-2.7c-2.8-2.9-4.4-6.6-4.4-10.7 0-4 1.6-7.7 4.4-10.6 2.9-2.8 6.6-4.4 10.6-4.4 4.1 0 7.8 1.6 10.7 4.4q1.4 1.4 2.7 3.5c0.8 1.3 2.8 1.3 3.7 0q1.3-2.1 2.7-3.5c2.8-2.8 6.6-4.4 10.6-4.4 4 0 7.8 1.6 10.7 4.4 5.8 5.9 5.8 15.4 0 21.3q-1.5 1.4-3.5 2.7c-0.7 0.4-1 1.1-1 1.8 0 0.8 0.3 1.4 1 1.9q2 1.3 3.5 2.7c5.8 5.9 5.8 15.4 0 21.3-5.9 5.8-15.4 5.8-21.3 0q-1.4-1.5-2.7-3.5c-0.9-1.3-2.9-1.3-3.7 0q-1.3 2-2.7 3.5c-3 2.9-6.8 4.4-10.7 4.4zm0-58.4c-3.4 0-6.7 1.4-9.1 3.8-2.4 2.4-3.8 5.7-3.8 9.1 0 3.5 1.4 6.8 3.8 9.2q1.3 1.3 3.1 2.5c1.3 0.8 2 2.1 2 3.5 0 1.5-0.7 2.8-2 3.6q-1.8 1.2-3.1 2.5c-2.4 2.4-3.8 5.7-3.8 9.1 0 3.5 1.4 6.7 3.8 9.2 5 5 13.2 5 18.3 0q1.3-1.3 2.5-3.1c0.8-1.3 2.1-2 3.5-2 1.5 0 2.8 0.7 3.6 2q1.2 1.8 2.5 3.1c5 5 13.2 5 18.3 0 5-5.1 5-13.3 0-18.3q-1.3-1.3-3.1-2.5c-1.3-0.8-2-2.1-2-3.6 0-1.4 0.7-2.7 2-3.5q1.8-1.2 3.1-2.5c5-5 5-13.3 0-18.3-2.5-2.4-5.7-3.8-9.2-3.8-3.4 0-6.7 1.4-9.1 3.8q-1.3 1.3-2.5 3.1c-0.8 1.3-2.1 2-3.6 2-1.4 0-2.7-0.7-3.5-2q-1.2-1.8-2.5-3.1c-2.5-2.4-5.7-3.8-9.2-3.8z"/><path fill-rule="evenodd" class="a" d="m239.6-387c-14 0-25.4-11.4-25.4-25.4 0-2.3 0.3-4.8 0.9-7.5 0.3-1.6-0.1-3.2-1.3-4.3-1.1-1.1-2.6-1.5-4.2-1.2-2.7 0.6-5.2 0.9-7.5 0.9-14 0-25.5-11.4-25.5-25.5 0-14 11.5-25.4 25.5-25.4 2.3 0 4.8 0.3 7.5 0.9 1.6 0.3 3.1-0.1 4.2-1.3 1.2-1.1 1.6-2.6 1.3-4.2-0.6-2.7-0.9-5.2-0.9-7.5 0-14 11.4-25.5 25.4-25.5 14.1 0 25.5 11.5 25.5 25.5 0 2.3-0.3 4.8-0.9 7.5-0.3 1.6 0.1 3.1 1.2 4.2 1.1 1.2 2.7 1.6 4.3 1.3 2.7-0.6 5.2-0.9 7.5-0.9 14 0 25.4 11.4 25.4 25.4 0 14.1-11.4 25.5-25.4 25.5-2.3 0-4.8-0.3-7.5-0.9-1.6-0.3-3.2 0.1-4.3 1.2-1.1 1.1-1.5 2.7-1.2 4.3 0.6 2.7 0.9 5.2 0.9 7.5 0 14-11.4 25.4-25.5 25.4zm-29-40.6c1.8 0 3.5 0.7 4.7 2 1.6 1.6 2.3 3.9 1.8 6.1-0.5 2.5-0.8 4.9-0.8 7.1 0 12.9 10.5 23.3 23.3 23.3 12.9 0 23.4-10.4 23.4-23.3 0-2.2-0.3-4.5-0.8-7.1-0.5-2.2 0.2-4.5 1.8-6.1 1.6-1.6 3.9-2.3 6.1-1.8 2.6 0.5 4.9 0.8 7.1 0.8 12.9 0 23.3-10.5 23.3-23.4 0-12.8-10.4-23.3-23.3-23.3-2.2 0-4.5 0.3-7.1 0.8-2.2 0.5-4.5-0.2-6.1-1.8-1.6-1.6-2.3-3.9-1.8-6.1 0.5-2.6 0.8-5 0.8-7.1 0-12.9-10.5-23.4-23.4-23.4-12.8 0-23.3 10.5-23.3 23.4 0 2.2 0.3 4.5 0.8 7.1 0.5 2.2-0.2 4.5-1.8 6.1-1.6 1.6-3.9 2.3-6.1 1.8-2.6-0.5-5-0.8-7.1-0.8-12.9 0-23.4 10.5-23.4 23.3 0 12.9 10.5 23.4 23.4 23.4 2.1 0 4.5-0.3 7.1-0.8q0.7-0.2 1.4-0.2z"/><path fill-rule="evenodd" class="a" d="m239.6-435.3c-8.8 0-16-7.2-16-16 0-8.9 7.2-16 16-16 8.9 0 16.1 7.1 16.1 16 0 8.8-7.2 16-16.1 16zm0-29.9c-7.6 0-13.9 6.2-13.9 13.9 0 7.6 6.3 13.9 13.9 13.9 7.7 0 14-6.3 14-13.9 0-7.7-6.3-13.9-14-13.9z"/><path class="a" d="m239.6-470.8c-0.3 0-0.5-0.3-0.5-0.5v-24.7c0-0.3 0.2-0.5 0.5-0.5 0.3 0 0.6 0.2 0.6 0.5v24.7c0 0.2-0.3 0.5-0.6 0.5z"/><path class="a" d="m234.4-474.6c-0.2 0-0.5-0.1-0.5-0.4l-5.9-18.4c-0.1-0.3 0-0.6 0.3-0.7 0.3-0.1 0.6 0.1 0.7 0.3l5.9 18.5c0.1 0.3-0.1 0.6-0.4 0.7q0 0-0.1 0z"/><path class="a" d="m245-474.6q-0.1 0-0.1 0c-0.3-0.1-0.5-0.4-0.4-0.7l5.9-18.5c0.1-0.2 0.4-0.4 0.7-0.3 0.2 0.1 0.4 0.4 0.3 0.7l-5.9 18.4c-0.1 0.3-0.3 0.4-0.5 0.4z"/><path class="a" d="m239.6-404c-0.3 0-0.5-0.3-0.5-0.6v-24.6c0-0.3 0.2-0.6 0.5-0.6 0.3 0 0.6 0.3 0.6 0.6v24.6c0 0.3-0.3 0.6-0.6 0.6z"/><path class="a" d="m228.5-406.5q-0.1 0-0.2 0c-0.3-0.1-0.4-0.4-0.3-0.6l5.9-18.5c0.1-0.3 0.4-0.5 0.6-0.4 0.3 0.1 0.5 0.4 0.4 0.7l-5.9 18.5c-0.1 0.2-0.3 0.3-0.5 0.3z"/><path class="a" d="m250.9-406.5c-0.2 0-0.4-0.1-0.5-0.3l-5.9-18.5c-0.1-0.3 0.1-0.6 0.4-0.7 0.2-0.1 0.5 0.1 0.6 0.4l5.9 18.5c0.1 0.2-0.1 0.5-0.3 0.6q-0.1 0-0.2 0z"/><path class="a" d="m285.4-449.8h-24.7c-0.2 0-0.5-0.3-0.5-0.6 0-0.2 0.3-0.5 0.5-0.5h24.7c0.3 0 0.5 0.3 0.5 0.5 0 0.3-0.2 0.6-0.5 0.6z"/><path class="a" d="m264.5-455.1c-0.2 0-0.4-0.1-0.5-0.4-0.1-0.2 0.1-0.5 0.4-0.6l18.4-5.9c0.3-0.1 0.6 0.1 0.7 0.3 0.1 0.3-0.1 0.6-0.3 0.7l-18.5 5.9q-0.1 0-0.2 0z"/><path class="a" d="m283-438.5q-0.1 0-0.2-0.1l-18.4-5.9c-0.3-0.1-0.5-0.4-0.4-0.6 0.1-0.3 0.4-0.5 0.7-0.4l18.5 5.9c0.2 0.1 0.4 0.4 0.3 0.7-0.1 0.2-0.3 0.4-0.5 0.4z"/><path class="a" d="m218.6-449.8h-24.6c-0.3 0-0.5-0.3-0.5-0.6 0-0.2 0.2-0.5 0.5-0.5h24.6c0.3 0 0.6 0.3 0.6 0.5 0 0.3-0.3 0.6-0.6 0.6z"/><path class="a" d="m214.9-455.1q-0.1 0-0.2 0l-18.5-5.9c-0.2-0.1-0.4-0.4-0.3-0.7 0.1-0.2 0.4-0.4 0.7-0.3l18.4 5.9c0.3 0.1 0.5 0.4 0.4 0.6-0.1 0.3-0.3 0.4-0.5 0.4z"/><path class="a" d="m196.4-438.5c-0.2 0-0.4-0.2-0.5-0.4-0.1-0.3 0.1-0.6 0.3-0.7l18.5-5.9c0.3-0.1 0.6 0.1 0.7 0.4 0.1 0.2-0.1 0.5-0.4 0.6l-18.4 5.9q-0.1 0.1-0.2 0.1z"/><path fill-rule="evenodd" class="a" d="m-423.6-229.6h-77.5v-19.7h77.5zm-75.4-2.1h73.3v-15.6h-73.3z"/><path fill-rule="evenodd" class="a" d="m-423.6-106.9h-77.5v-19.7h77.5zm-75.4-2.1h73.3v-15.6h-73.3z"/><path class="a" d="m-500.7-124.8l-15.7-12.5v-79.7l15.7-14.4 1.4 1.6-15 13.7v77.8l14.9 11.9z"/><path class="a" d="m-424-124.8l-1.3-1.6 15-11.9v-77.8l-15.1-13.7 1.5-1.6 15.7 14.4v79.7z"/><path class="a" d="m-494.7-124.8l-13.3-12.5v-79.7l13.2-14.3 1.6 1.4-12.7 13.8v77.9l12.6 11.8z"/><path class="a" d="m-429.9-124.8l-1.5-1.6 12.6-11.8v-77.9l-12.6-13.8 1.5-1.4 13.2 14.3v79.7z"/><path class="a" d="m-484.2-125l-8.8-12.4v-79.4l8.7-14.4 1.8 1.1-8.4 13.8v78.2l8.4 11.9z"/><path class="a" d="m-440.4-125l-1.8-1.2 8.4-11.9v-78.2l-8.4-13.8 1.8-1.1 8.7 14.4v79.4z"/><path class="a" d="m-472.3-125.3l-3.7-12.5v-79l3.7-14.1 2 0.6-3.6 13.9v78.5l3.6 12z"/><path class="a" d="m-452.4-125.3l-2-0.6 3.6-12v-78.5l-3.6-13.9 2.1-0.6 3.6 14.4v79z"/><path class="a" d="m-410.4-215.5h-105v-2.1h105z"/><path class="a" d="m-410.4-137.1h-105v-2.1h105z"/><path class="a" d="m-463.4-264.4v16.1h2.1v-16.1z"/><path class="a" d="m-461.3-301.6v-27.3h-2.1v27.3z"/><path fill-rule="evenodd" class="a" d="m-462.3-270.7c-1.2 0-2.3-0.4-3.2-1.3l-8-8c-0.8-0.8-1.3-1.9-1.3-3.1 0-1.2 0.5-2.3 1.3-3.2l8-8c1.8-1.7 4.6-1.7 6.3 0l8 8c1.8 1.8 1.8 4.6 0 6.3l-8 8c-0.8 0.9-1.9 1.3-3.1 1.3zm0-22.8c-0.6 0-1.2 0.2-1.7 0.7l-8 8c-0.9 0.9-0.9 2.4 0 3.3l8 8.1c0.9 0.9 2.4 0.9 3.3 0l8-8.1c1-0.9 1-2.4 0-3.3l-8-8c-0.4-0.5-1-0.7-1.6-0.7z"/><path fill-rule="evenodd" class="a" d="m-462.3-277.5c-1.2 0-2.3-0.4-3.2-1.3l-1.2-1.2c-1.7-1.7-1.7-4.5 0-6.3l1.2-1.1c1.8-1.8 4.6-1.8 6.3 0l1.2 1.1c1.7 1.8 1.7 4.6 0 6.3l-1.2 1.2c-0.9 0.9-2 1.3-3.1 1.3zm0-9.1c-0.6 0-1.2 0.2-1.7 0.6l-1.2 1.2c-0.9 0.9-0.9 2.4 0 3.3l1.2 1.2c0.9 0.9 2.4 0.9 3.3 0l1.2-1.2c0.9-0.9 0.9-2.4 0-3.3l-1.2-1.2c-0.4-0.4-1-0.6-1.6-0.6z"/><path fill-rule="evenodd" class="a" d="m-462.3-293.9c-2.5 0-4.5-2-4.5-4.4 0-2.5 2-4.5 4.5-4.5 2.4 0 4.4 2 4.4 4.5 0 2.4-2 4.4-4.4 4.4zm0-6.8c-1.3 0-2.4 1.1-2.4 2.4 0 1.3 1.1 2.3 2.4 2.3 1.3 0 2.3-1 2.3-2.3 0-1.3-1-2.4-2.3-2.4z"/><path fill-rule="evenodd" class="a" d="m-462.3-263.4c-2.5 0-4.5-2-4.5-4.5 0-2.5 2-4.4 4.5-4.4 2.4 0 4.4 1.9 4.4 4.4 0 2.5-2 4.5-4.4 4.5zm0-6.8c-1.3 0-2.4 1-2.4 2.3 0 1.3 1.1 2.4 2.4 2.4 1.3 0 2.3-1.1 2.3-2.4 0-1.3-1-2.3-2.3-2.3z"/><path fill-rule="evenodd" class="a" d="m-447.1-278.7c-2.5 0-4.5-2-4.5-4.4 0-2.5 2-4.5 4.5-4.5 2.4 0 4.4 2 4.4 4.5 0 2.4-2 4.4-4.4 4.4zm0-6.8c-1.3 0-2.4 1.1-2.4 2.4 0 1.3 1.1 2.3 2.4 2.3 1.3 0 2.3-1 2.3-2.3 0-1.3-1-2.4-2.3-2.4z"/><path fill-rule="evenodd" class="a" d="m-477.6-278.7c-2.4 0-4.4-2-4.4-4.4 0-2.5 2-4.5 4.4-4.5 2.5 0 4.5 2 4.5 4.5 0 2.4-2 4.4-4.5 4.4zm0-6.8c-1.3 0-2.3 1.1-2.3 2.4 0 1.3 1 2.3 2.3 2.3 1.3 0 2.4-1 2.4-2.3 0-1.3-1.1-2.4-2.4-2.4z"/><path class="a" d="m-497.6-56.8h-2.1v-51.1h2.1z"/><path class="a" d="m-491.6-56.8h-2.1v-51.1h2.1z"/><path class="a" d="m-485.5-56.8h-2.1v-51.1h2.1z"/><path class="a" d="m-479.5-56.8h-2.1v-51.1h2.1z"/><path class="a" d="m-473.4-56.8h-2.1v-51.1h2.1z"/><path class="a" d="m-467.3-56.8h-2.1v-51.1h2.1z"/><path class="a" d="m-461.3-56.8h-2.1v-51.1h2.1z"/><path class="a" d="m-455.2-56.8h-2.1v-51.1h2.1z"/><path class="a" d="m-449.2-56.8h-2.1v-51.1h2.1z"/><path class="a" d="m-443.1-56.8h-2.1v-51.1h2.1z"/><path class="a" d="m-437-56.8h-2.1v-51.1h2.1z"/><path class="a" d="m-431-56.8h-2.1v-51.1h2.1z"/><path class="a" d="m-424.9-56.8h-2.1v-51.1h2.1z"/><path class="a" d="m-306.9-56.8h-2.1v-46.4h2.1z"/><path class="a" d="m-300.8-56.8h-2.1v-46.4h2.1z"/><path class="a" d="m-294.7-56.8h-2.1v-46.4h2.1z"/><path class="a" d="m-288.7-56.8h-2.1v-46.4h2.1z"/><path class="a" d="m-282.6-56.8h-2.1v-46.4h2.1z"/><path class="a" d="m-276.6-56.8h-2.1v-46.4h2.1z"/><path class="a" d="m-270.5-56.8h-2.1v-46.4h2.1z"/><path class="a" d="m-264.5-56.8h-2v-46.4h2z"/><path class="a" d="m-287.8-264.4v17.7h2.1v-17.7z"/><path class="a" d="m-285.7-301.6v-27.3h-2.1v27.3z"/><path fill-rule="evenodd" class="a" d="m-286.7-270.7c-1.2 0-2.3-0.4-3.1-1.3l-8.1-8c-0.8-0.8-1.3-1.9-1.3-3.1 0-1.2 0.5-2.3 1.3-3.2l8.1-8c1.7-1.7 4.5-1.7 6.2 0l8.1 8c1.7 1.8 1.7 4.6 0 6.3l-8.1 8c-0.8 0.9-1.9 1.3-3.1 1.3zm0-22.8c-0.6 0-1.2 0.2-1.7 0.7l-8 8c-0.9 0.9-0.9 2.4 0 3.3l8 8.1c0.9 0.9 2.4 0.9 3.3 0l8.1-8.1c0.9-0.9 0.9-2.4 0-3.3l-8.1-8c-0.4-0.5-1-0.7-1.6-0.7z"/><path fill-rule="evenodd" class="a" d="m-286.7-277.5c-1.1 0-2.3-0.4-3.1-1.3l-1.2-1.2c-1.8-1.7-1.8-4.5 0-6.3l1.2-1.1c1.7-1.8 4.5-1.8 6.2 0l1.2 1.1c1.7 1.8 1.7 4.6 0 6.3l-1.2 1.2c-0.8 0.9-2 1.3-3.1 1.3zm0-9.1c-0.6 0-1.2 0.2-1.7 0.6l-1.1 1.2c-1 0.9-1 2.4 0 3.3l1.1 1.2c0.9 0.9 2.4 0.9 3.3 0l1.2-1.2c0.9-0.9 0.9-2.4 0-3.3l-1.2-1.2c-0.4-0.4-1-0.6-1.6-0.6z"/><path fill-rule="evenodd" class="a" d="m-286.7-293.9c-2.5 0-4.5-2-4.5-4.4 0-2.5 2-4.5 4.5-4.5 2.4 0 4.4 2 4.4 4.5 0 2.4-2 4.4-4.4 4.4zm0-6.8c-1.3 0-2.4 1.1-2.4 2.4 0 1.3 1.1 2.3 2.4 2.3 1.3 0 2.3-1 2.3-2.3 0-1.3-1-2.4-2.3-2.4z"/><path fill-rule="evenodd" class="a" d="m-286.7-263.4c-2.5 0-4.5-2-4.5-4.5 0-2.5 2-4.4 4.5-4.4 2.4 0 4.4 1.9 4.4 4.4 0 2.5-2 4.5-4.4 4.5zm0-6.8c-1.3 0-2.4 1-2.4 2.3 0 1.3 1.1 2.4 2.4 2.4 1.3 0 2.3-1.1 2.3-2.4 0-1.3-1-2.3-2.3-2.3z"/><path fill-rule="evenodd" class="a" d="m-271.5-278.7c-2.4 0-4.4-2-4.4-4.4 0-2.5 2-4.5 4.4-4.5 2.5 0 4.5 2 4.5 4.5 0 2.4-2 4.4-4.5 4.4zm0-6.8c-1.3 0-2.3 1.1-2.3 2.4 0 1.3 1 2.3 2.3 2.3 1.3 0 2.4-1 2.4-2.3 0-1.3-1.1-2.4-2.4-2.4z"/><path fill-rule="evenodd" class="a" d="m-301.9-278.7c-2.5 0-4.5-2-4.5-4.4 0-2.5 2-4.5 4.5-4.5 2.4 0 4.4 2 4.4 4.5 0 2.4-2 4.4-4.4 4.4zm0-6.8c-1.3 0-2.4 1.1-2.4 2.4 0 1.3 1.1 2.3 2.4 2.3 1.3 0 2.3-1 2.3-2.3 0-1.3-1-2.4-2.3-2.4z"/><path fill-rule="evenodd" class="a" d="m-261.8-234.2h-49.9v-13.3h49.9zm-47.8-2.1h45.7v-9.2h-45.7z"/><path fill-rule="evenodd" class="a" d="m-261.8-101.8h-49.9v-13.3h49.9zm-47.8-2.1h45.7v-9.1h-45.7z"/><path class="a" d="m-304.7-113.7c-26.5-7.8-45.8-32.3-45.8-61.2 0-28.5 18.7-52.7 44.5-60.9h-6.1c-23.8 10-40.5 33.5-40.5 60.9 0 27.7 17.2 51.5 41.5 61.2z"/><path class="a" d="m-261.4-235.8h-6.1c25.9 8.2 44.6 32.4 44.6 60.9 0 28.9-19.3 53.4-45.8 61.2h6.4c24.3-9.7 41.5-33.5 41.5-61.2 0-27.4-16.8-50.9-40.6-60.9z"/><path class="a" d="m-243-174.9c0 28.9-13.3 53.4-31.4 61.2h4.6c16.9-9.7 28.9-33.5 28.9-61.2 0-27.4-11.7-50.9-28.2-60.9h-4.4c17.6 8.2 30.5 32.4 30.5 60.9z"/><path class="a" d="m-303.7-113.7h4.6c-18.1-7.8-31.3-32.3-31.3-61.2 0-28.5 12.8-52.7 30.5-60.9h-4.4c-16.6 10-28.2 33.5-28.2 60.9 0 27.7 12 51.5 28.8 61.2z"/><path class="a" d="m-282.1-113.7h2.7c7.4-10.3 11.7-36.1 11.7-61.2 0-24.8-4.2-50.3-11.5-60.9h-2.6c6.4 7.8 12 30.3 12 60.9 0 31-5.8 53.8-12.3 61.2z"/><path class="a" d="m-291.3-113.7c-6.5-7.4-12.3-30.2-12.3-61.2 0-30.6 5.6-53.1 12-60.9h-2.6c-7.3 10.6-11.5 36.1-11.5 60.9 0 25.1 4.3 50.9 11.7 61.2z"/><path class="a" d="m-286.7-201.5l-14.7-10.6-24.3 5.1-9.5-11.4 1.6-1.3 8.7 10.4 23.9-5 14.3 10.3 14.6-9.5 24.2 6.5 10.6-9.5 1.4 1.5-11.5 10.3-24.3-6.6z"/><path class="a" d="m-333.6-130l-1.6-1.4 9.5-11.4 24.3 5.2 14.7-10.6 15 9.7 24.3-6.6 11.5 10.3-1.4 1.6-10.6-9.5-24.2 6.5-14.6-9.5-14.3 10.3-23.9-5.1z"/><path class="a" d="m-341.5-170.2c6.7 0 6.7-10.5 0-10.5-6.8 0-6.8 10.5 0 10.5z"/><path class="a" d="m-317.7-170.7c6.8 0 6.8-10.5 0-10.5-6.7 0-6.8 10.5 0 10.5z"/><path class="a" d="m-287.9-170.7c6.7 0 6.7-10.5 0-10.5-6.8 0-6.8 10.5 0 10.5z"/><path class="a" d="m-255-171c6.8 0 6.8-10.5 0-10.5-6.7 0-6.8 10.5 0 10.5z"/><path class="a" d="m-231.7-170.7c6.8 0 6.8-10.5 0-10.5-6.7 0-6.8 10.5 0 10.5z"/><path class="a" d="m-65.1-224.6h-92c-3.9 0-7.1-3.2-7.1-7.1v-0.7c0-3.9 3.2-7.1 7.1-7.1h92c3.9 0 7.1 3.2 7.1 7.1v0.7c0 3.9-3.2 7.1-7.1 7.1z"/><path class="a" d="m-65.1-207.3h-92c-3.9 0-7.1-3.3-7.1-7.2v-0.7c0-3.9 3.2-7.1 7.1-7.1h92c3.9 0 7.1 3.2 7.1 7.1v0.7c0 3.9-3.2 7.2-7.1 7.2z"/><path class="a" d="m-65.1-190.1h-92c-3.9 0-7.1-3.2-7.1-7.2v-0.7c0-3.9 3.2-7.1 7.1-7.1h92c3.9 0 7.1 3.2 7.1 7.1v0.7c0 4-3.2 7.2-7.1 7.2z"/><path class="a" d="m-65.1-172.9h-92c-3.9 0-7.1-3.2-7.1-7.1v-0.7c0-4 3.2-7.2 7.1-7.2h92c3.9 0 7.1 3.2 7.1 7.2v0.7c0 3.9-3.2 7.1-7.1 7.1z"/><path class="a" d="m-65.1-155.7h-92c-3.9 0-7.1-3.2-7.1-7.1v-0.7c0-4 3.2-7.2 7.1-7.2h92c3.9 0 7.1 3.2 7.1 7.2v0.7c0 3.9-3.2 7.1-7.1 7.1z"/><path class="a" d="m-65.1-138.5h-92c-3.9 0-7.1-3.2-7.1-7.1v-0.7c0-3.9 3.2-7.1 7.1-7.1h92c3.9 0 7.1 3.2 7.1 7.1v0.7c0 3.9-3.2 7.1-7.1 7.1z"/><path class="a" d="m-65.1-121.3h-92c-3.9 0-7.1-3.2-7.1-7.1v-0.7c0-3.9 3.2-7.1 7.1-7.1h92c3.9 0 7.1 3.2 7.1 7.1v0.7c0 3.9-3.2 7.1-7.1 7.1z"/><path class="a" d="m-110-234.6h-2.1v-94.3h2.1z"/><path class="a" d="m-148.5-236.9l-1.4-1.5 38.8-35.4 38.1 35.4-1.4 1.5-36.7-34z"/><path class="a" d="m-91.8-109h-41.1v-10.6h41.1z"/><path class="a" d="m-111.3-80h-2.1v-33h2.1z"/><path class="a" d="m-105.4-76v-16.8c0-3.9-3.1-7-7-7-3.8 0-6.9 3.1-6.9 7v16.8z"/><path class="a" d="m-117.4-56.8h-1.1v-20.9h1.1z"/><path class="a" d="m-115.5-56.8h-1.1v-20.9h1.1z"/><path class="a" d="m-113.6-56.8h-1.1v-20.9h1.1z"/><path class="a" d="m-111.7-56.8h-1.1v-20.9h1.1z"/><path class="a" d="m-109.8-56.8h-1.1v-20.9h1.1z"/><path class="a" d="m-107.9-56.8h-1v-20.9h1z"/><path class="a" d="m-106-56.8h-1v-20.9h1z"/><path fill-rule="evenodd" class="a" d="m240.2-85.6c-19.7 0-35.7-16-35.7-35.7 0-19.6 16-35.6 35.7-35.6 19.6 0 35.6 16 35.6 35.6 0 19.7-16 35.7-35.6 35.7zm0-69.2c-18.5 0-33.6 15-33.6 33.5 0 18.5 15.1 33.6 33.6 33.6 18.5 0 33.5-15.1 33.5-33.6 0-18.5-15-33.5-33.5-33.5z"/><path fill-rule="evenodd" class="a" d="m240.2-85.6c-12.1 0-22-16-22-35.7 0-19.6 9.9-35.6 22-35.6 12.1 0 21.9 16 21.9 35.6 0 19.7-9.8 35.7-21.9 35.7zm0-69.2c-11 0-19.9 15-19.9 33.5 0 18.5 8.9 33.6 19.9 33.6 10.9 0 19.8-15.1 19.8-33.6 0-18.5-8.9-33.5-19.8-33.5z"/><path class="a" d="m241.2-86.7h-2.1v-69.2h2.1z"/><path class="a" d="m251.3-153.5h-22.3v-7.3h22.3z"/><path class="a" d="m251.3-81.2h-22.3v-7.2h22.3z"/><path fill-rule="evenodd" class="a" d="m240.2-184.3c-26.7 0-48.4-21.7-48.4-48.3 0-26.7 21.7-48.4 48.4-48.4 26.6 0 48.3 21.7 48.3 48.4 0 26.6-21.7 48.3-48.3 48.3zm0-94.6c-25.6 0-46.3 20.7-46.3 46.3 0 25.5 20.7 46.2 46.3 46.2 25.5 0 46.2-20.7 46.2-46.2 0-25.6-20.7-46.3-46.2-46.3z"/><path fill-rule="evenodd" class="a" d="m240.2-184.3c-16.4 0-29.7-21.7-29.7-48.3 0-26.7 13.3-48.4 29.7-48.4 16.3 0 29.6 21.7 29.6 48.4 0 26.6-13.3 48.3-29.6 48.3zm0-94.6c-15.2 0-27.6 20.7-27.6 46.3 0 25.5 12.4 46.2 27.6 46.2 15.1 0 27.5-20.7 27.5-46.2 0-25.6-12.4-46.3-27.5-46.3z"/><path class="a" d="m241.2-160.8h-2.1v-168.1h2.1z"/><path class="a" d="m255.4-276.7h-30.4v-9.9h30.4z"/><path class="a" d="m255.4-177.8h-30.4v-9.9h30.4z"/><path class="a" d="m231.1-56.8h-1v-24.9h1z"/><path class="a" d="m233.1-56.8h-1.1v-24.9h1.1z"/><path class="a" d="m235-56.8h-1.1v-24.9h1.1z"/><path class="a" d="m236.9-56.8h-1.1v-24.9h1.1z"/><path class="a" d="m238.8-56.8h-1.1v-24.9h1.1z"/><path class="a" d="m240.7-56.8h-1.1v-24.9h1.1z"/><path class="a" d="m242.6-56.8h-1.1v-24.9h1.1z"/><path class="a" d="m244.6-56.8h-1.1v-24.9h1.1z"/><path class="a" d="m246.5-56.8h-1.1v-24.9h1.1z"/><path class="a" d="m248.4-56.8h-1.1v-24.9h1.1z"/><path class="a" d="m250.3-56.8h-1.1v-24.9h1.1z"/><path class="a" d="m65.9-80h-2.1v-33h2.1z"/><path class="a" d="m71.8-76v-16.8c0-3.9-3.1-7-6.9-7-3.9 0-7 3.1-7 7v16.8z"/><path class="a" d="m59.8-56.8h-1.1v-20.9h1.1z"/><path class="a" d="m61.7-56.8h-1v-20.9h1z"/><path class="a" d="m63.6-56.8h-1v-20.9h1z"/><path class="a" d="m65.5-56.8h-1v-20.9h1z"/><path class="a" d="m67.4-56.8h-1v-20.9h1z"/><path class="a" d="m69.3-56.8h-1v-20.9h1z"/><path class="a" d="m71.2-56.8h-1v-20.9h1z"/><path class="a" d="m63.8-264.4v17.7h2.1v-17.7z"/><path class="a" d="m65.9-301.6v-27.3h-2.1v27.3z"/><path fill-rule="evenodd" class="a" d="m64.9-270.7c-1.2 0-2.3-0.4-3.2-1.3l-8-8c-0.8-0.8-1.3-1.9-1.3-3.1 0-1.2 0.5-2.3 1.3-3.2l8-8c1.8-1.7 4.6-1.7 6.3 0l8 8c1.8 1.8 1.8 4.6 0 6.3l-8 8c-0.8 0.9-2 1.3-3.1 1.3zm0-22.8c-0.6 0-1.2 0.2-1.7 0.7l-8 8c-0.9 0.9-0.9 2.4 0 3.3l8 8.1c0.9 0.9 2.4 0.9 3.3 0l8-8.1c1-0.9 1-2.4 0-3.3l-8-8c-0.4-0.5-1-0.7-1.6-0.7z"/><path fill-rule="evenodd" class="a" d="m64.9-277.5c-1.2 0-2.3-0.4-3.2-1.3l-1.2-1.2c-1.7-1.7-1.7-4.5 0-6.3l1.2-1.1c1.8-1.8 4.6-1.8 6.3 0l1.2 1.1c1.7 1.8 1.7 4.6 0 6.3l-1.2 1.2c-0.9 0.9-2 1.3-3.1 1.3zm0-9.1c-0.6 0-1.2 0.2-1.7 0.6l-1.2 1.2c-0.9 0.9-0.9 2.4 0 3.3l1.2 1.2c0.9 0.9 2.4 0.9 3.3 0l1.2-1.2c0.9-0.9 0.9-2.4 0-3.3l-1.2-1.2c-0.4-0.4-1-0.6-1.6-0.6z"/><path fill-rule="evenodd" class="a" d="m64.9-293.9c-2.5 0-4.5-2-4.5-4.4 0-2.5 2-4.5 4.5-4.5 2.4 0 4.4 2 4.4 4.5 0 2.4-2 4.4-4.4 4.4zm0-6.8c-1.3 0-2.4 1.1-2.4 2.4 0 1.3 1.1 2.3 2.4 2.3 1.3 0 2.3-1 2.3-2.3 0-1.3-1-2.4-2.3-2.4z"/><path fill-rule="evenodd" class="a" d="m64.9-263.4c-2.5 0-4.5-2-4.5-4.5 0-2.5 2-4.4 4.5-4.4 2.4 0 4.4 1.9 4.4 4.4 0 2.5-2 4.5-4.4 4.5zm0-6.8c-1.3 0-2.4 1-2.4 2.3 0 1.3 1.1 2.4 2.4 2.4 1.3 0 2.3-1.1 2.3-2.4 0-1.3-1-2.3-2.3-2.3z"/><path fill-rule="evenodd" class="a" d="m80.1-278.7c-2.5 0-4.5-2-4.5-4.4 0-2.5 2-4.5 4.5-4.5 2.4 0 4.4 2 4.4 4.5 0 2.4-2 4.4-4.4 4.4zm0-6.8c-1.3 0-2.4 1.1-2.4 2.4 0 1.3 1.1 2.3 2.4 2.3 1.3 0 2.3-1 2.3-2.3 0-1.3-1-2.4-2.3-2.4z"/><path fill-rule="evenodd" class="a" d="m49.6-278.7c-2.4 0-4.4-2-4.4-4.4 0-2.5 2-4.5 4.4-4.5 2.5 0 4.5 2 4.5 4.5 0 2.4-2 4.4-4.5 4.4zm0-6.8c-1.3 0-2.3 1.1-2.3 2.4 0 1.3 1 2.3 2.3 2.3 1.3 0 2.4-1 2.4-2.3 0-1.3-1.1-2.4-2.4-2.4z"/><path class="a" d="m58.6-137.6h-1.1c-0.6 0-16.3-0.4-26.7-18.8l-0.8-1.5h17.7c0.5 0 1 0.4 1 1 0 0.6-0.5 1.1-1 1.1h-14.1c8.2 13.2 19.4 15.6 22.9 16v-27.1h-41.9c9.1 37.8 42.7 42.4 43.1 42.5 0.5 0.1 0.9 0.6 0.9 1.2-0.1 0.5-0.5 0.9-1.1 0.9q0 0-0.1 0c-0.4-0.1-36.2-5.1-45.1-45.4l-0.3-1.3h24.7v-7.5h-37.2c0.2 4.8 1.5 9.6 4 13.9l17.7 30.7c5.3 9.2 15.3 15 25.9 15h16.7v-39.1h-5.2z"/><path class="a" d="m71.1-169h19.8v-17.2h-19.8v-10.9h-5.2v39h5.2z"/><path class="a" d="m21.2-223.3l-17.7 30.8c-2.5 4.3-3.8 9-4 13.9h37.2v-7.6h-24.7l0.3-1.3c8.9-40.3 44.7-45.3 45.1-45.3 0.6-0.1 1.1 0.3 1.2 0.9 0 0.6-0.4 1.1-0.9 1.2-0.4 0-34 4.7-43.1 42.4h41.9v-27.1c-3.5 0.5-14.7 2.9-22.9 16.1h14.1c0.5 0 1 0.5 1 1 0 0.6-0.5 1.1-1 1.1h-17.7l0.8-1.6c10.4-18.3 26.1-18.7 26.7-18.8h1.1v18.4h5.2v-39h-16.7c-10.6 0-20.6 5.7-25.9 14.9z"/><path class="a" d="m58.6-186.2h-19.8v17.2h19.8v10.9h5.2v-39h-5.2z"/><path class="a" d="m93-169h24.7l-0.2 1.3c-9 40.3-44.8 45.3-45.2 45.4q0 0-0.1 0c-0.5 0-1-0.4-1-0.9-0.1-0.6 0.3-1.1 0.9-1.2 0.3-0.1 33.9-4.8 43-42.5h-41.9v27.1c3.5-0.4 14.8-2.8 22.9-16h-14c-0.6 0-1.1-0.5-1.1-1.1 0-0.6 0.5-1 1.1-1h17.7l-0.9 1.5c-10.4 18.4-26 18.8-26.7 18.8h-1.1v-18.4h-5.2v39.1h16.7c10.7 0 20.6-5.8 25.9-15l17.8-30.7c2.4-4.3 3.8-9.1 3.9-13.9h-37.2z"/><path fill-rule="evenodd" class="a" d="m137-162.1l-22.7 39.2c-5.5 9.6-15.7 15.5-26.8 15.5h-45.3c-11 0-21.3-5.9-26.8-15.5l-22.6-39.2c-5.6-9.6-5.6-21.4 0-31l22.6-39.2c5.5-9.6 15.8-15.5 26.8-15.5h45.3c11.1 0 21.3 5.9 26.8 15.5l22.7 39.2c5.5 9.6 5.5 21.4 0 31zm-4.6-15.5q0 0 0-0.1c-0.1-5.5-1.5-11-4.3-15.9l-17.8-30.7c-5.7-9.9-16.3-16-27.7-16h-35.5c-11.4 0-22 6.1-27.7 16l-17.7 30.7c-2.9 4.9-4.3 10.4-4.3 15.9q0 0.1 0 0.1 0 0.1 0 0.1c0 5.5 1.4 11 4.3 15.9l17.7 30.8c5.7 9.8 16.3 16 27.7 16h35.5c11.4 0 22-6.2 27.7-16l17.8-30.8c2.8-4.9 4.2-10.4 4.3-15.9q0 0 0-0.1z"/><path class="a" d="m108.5-223.3c-5.3-9.2-15.2-14.9-25.9-14.9h-16.7v39h5.2v-18.4h1.1c0.7 0.1 16.3 0.5 26.7 18.8l0.9 1.6h-17.7c-0.6 0-1.1-0.5-1.1-1.1 0-0.5 0.5-1 1.1-1h14c-8.2-13.3-19.4-15.6-22.9-16.1v27.1h41.9c-9.1-37.7-42.7-42.4-43-42.4-0.6-0.1-1-0.6-0.9-1.2 0-0.6 0.6-1 1.1-0.9 0.4 0 36.2 5 45.2 45.3l0.2 1.3h-24.7v7.6h37.2c-0.1-4.9-1.5-9.6-3.9-13.9z"/><path class="a" d="m-462.2 140.3v-13.4h-1.9v13.4z"/><path class="a" d="m-464.1 213.8v15.5h1.9v-15.5z"/><path class="a" d="m-462.2 54v-49.6h-1.9v49.6z"/><path fill-rule="evenodd" class="a" d="m-431.4 89.9c0 17.4-14.3 31.7-31.7 31.7-17.5 0-31.7-14.3-31.7-31.7 0-17.5 14.2-31.7 31.7-31.7 17.4 0 31.7 14.2 31.7 31.7zm-17.4-3.3l-11-11c-1.9-1.9-4.8-1.9-6.6 0l-11 11c-1.9 1.8-1.9 4.7 0 6.5l11 11.1c1.8 1.8 4.7 1.8 6.6 0l11-11.1c1.8-1.8 1.8-4.7 0-6.5z"/><path fill-rule="evenodd" class="a" d="m-422 89.9c0 22.7-18.4 41.1-41.1 41.1-22.7 0-41.1-18.4-41.1-41.1 0-22.7 18.4-41.2 41.1-41.2 22.7 0 41.1 18.5 41.1 41.2zm-7.3 0c0-18.7-15.2-33.8-33.8-33.8-18.7 0-33.8 15.1-33.8 33.8 0 18.6 15.1 33.8 33.8 33.8 18.6 0 33.8-15.2 33.8-33.8z"/><path fill-rule="evenodd" class="a" d="m-422 178c0 22.7-18.4 41.1-41.1 41.1-22.7 0-41.1-18.4-41.1-41.1 0-22.8 18.4-41.2 41.1-41.2 22.7 0 41.1 18.4 41.1 41.2zm-7.3 0c0-18.7-15.2-33.8-33.8-33.8-18.7 0-33.8 15.1-33.8 33.8 0 18.6 15.1 33.8 33.8 33.8 18.6 0 33.8-15.2 33.8-33.8z"/><path fill-rule="evenodd" class="a" d="m-431.4 178c0 17.4-14.3 31.7-31.7 31.7-17.5 0-31.7-14.3-31.7-31.7 0-17.5 14.2-31.7 31.7-31.7 17.4 0 31.7 14.2 31.7 31.7zm-17.4-3.3l-11-11.1c-1.9-1.8-4.8-1.8-6.6 0l-11 11.1c-1.9 1.8-1.9 4.7 0 6.5l11 11.1c1.8 1.8 4.7 1.8 6.6 0l11-11.1c1.8-1.8 1.8-4.7 0-6.5z"/><path fill-rule="evenodd" class="a" d="m-422 266.1c0 22.7-18.4 41.1-41.1 41.1-22.7 0-41.1-18.4-41.1-41.1 0-22.8 18.4-41.2 41.1-41.2 22.7 0 41.1 18.4 41.1 41.2zm-7.3-0.1c0-18.6-15.2-33.8-33.8-33.8-18.7 0-33.8 15.2-33.8 33.8 0 18.7 15.1 33.8 33.8 33.8 18.6 0 33.8-15.1 33.8-33.8z"/><path fill-rule="evenodd" class="a" d="m-431.4 266c0 17.5-14.3 31.8-31.7 31.8-17.5 0-31.7-14.3-31.7-31.8 0-17.4 14.2-31.7 31.7-31.7 17.4 0 31.7 14.3 31.7 31.7zm-17.4-3.2l-11-11.1c-1.9-1.8-4.8-1.8-6.6 0l-11 11.1c-1.9 1.8-1.9 4.7 0 6.5l11 11.1c1.8 1.8 4.7 1.8 6.6 0l11-11.1c1.8-1.8 1.8-4.7 0-6.5z"/><path class="a" d="m-37.5 177.3h-129.2c-4.9 0-8.9-4.1-8.9-9v-0.8c0-4.9 4-8.9 8.9-8.9h129.2c4.9 0 8.9 4 8.9 8.9v0.8c0 4.9-4 9-8.9 9z"/><path class="a" d="m-41.3 199h-121.6c-4.9 0-8.9-4.1-8.9-9v-0.8c0-4.9 4-8.9 8.9-8.9h121.6c4.9 0 8.9 4 8.9 8.9v0.8c0 4.9-4 9-8.9 9z"/><path class="a" d="m-49.9 220.7h-104.4c-4.9 0-8.9-4.1-8.9-9v-0.8c0-4.9 4-8.9 8.9-8.9h104.4c4.9 0 8.9 4 8.9 8.9v0.8c0 4.9-4 9-8.9 9z"/><path class="a" d="m-69.1 242.4h-66c-4.9 0-8.9-4.1-8.9-9v-0.8c0-4.9 4-8.9 8.9-8.9h66c4.9 0 8.9 4 8.9 8.9v0.8c0 4.9-4 9-8.9 9z"/><path class="a" d="m-41.3 136.8h-121.6c-4.9 0-8.9 4.1-8.9 9v0.8c0 4.9 4 9 8.9 9h121.6c4.9 0 8.9-4.1 8.9-9v-0.8c0-4.9-4-9-8.9-9z"/><path class="a" d="m-49.9 115.1h-104.4c-4.9 0-8.9 4.1-8.9 9v0.8c0 4.9 4 9 8.9 9h104.4c4.9 0 8.9-4.1 8.9-9v-0.8c0-4.9-4-9-8.9-9z"/><path class="a" d="m-69.1 93.4h-66c-4.9 0-8.9 4.1-8.9 9v0.8c0 4.9 4 9 8.9 9h66c4.9 0 8.9-4.1 8.9-9v-0.8c0-4.9-4-9-8.9-9z"/><path fill-rule="evenodd" class="a" d="m-83.1 263.8h-38v-18.2h38zm-36.2-2.1h34.4v-14h-34.4z"/><path fill-rule="evenodd" class="a" d="m-83.1 90.2h-38v-18.2h38zm-36.2-2.1h34.4v-13.9h-34.4z"/><path class="a" d="m-116.9 309h-1.8v-46.3h1.8z"/><path class="a" d="m-111.7 309h-1.8v-46.3h1.8z"/><path class="a" d="m-106.4 309h-1.8v-46.3h1.8z"/><path class="a" d="m-101.2 309h-1.8v-46.3h1.8z"/><path class="a" d="m-96 309h-1.8v-46.3h1.8z"/><path class="a" d="m-90.8 309h-1.8v-46.3h1.8z"/><path class="a" d="m-85.6 309h-1.8v-46.3h1.8z"/><path class="a" d="m-101.2 73.1h-1.8v-68.7h1.8z"/><path fill-rule="evenodd" class="a" d="m-288.7 205.8c-6.4 0-12.9-2.5-17.8-7.4l-21.7-21.8c-9.9-9.8-9.9-25.8 0-35.6l21.7-21.7c4.8-4.8 11.1-7.4 17.8-7.4 6.7 0 13.1 2.6 17.8 7.4l21.8 21.7c9.8 9.8 9.8 25.8 0 35.6l-21.8 21.8c-4.9 4.9-11.3 7.4-17.8 7.4zm0-91.8c-6.2 0-11.9 2.4-16.3 6.8l-21.8 21.7c-4.3 4.4-6.7 10.2-6.7 16.3 0 6.2 2.4 12 6.7 16.4l21.8 21.7c4.4 4.4 10.1 6.8 16.3 6.8 6.2 0 12-2.4 16.3-6.8l21.8-21.7c4.3-4.4 6.7-10.2 6.7-16.4 0-6.1-2.4-11.9-6.7-16.3l-21.8-21.7c-4.3-4.4-10.1-6.8-16.3-6.8z"/><path fill-rule="evenodd" class="a" d="m-288.7 194.3c-4.5 0-8.8-1.7-12-4.9l-18.5-18.6c-3.2-3.2-5-7.4-5-12 0-4.5 1.8-8.8 5-12l18.5-18.5c3.2-3.2 7.5-5 12-5 4.5 0 8.8 1.8 12 5l18.5 18.5c3.2 3.2 5 7.5 5 12 0 4.6-1.8 8.8-5 12l-18.5 18.6c-3.2 3.2-7.5 4.9-12 4.9zm0-68.9c-3.8 0-7.6 1.5-10.5 4.4l-18.5 18.5c-2.8 2.8-4.4 6.6-4.4 10.5 0 4 1.6 7.7 4.4 10.5l18.5 18.6c5.8 5.8 15.2 5.8 21 0l18.6-18.6c2.8-2.8 4.3-6.5 4.3-10.5 0-3.9-1.5-7.7-4.3-10.5l-18.6-18.5c-2.9-2.9-6.7-4.4-10.5-4.4z"/><path fill-rule="evenodd" class="a" d="m-288.7 113.4c-10.3 0-18.7-8.4-18.7-18.8 0-10.3 8.4-18.7 18.7-18.7 10.3 0 18.7 8.4 18.7 18.7 0 10.4-8.4 18.8-18.7 18.8zm0-35.4c-9.2 0-16.6 7.5-16.6 16.6 0 9.2 7.4 16.7 16.6 16.7 9.2 0 16.6-7.5 16.6-16.7 0-9.1-7.4-16.6-16.6-16.6z"/><path fill-rule="evenodd" class="a" d="m-288.7 105.9c-6.2 0-11.2-5.1-11.2-11.3 0-6.2 5-11.2 11.2-11.2 6.2 0 11.3 5 11.3 11.2 0 6.2-5.1 11.3-11.3 11.3zm0-20.4c-5 0-9.1 4.1-9.1 9.1 0 5.1 4.1 9.2 9.1 9.2 5.1 0 9.2-4.1 9.2-9.2 0-5-4.1-9.1-9.2-9.1z"/><path fill-rule="evenodd" class="a" d="m-288.7 241.1c-10.3 0-18.7-8.4-18.7-18.7 0-10.3 8.4-18.7 18.7-18.7 10.3 0 18.7 8.4 18.7 18.7 0 10.3-8.4 18.7-18.7 18.7zm0-35.3c-9.2 0-16.6 7.4-16.6 16.6 0 9.2 7.4 16.6 16.6 16.6 9.2 0 16.6-7.4 16.6-16.6 0-9.2-7.4-16.6-16.6-16.6z"/><path fill-rule="evenodd" class="a" d="m-288.7 233.7c-6.2 0-11.2-5.1-11.2-11.3 0-6.2 5-11.2 11.2-11.2 6.2 0 11.3 5 11.3 11.2 0 6.2-5.1 11.3-11.3 11.3zm0-20.4c-5 0-9.1 4.1-9.1 9.1 0 5.1 4.1 9.2 9.1 9.2 5.1 0 9.2-4.1 9.2-9.2 0-5-4.1-9.1-9.2-9.1z"/><path fill-rule="evenodd" class="a" d="m-224.8 177.2c-10.3 0-18.7-8.4-18.7-18.7 0-10.3 8.4-18.7 18.7-18.7 10.3 0 18.7 8.4 18.7 18.7 0 10.3-8.4 18.7-18.7 18.7zm0-35.3c-9.2 0-16.6 7.4-16.6 16.6 0 9.2 7.4 16.6 16.6 16.6 9.2 0 16.6-7.4 16.6-16.6 0-9.2-7.4-16.6-16.6-16.6z"/><path fill-rule="evenodd" class="a" d="m-224.8 169.8c-6.2 0-11.2-5.1-11.2-11.3 0-6.2 5-11.2 11.2-11.2 6.2 0 11.2 5 11.2 11.2 0 6.2-5 11.3-11.2 11.3zm0-20.4c-5 0-9.1 4.1-9.1 9.1 0 5.1 4.1 9.2 9.1 9.2 5 0 9.1-4.1 9.1-9.2 0-5-4.1-9.1-9.1-9.1z"/><path fill-rule="evenodd" class="a" d="m-352.6 177.2c-10.3 0-18.7-8.4-18.7-18.7 0-10.3 8.4-18.7 18.7-18.7 10.3 0 18.7 8.4 18.7 18.7 0 10.3-8.4 18.7-18.7 18.7zm0-35.3c-9.2 0-16.6 7.4-16.6 16.6 0 9.2 7.4 16.6 16.6 16.6 9.2 0 16.6-7.4 16.6-16.6 0-9.2-7.4-16.6-16.6-16.6z"/><path fill-rule="evenodd" class="a" d="m-352.6 169.8c-6.2 0-11.2-5.1-11.2-11.3 0-6.2 5-11.2 11.2-11.2 6.2 0 11.3 5 11.3 11.2 0 6.2-5.1 11.3-11.3 11.3zm0-20.4c-5 0-9.1 4.1-9.1 9.1 0 5.1 4.1 9.2 9.1 9.2 5.1 0 9.2-4.1 9.2-9.2 0-5-4.1-9.1-9.2-9.1z"/><path class="a" d="m-260.6 186.3l-57.6-54 1.4-1.6 57.7 54.1z"/><path class="a" d="m-316.8 186.3l-1.4-1.5 57.6-54.1 1.5 1.6z"/><path class="a" d="m-273.4 158.8c0 8.6-7 15.6-15.6 15.6-8.6 0-15.6-7-15.6-15.6 0-8.6 7-15.5 15.6-15.5 8.6 0 15.6 6.9 15.6 15.5z"/><path class="a" d="m-333.3 151.2q0.1-0.7 0.2-1.4c0.3-1 0.7-1.9 1.1-2.8 0.8-1.5 1.8-2.8 2.9-4.1 1.6-1.7 3.4-3.5 5.6-4.6q0.4-0.6 0.9-1.3c-1.8-1.9-4.2-3.1-7-3.1-5.2 0-9.3 4.2-9.3 9.3 0 3.8 2.2 7.1 5.5 8.5q0-0.2 0.1-0.5z"/><path class="a" d="m-322.8 137.2c2.4-3.2 5.7-6 8.2-8.7 1.6-1.7 3.2-3.1 5-4.5-1.7-1.9-4.2-3.1-7-3.1-5.1 0-9.3 4.1-9.3 9.3 0 2.8 1.2 5.3 3.1 7z"/><path class="a" d="m-296.8 114.7c0.5-0.5 1.2-0.9 1.9-1.1-1.4-3.4-4.7-5.8-8.6-5.8-5.2 0-9.4 4.2-9.4 9.4 0 2.8 1.2 5.2 3.1 6.9q1.5-1.2 3-2.3c2.5-3.3 6.1-5.6 10-7.1z"/><path class="a" d="m-244.1 151.2q-0.1-0.7-0.2-1.4c-0.2-1-0.6-1.9-1.1-2.8-0.8-1.5-1.8-2.8-2.9-4.1-1.5-1.7-3.4-3.5-5.6-4.6q-0.4-0.6-0.8-1.3c1.7-1.9 4.1-3.1 6.9-3.1 5.2 0 9.4 4.2 9.4 9.3 0 3.8-2.3 7.1-5.5 8.5q-0.1-0.2-0.2-0.5z"/><path class="a" d="m-254.6 137.2c-2.3-3.2-5.7-6-8.2-8.7-1.5-1.7-3.2-3.1-4.9-4.5 1.7-1.9 4.1-3.1 6.9-3.1 5.2 0 9.3 4.1 9.3 9.3 0 2.8-1.2 5.3-3.1 7z"/><path class="a" d="m-280.5 114.7c-0.6-0.5-1.3-0.9-2-1.1 1.4-3.4 4.8-5.8 8.7-5.8 5.1 0 9.3 4.2 9.3 9.4 0 2.8-1.2 5.2-3.1 6.9q-1.5-1.2-3-2.3c-2.5-3.3-6.1-5.6-9.9-7.1z"/><path class="a" d="m-333.3 165.8q0.1 0.7 0.2 1.5c0.3 0.9 0.7 1.9 1.1 2.8 0.8 1.5 1.8 2.8 2.9 4 1.6 1.8 3.4 3.5 5.6 4.6q0.4 0.7 0.9 1.3c-1.8 1.9-4.2 3.2-7 3.2-5.2 0-9.3-4.2-9.3-9.4 0-3.8 2.2-7 5.5-8.5q0 0.2 0.1 0.5z"/><path class="a" d="m-322.8 179.9c2.4 3.2 5.7 5.9 8.2 8.6 1.6 1.7 3.2 3.2 5 4.5-1.7 2-4.2 3.2-7 3.2-5.1 0-9.3-4.2-9.3-9.4 0-2.8 1.2-5.2 3.1-6.9z"/><path class="a" d="m-296.8 202.3c0.5 0.6 1.2 0.9 1.9 1.1-1.4 3.4-4.7 5.8-8.6 5.8-5.2 0-9.4-4.2-9.4-9.3 0-2.8 1.2-5.3 3.1-7q1.5 1.2 3 2.3c2.5 3.3 6.1 5.7 10 7.1z"/><path class="a" d="m-244.1 165.8q-0.1 0.7-0.2 1.5c-0.2 0.9-0.6 1.9-1.1 2.8-0.8 1.5-1.8 2.8-2.9 4-1.5 1.8-3.4 3.5-5.6 4.6q-0.4 0.7-0.8 1.3c1.7 1.9 4.1 3.2 6.9 3.2 5.2 0 9.4-4.2 9.4-9.4 0-3.8-2.3-7-5.5-8.5q-0.1 0.2-0.2 0.5z"/><path class="a" d="m-254.6 179.9c-2.3 3.2-5.7 5.9-8.2 8.6-1.5 1.7-3.2 3.2-4.9 4.5 1.7 2 4.1 3.2 6.9 3.2 5.2 0 9.3-4.2 9.3-9.4 0-2.8-1.2-5.2-3.1-6.9z"/><path class="a" d="m-280.5 202.3c-0.6 0.6-1.3 0.9-2 1.1 1.4 3.4 4.8 5.8 8.7 5.8 5.1 0 9.3-4.2 9.3-9.3 0-2.8-1.2-5.3-3.1-7q-1.5 1.2-3 2.3c-2.5 3.3-6.1 5.7-9.9 7.1z"/><path class="a" d="m-287.6 76.9h-2.1v-72.5h2.1z"/><path class="a" d="m-287.6 246.8h-2.1v-6.7h2.1z"/><path fill-rule="evenodd" class="a" d="m-266.6 263.8h-44.2v-18.2h44.2zm-42.1-2.1h40v-14h-40z"/><path class="a" d="m-305.8 309h-2.1v-46.3h2.1z"/><path class="a" d="m-299.8 309h-2.1v-46.3h2.1z"/><path class="a" d="m-293.7 309h-2.1v-46.3h2.1z"/><path class="a" d="m-287.6 309h-2.1v-46.3h2.1z"/><path class="a" d="m-281.6 309h-2.1v-46.3h2.1z"/><path class="a" d="m-275.5 309h-2.1v-46.3h2.1z"/><path class="a" d="m-269.5 309h-2.1v-46.3h2.1z"/><path fill-rule="evenodd" class="a" d="m102 175.9l-21.7 21.7c-9.4 9.5-24.7 9.5-34.2 0l-21.7-21.7c-9.4-9.4-9.4-24.7 0-34.1l21.7-21.8c9.5-9.4 24.8-9.4 34.2 0l21.7 21.8c9.5 9.4 9.5 24.7 0 34.1zm-3.3-17.1c0-4.5-1.8-8.8-5-12l-18.5-18.5c-3.2-3.2-7.5-5-12-5-4.5 0-8.8 1.8-12 5l-18.5 18.5c-3.2 3.2-5 7.5-5 12 0 4.6 1.8 8.8 5 12l18.5 18.6c3.2 3.2 7.5 4.9 12 4.9 4.5 0 8.8-1.7 12-4.9l18.5-18.6c3.2-3.2 5-7.4 5-12z"/><path fill-rule="evenodd" class="a" d="m92.3 148.3c2.8 2.8 4.3 6.6 4.3 10.5 0 4-1.5 7.7-4.3 10.5l-18.6 18.6c-5.8 5.8-15.2 5.8-21 0l-18.5-18.6c-2.8-2.8-4.4-6.5-4.4-10.5 0-3.9 1.6-7.7 4.4-10.5l18.5-18.5c2.9-2.9 6.7-4.4 10.5-4.4 3.8 0 7.6 1.5 10.5 4.4zm-13.8 10.5c0-8.6-7-15.6-15.6-15.6-8.6 0-15.5 7-15.5 15.6 0 8.6 6.9 15.6 15.5 15.6 8.6 0 15.6-7 15.6-15.6z"/><path fill-rule="evenodd" class="a" d="m19.1 153.1l-1.1-0.4c-3.7-1.7-6.1-5.4-6.1-9.5 0-5.7 4.7-10.4 10.4-10.4 2.9 0 5.8 1.3 7.7 3.5l0.6 0.7-0.5 0.6q-0.4 0.6-0.8 1.3l-0.2 0.2-0.2 0.1c-1.8 0.9-3.5 2.4-5.3 4.4-0.9 1-2 2.4-2.7 3.8q-0.8 1.4-1.1 2.6c0 0.4-0.1 0.7-0.1 1.1l-0.1 0.6q-0.1 0.1-0.1 0.2zm3.2-18.1c-4.6 0-8.3 3.7-8.3 8.3 0 2.8 1.4 5.4 3.7 6.9q0-0.3 0-0.5c0.3-1.1 0.7-2.1 1.3-3.1 0.8-1.7 2-3.2 3-4.3 1.8-2.1 3.7-3.7 5.6-4.7q0.1-0.2 0.3-0.4c-1.6-1.4-3.5-2.2-5.6-2.2z"/><path fill-rule="evenodd" class="a" d="m29.3 138.7l-0.9-0.7c-2.2-2-3.5-4.9-3.5-7.8 0-5.7 4.7-10.4 10.4-10.4 3 0 5.8 1.3 7.8 3.5l0.7 0.8-0.9 0.7c-2 1.6-3.5 3-4.8 4.4-0.9 1-1.9 2-3 3-1.8 1.8-3.7 3.6-5.1 5.6zm6-16.8c-4.6 0-8.3 3.7-8.3 8.3 0 1.9 0.7 3.8 2 5.3 1.4-1.7 3.1-3.3 4.6-4.8 1.1-1 2-2 2.9-2.9 1.2-1.3 2.5-2.6 4.2-3.9-1.5-1.3-3.4-2-5.4-2z"/><path fill-rule="evenodd" class="a" d="m42.1 125.5l-0.7-0.6c-2.2-2-3.4-4.8-3.4-7.7 0-5.8 4.6-10.4 10.4-10.4 4.2 0 8 2.5 9.6 6.4l0.4 1.1-1.1 0.3q-0.9 0.3-1.5 0.9l-0.4 0.2c-4 1.5-7.3 3.9-9.4 6.8l-0.2 0.2q-1.5 1.1-3 2.2zm6.2-16.6c-4.5 0-8.3 3.8-8.3 8.3 0 2.1 0.8 4 2.2 5.6q1.1-0.9 2.2-1.7c2.3-3 5.8-5.6 10.1-7.3q0.5-0.4 1.1-0.7c-1.5-2.6-4.2-4.2-7.3-4.2z"/><path fill-rule="evenodd" class="a" d="m107.3 153.2l-0.3-1.1c-0.1-0.3-0.1-0.4-0.2-0.4l-0.1-0.6q0-0.6-0.1-1.1-0.3-1.1-1-2.6c-0.8-1.4-1.9-2.8-2.8-3.8-1.8-2-3.5-3.5-5.2-4.4l-0.3-0.1-0.1-0.2q-0.4-0.7-0.9-1.3l-0.5-0.6 0.6-0.7c2-2.2 4.8-3.5 7.7-3.5 5.7 0 10.4 4.7 10.4 10.4 0 4.1-2.4 7.8-6.1 9.5zm-8.6-15.7c1.9 1 3.8 2.6 5.7 4.7 0.9 1.1 2.1 2.6 3 4.3q0.8 1.6 1.2 3.1 0 0.3 0.1 0.5c2.3-1.5 3.7-4.1 3.7-6.8 0-4.6-3.8-8.4-8.3-8.4-2.1 0-4.1 0.8-5.6 2.2q0.1 0.2 0.2 0.4z"/><path fill-rule="evenodd" class="a" d="m97.1 138.7l-0.7-0.9c-1.4-2-3.3-3.8-5.1-5.6-1-1-2.1-2-3-3-1.3-1.4-2.8-2.8-4.8-4.4l-0.9-0.7 0.8-0.8c1.9-2.2 4.8-3.5 7.7-3.5 5.7 0 10.4 4.7 10.4 10.4 0 2.9-1.3 5.8-3.5 7.8zm-11.4-14.8c1.6 1.3 3 2.6 4.2 3.8 0.8 1 1.8 2 2.8 2.9 1.6 1.6 3.2 3.2 4.6 4.9 1.3-1.5 2.1-3.4 2.1-5.4 0-4.5-3.8-8.3-8.3-8.3-2 0-3.9 0.7-5.4 2.1z"/><path fill-rule="evenodd" class="a" d="m84.3 125.5l-0.7-0.6q-1.4-1.1-2.9-2.2l-0.3-0.2c-2.1-2.9-5.3-5.3-9.4-6.8l-0.4-0.2q-0.6-0.6-1.5-0.9l-1.1-0.3 0.5-1.1c1.6-3.9 5.3-6.4 9.6-6.4 5.7 0 10.4 4.6 10.4 10.4 0 2.9-1.3 5.7-3.5 7.7zm-2.3-4.4q1.1 0.8 2.2 1.6c1.4-1.5 2.1-3.4 2.1-5.5 0-4.6-3.7-8.3-8.3-8.3-3 0-5.7 1.6-7.2 4.2q0.6 0.3 1.1 0.7c4.3 1.7 7.8 4.2 10.1 7.3z"/><path fill-rule="evenodd" class="a" d="m22.3 184.2c-5.7 0-10.4-4.7-10.4-10.4 0-4.1 2.4-7.8 6.1-9.5l1.1-0.4 0.4 1.1c0 0.2 0.1 0.3 0.1 0.4l0.1 0.5q0.1 0.6 0.1 1.2 0.3 1.1 1.1 2.5c0.7 1.5 1.8 2.8 2.7 3.8 1.8 2.1 3.5 3.5 5.3 4.4l0.2 0.1 0.2 0.3q0.4 0.6 0.8 1.2l0.5 0.7-0.6 0.6c-1.9 2.2-4.8 3.5-7.7 3.5zm-4.6-17.3c-2.3 1.5-3.7 4.1-3.7 6.9 0 4.6 3.7 8.3 8.3 8.3 2.1 0 4.1-0.8 5.6-2.2q-0.1-0.2-0.3-0.4c-1.8-1-3.7-2.6-5.6-4.7-0.9-1.1-2.1-2.6-3-4.2q-0.8-1.7-1.2-3.1-0.1-0.3-0.1-0.6z"/><path fill-rule="evenodd" class="a" d="m35.3 197.2c-5.7 0-10.4-4.6-10.4-10.4 0-2.9 1.3-5.7 3.5-7.7l0.9-0.8 0.7 0.9c1.4 2 3.3 3.9 5.1 5.6 1.1 1 2.1 2 3 3 1.3 1.4 2.8 2.8 4.8 4.4l0.9 0.7-0.7 0.8c-2 2.3-4.8 3.5-7.8 3.5zm-6.3-15.7c-1.2 1.5-2 3.4-2 5.3 0 4.6 3.8 8.3 8.3 8.3 2 0 3.9-0.7 5.4-2-1.6-1.3-3-2.6-4.2-3.9-0.8-0.9-1.8-1.9-2.8-2.9-1.6-1.5-3.3-3.1-4.7-4.8z"/><path fill-rule="evenodd" class="a" d="m48.4 210.3c-5.8 0-10.4-4.7-10.4-10.4 0-3 1.2-5.8 3.4-7.8l0.7-0.5 0.7 0.5q1.5 1.2 3 2.3l0.2 0.2c2.1 2.8 5.4 5.2 9.4 6.8l0.4 0.2q0.6 0.5 1.5 0.8l1.1 0.3-0.4 1.1c-1.6 3.9-5.4 6.5-9.6 6.5zm-6.2-16c-1.4 1.5-2.1 3.5-2.1 5.6 0 4.5 3.7 8.3 8.3 8.3 3 0 5.7-1.7 7.2-4.2q-0.6-0.3-1.1-0.7c-4.3-1.7-7.8-4.3-10.1-7.3q-1.1-0.8-2.2-1.7z"/><path fill-rule="evenodd" class="a" d="m104.1 184.2c-2.9 0-5.7-1.3-7.7-3.5l-0.6-0.6 0.5-0.7q0.5-0.6 0.9-1.2l0.1-0.3 0.3-0.1c1.7-0.9 3.4-2.3 5.2-4.4 0.9-1 2-2.3 2.8-3.8q0.7-1.4 1-2.6c0-0.3 0.1-0.7 0.1-1.1l0.1-0.5q0.1-0.2 0.1-0.3l0.4-1.1 1.1 0.3c3.7 1.7 6.1 5.4 6.1 9.5 0 5.7-4.7 10.4-10.4 10.4zm-5.6-4.3c1.6 1.4 3.5 2.2 5.6 2.2 4.6 0 8.3-3.7 8.3-8.3 0-2.8-1.4-5.4-3.7-6.9q0 0.3-0.1 0.5c-0.2 1.1-0.6 2.1-1.2 3.2-0.8 1.6-2.1 3.1-3 4.2-1.9 2.1-3.7 3.7-5.6 4.7q-0.1 0.2-0.3 0.4z"/><path fill-rule="evenodd" class="a" d="m91.1 197.2c-2.9 0-5.8-1.2-7.7-3.5l-0.8-0.8 0.9-0.7c2-1.6 3.5-3 4.8-4.4 0.9-1 2-2 3-3 1.8-1.7 3.7-3.6 5.1-5.6l0.7-0.9 0.9 0.8c2.2 2 3.5 4.8 3.5 7.7 0 5.8-4.7 10.4-10.4 10.4zm-5.4-4.1c1.5 1.3 3.4 2 5.4 2 4.6 0 8.3-3.7 8.3-8.3 0-1.9-0.7-3.8-2-5.3-1.4 1.7-3.1 3.3-4.6 4.8-1 1-2 2-2.9 2.9-1.2 1.3-2.5 2.6-4.2 3.9z"/><path fill-rule="evenodd" class="a" d="m78.1 210.3c-4.3 0-8-2.6-9.6-6.5l-0.5-1.1 1.1-0.3q0.9-0.3 1.5-0.8l0.4-0.2c4.1-1.6 7.3-4 9.4-6.8l0.3-0.2q1.5-1.1 2.9-2.3l0.7-0.5 0.7 0.5c2.2 2 3.5 4.8 3.5 7.8 0 5.7-4.7 10.4-10.4 10.4zm-7.2-6.3c1.4 2.5 4.1 4.2 7.2 4.2 4.5 0 8.3-3.8 8.3-8.3 0-2.1-0.8-4.1-2.2-5.6q-1.1 0.9-2.2 1.7c-2.3 3-5.8 5.6-10.1 7.3q-0.5 0.4-1 0.7z"/><path class="a" d="m64.3 47.4v-43h-2.1v43z"/><path class="a" d="m64.3 64.9v-5.7h-2.1v5.7z"/><path class="a" d="m62.2 89.4v9.4h2.1v-9.4z"/><path class="a" d="m64.3 246.8h-2.1v-29.2h2.1z"/><path class="a" d="m13.8 168.9l-11.8-10.4 11.8-10.9 1.4 1.5-10 9.4 10 8.8z"/><path class="a" d="m112.2 168.9l-1.4-1.6 10-8.8-10-9.4 1.4-1.5 11.8 10.9z"/><path class="a" d="m53.9 110.4l-1.6-1.4 10.9-12.1 10.5 12.1-1.6 1.4-8.9-10.4z"/><path class="a" d="m63.2 219.2l-10.8-11.8 1.5-1.4 9.3 10 8.9-10 1.6 1.4z"/><path class="a" d="m73.3 280.6v-24.5c0-5.6-4.5-10.1-10.1-10.1-5.6 0-10.1 4.5-10.1 10.1v24.5z"/><path class="a" d="m55.8 308.4h-1.5v-30.4h1.5z"/><path class="a" d="m58.6 308.4h-1.5v-30.4h1.5z"/><path class="a" d="m61.4 308.4h-1.5v-30.4h1.5z"/><path class="a" d="m64.2 308.4h-1.6v-30.4h1.6z"/><path class="a" d="m66.9 308.4h-1.5v-30.4h1.5z"/><path class="a" d="m69.7 308.4h-1.5v-30.4h1.5z"/><path class="a" d="m72.5 308.4h-1.5v-30.4h1.5z"/><path fill-rule="evenodd" class="a" d="m63.2 89.8c-7.1 0-12.9-5.7-12.9-12.9 0-7.1 5.8-12.9 12.9-12.9 7.1 0 12.9 5.8 12.9 12.9 0 7.2-5.8 12.9-12.9 12.9zm0-23.7c-5.9 0-10.8 4.9-10.8 10.8 0 6 4.9 10.8 10.8 10.8 6 0 10.8-4.8 10.8-10.8 0-5.9-4.8-10.8-10.8-10.8z"/><path fill-rule="evenodd" class="a" d="m63.2 83.9c-1.8 0-3.6-0.7-4.9-2-1.3-1.3-2.1-3.1-2.1-5 0-1.8 0.8-3.6 2.1-4.9 2.7-2.7 7.1-2.7 9.8 0 1.4 1.3 2.1 3.1 2.1 4.9 0 1.9-0.7 3.7-2.1 5-1.3 1.3-3.1 2-4.9 2zm0-11.8c-1.2 0-2.5 0.5-3.4 1.4-1 0.9-1.5 2.1-1.5 3.4 0 1.3 0.5 2.6 1.5 3.5 1.9 1.9 5 1.9 6.9 0 0.9-0.9 1.4-2.2 1.4-3.5 0-1.3-0.5-2.5-1.4-3.4-1-0.9-2.2-1.4-3.5-1.4z"/><path fill-rule="evenodd" class="a" d="m63.2 60.5c-1.8 0-3.6-0.7-4.9-2.1-1.3-1.3-2.1-3-2.1-4.9 0-1.9 0.8-3.6 2.1-4.9 2.7-2.7 7.1-2.7 9.8 0 1.4 1.3 2.1 3 2.1 4.9 0 1.9-0.7 3.6-2.1 4.9-1.3 1.4-3.1 2.1-4.9 2.1zm0-11.9c-1.2 0-2.5 0.5-3.4 1.5-1 0.9-1.5 2.1-1.5 3.4 0 1.3 0.5 2.5 1.5 3.4 1.9 1.9 5 1.9 6.9 0 0.9-0.9 1.4-2.1 1.4-3.4 0-1.3-0.5-2.5-1.4-3.4-1-1-2.2-1.5-3.5-1.5z"/><path class="a" d="m248.5 289.2v-12.3c0-5.5-4.6-10.1-10.1-10.1-5.6 0-10.1 4.6-10.1 10.1v12.3z"/><path class="a" d="m231 308v-21.4h-1.5v21.4z"/><path class="a" d="m233.8 308v-21.4h-1.5v21.4z"/><path class="a" d="m236.6 308v-21.4h-1.6v21.4z"/><path class="a" d="m239.3 308v-21.4h-1.5v21.4z"/><path class="a" d="m242.1 308v-21.4h-1.5v21.4z"/><path class="a" d="m244.9 308v-21.4h-1.6v21.4z"/><path class="a" d="m247.6 308v-21.4h-1.5v21.4z"/><path class="a" d="m239.4 119.4v-13.3q-1 0.3-2.1 0.2v13.9q1-0.6 2.1-0.8z"/><path class="a" d="m239.4 218.7v-16q-1 0.4-2.1 0.5v15.5q1.1-0.1 2.1 0z"/><path class="a" d="m237.3 252.7v22.9h2.1v-22.7q-1 0-2.1-0.2z"/><path class="a" d="m239.4 50v-45.6h-2.1v45.9q1-0.4 2.1-0.3z"/><path fill-rule="evenodd" class="a" d="m261.1 76.9l-22.7 22.8-22.8-22.8 22.8-22.7zm-22.8 15.5l15.6-15.5-15.6-15.6-15.6 15.6z"/><path class="a" d="m238.4 64.3l-12.6 12.6 12.6 12.7 12.6-12.7z"/><path fill-rule="evenodd" class="a" d="m272.4 76.9l-34 34.1-34.1-34.1 34.1-34zm-8.3 0l-25.8-25.7-25.7 25.7 25.7 25.7z"/><path fill-rule="evenodd" class="a" d="m253.1 236.1l-14.7 14.7-14.8-14.7 14.8-14.7zm-14.8 10l10.1-10-10.1-10.1-10 10.1z"/><path class="a" d="m238.4 227.9l-8.2 8.2 8.2 8.2 8.1-8.2z"/><path fill-rule="evenodd" class="a" d="m260.4 236.1l-22 22-22.1-22 22.1-22zm-5.4 0l-16.7-16.7-16.6 16.7 16.6 16.6z"/><path fill-rule="evenodd" class="a" d="m272.4 161.8l-34 34-34-34 34-34zm-34 23.3l23.2-23.3-23.2-23.2-23.3 23.2z"/><path class="a" d="m238.4 143l-18.8 18.8 18.8 18.8 18.8-18.8z"/><path fill-rule="evenodd" class="a" d="m289.2 161.8l-50.8 50.9-50.8-50.9 50.8-50.8zm-12.4 0l-38.4-38.4-38.5 38.4 38.5 38.4z"/></svg>