<svg version="1.2" xmlns="http://www.w3.org/2000/svg" viewBox="0 0 144 245" width="144" height="245"><style>.a{fill:#d3373b}.b{fill:#f2dcad}.c{fill:#fff}.d{fill:#14386c}</style><path fill-rule="evenodd" class="a" d="m-264.9-240.6c-10.4 10.3-25.8 13.7-40.4 14.7-14.6 0.9-29.5 0-43.7 3.7-9.4 2.4-18.3 6.8-25.9 12.9-7.2 5.7-13.1 12.8-20.2 18.5-6.4 5.3-13.8 9.4-21.5 12.2-14.5 5.2-31.9 5.3-44-4.1-8.1-6.4-13-16.5-13.6-26.7-0.5-10.3 3-20.6 9.1-28.9 12.3-16.6 36.2-24 55.3-15.4-6.7-16.4-6.3-36.6 4.5-50.6 9.7-12.6 27.1-18.6 42.5-14.7 15.3 4 27.7 17.6 30.9 32.9 7.7-13.5 23-22.3 38.5-21.9 15.5 0.4 30.5 10.2 36.6 24.4 6.1 14.3 2.9 32.1-8.1 43zm-138.2 33.3c-11.2-3.6-20.9-11.7-32-16.4-3.8-1.6-8.8-2.6-11.7 0.4-2.6 2.6-2 7.3 0.5 10.1 2.4 2.8 6.2 4.1 9.8 4.9 10.9 2.4 22.2 1.7 33.4 1zm41.1-31.3c-0.8-14.1-2.3-28.5-5.9-42.4-0.9-3.5-2.5-7.6-6-8.4-3.2-0.8-6.5 1.7-7.6 4.8-1.1 3.1-0.7 6.5 0 9.7 2.9 13.6 9.8 26.3 19.5 36.3zm76-42.2c-1.6-0.6-3.4-0.3-4.9 0.2-6.4 2.2-10.7 8.1-13.8 14-3.4 6.7-6 13.9-7.5 21.2 8.5-5.3 17-12.4 24.6-20.5 2-2.1 4.1-4.5 4.8-7.4 0.7-2.9-0.5-6.4-3.2-7.5z"/><path class="b" d="m-288-220.9c-1.1-0.1-2 0.8-2.1 1.9-0.2 9-8.1 15.6-14.8 18.5-8.9 3.8-19.2 4-28.2 0.8 4.8-5.1 7.7-11.6 7.6-18.3 0-1.1-1-2-2.1-2-1.1 0.1-1.9 1-1.9 2.1 0.1 8.9-6.5 18-15.9 21.6-8.3 3.2-18.8 2.5-28.6-1.9-1-0.4-2.2 0-2.6 1-0.5 1 0 2.2 1 2.7 3.9 1.8 8 3 12 3.6-0.4 3.7-2.5 7.4-5.7 10.4-3.8 3.4-8.7 5.5-12.5 7-3.6 1.4-8.3 3-13.1 3.1-4.8 0.1-9-1.3-11.8-3.9-0.9-0.8-2.1-0.7-2.9 0.1-0.7 0.8-0.6 2.1 0.2 2.8 3.5 3.2 8.5 5 14 5q0.3 0 0.5 0c5.5-0.2 10.6-1.9 14.5-3.4 4.2-1.5 9.5-3.9 13.8-7.8 4-3.6 6.5-8.2 7-12.8q1.5 0.1 2.9 0.1c4.5 0 8.8-0.7 12.8-2.3 2.7-1 5.2-2.4 7.4-4.1 5.2 2.2 10.8 3.3 16.4 3.3 5.8 0 11.5-1.2 16.8-3.5 7.7-3.3 16.9-11.1 17.2-22 0.1-1.1-0.8-2-1.9-2z"/><path fill-rule="evenodd" class="a" d="m-359.2 349.2c-1.4 1.3-3.1 2.4-4.7 3.2-3.3 1.7-6.8 2.9-10.4 3.1-3.7 0.1-7.4-0.8-10.3-2.9-4.9-3.5-7-9.5-8.8-15.2q-3.4-10.5-6.7-21.1c-1.6 8.5-4.2 16.7-7.5 24.6-1.6 3.6-3.3 7.1-6.1 9.8-4 4-10.1 5.7-15.7 4.6-5.6-1-10.6-4.7-13.6-9.6-1-1.7-1.8-3.6-2.3-5.5-0.9-4.1-0.2-8.6 1.9-12.2 2-3.5 5.2-6.1 8.7-8 3.6-2 7.4-3.3 11.2-4.6 5.4-1.8 10.9-3.6 16.4-5.6-6.5-1.7-12.9-3.4-19.3-5.5-2.9-1-5.9-2-8.5-3.7-4.3-2.6-7.7-6.8-9.1-11.7-1.4-4.9-0.6-10.4 2.2-14.6 1.6-2.3 3.8-4.3 6.3-5.8 4.7-2.9 10.8-4.3 16-2.2 5.6 2.2 9.1 7.9 11.7 13.5 3.7 7.8 6.5 16.1 8.4 24.6q1.8-9.1 4.7-17.8c1.6-4.9 3.5-9.8 6.6-13.9 1.5-1.9 3.3-3.6 5.5-4.9 1.8-1 3.8-1.6 5.8-2 2.1-0.5 4.4-0.6 6.5-0.4 7.4 0.8 14 6.6 15.7 13.8 1.7 7.2-1.5 15.3-7.7 19.4-2.5 1.6-5.4 2.6-8.2 3.5-7.5 2.6-15 5.2-22.4 7.9 6.8 1.5 13.7 3.2 20.3 5.7 4.3 1.6 8.4 3.5 11.8 6.5 3.8 3.4 6.3 8.2 6.7 13.2 0.4 5.1-1.4 10.3-5.1 13.8zm-21.4-21.2l-17.1-17.5q8.6-8.7 16.9-17.7c0.4-0.4 0.4-1-0.1-1.4-0.4-0.4-1-0.3-1.4 0.1q-8.3 8.9-16.8 17.6l-17.5-17.8c-0.4-0.4-1-0.4-1.4 0-0.4 0.3-0.4 1 0 1.4l17.5 17.8q-9 9.3-18.3 18.2c-0.4 0.4-0.4 1.1 0 1.5 0.2 0.2 0.5 0.3 0.7 0.3q0.4 0 0.7-0.3 9.3-9 18.3-18.2l17.1 17.4q0.3 0.3 0.7 0.3 0.4 0 0.7-0.3c0.4-0.4 0.4-1 0-1.4z"/><path class="b" d="m-394.2 360.1c-3-1.7-6.6-2.4-9.9-1.4-1.8 0.5-3.3 1.6-4.7 2.8-2.6 2.4-4.4 5.8-4.6 9.3-0.3 3.5 1.1 7.2 3.8 9.5 4.3 3.6 10.8 4.7 15.9 2 5-2.6 8-9 6.3-14.4-1.1-3.4-3.7-6.1-6.8-7.8zm-54.1-3.2c-2 2.3-4.1 4.5-6.2 6.7-0.4 0.4-0.4 1.1 0 1.5q0.3 0.2 0.7 0.2c0.2 0 0.5-0.1 0.7-0.3 2.1-2.2 4.3-4.5 6.3-6.7 0.4-0.4 0.4-1.1-0.1-1.4-0.4-0.4-1-0.4-1.4 0zm121-51.8c-2.7-5.1-9-8-14.5-6.3-3.3 1.1-6.1 3.7-7.8 6.8-1.6 3-2.4 6.6-1.3 9.9 0.5 1.8 1.5 3.3 2.8 4.7 2.4 2.6 5.7 4.4 9.3 4.6 3.5 0.3 7.2-1.1 9.4-3.8 3.6-4.4 4.8-10.9 2.1-15.9zm-24 53.1c-0.4-0.4-1-0.4-1.4 0-0.4 0.5-0.3 1.1 0.1 1.5 2.2 2 4.5 4.1 6.7 6.2q0.3 0.3 0.7 0.3c0.2 0 0.5-0.1 0.7-0.3 0.4-0.4 0.4-1 0-1.4-2.2-2.1-4.5-4.3-6.8-6.3zm-37.4-117.4c-4.4-3.6-10.9-4.7-15.9-2-5.1 2.6-8 9-6.3 14.4 1.1 3.4 3.7 6.1 6.8 7.8 3 1.7 6.6 2.4 9.9 1.4 1.8-0.6 3.3-1.6 4.7-2.8 2.6-2.5 4.4-5.8 4.6-9.3 0.3-3.6-1.1-7.2-3.8-9.5zm37.9 23.6c0.3 0 0.6-0.1 0.8-0.4 2-2.2 4.1-4.5 6.2-6.7 0.4-0.4 0.4-1 0-1.4-0.4-0.4-1-0.4-1.4 0-2.1 2.2-4.3 4.5-6.3 6.8-0.4 0.4-0.3 1 0.1 1.4q0.3 0.3 0.6 0.3zm-97.8 50.9c1.6-3 2.4-6.7 1.4-9.9-0.6-1.8-1.6-3.4-2.8-4.7-2.4-2.6-5.7-4.4-9.3-4.7-3.5-0.3-7.2 1.1-9.5 3.8-3.6 4.3-4.7 10.8-2.1 15.9 2.6 5 9 8 14.4 6.3 3.4-1 6.2-3.6 7.9-6.7zm-3.4-60.4c-0.4-0.4-1-0.4-1.4 0-0.4 0.4-0.4 1.1 0 1.4 2.2 2.2 4.5 4.3 6.7 6.4q0.3 0.3 0.7 0.3c0.3 0 0.6-0.2 0.8-0.4 0.3-0.4 0.3-1-0.1-1.4-2.2-2-4.5-4.2-6.7-6.3z"/><path fill-rule="evenodd" class="a" d="m-327.9 503.9c-3.2 6.5-9 11.5-15.7 14.1 3.9 8.9 0.9 20-6.2 26.5-7.1 6.6-17.7 8.8-27.2 6.8 0.5 1.7-0.4 3.5-1.5 5-5.4 7.5-15 11.8-24.3 10.8-9.2-1-17.7-7.2-21.6-16.3-8.9 5.4-21.4 3.6-28.6-4-7.1-7.5-8-20.2-2-28.7-5.1 0-10-2.6-13.2-6.5-3.2-3.9-4.9-9-5.2-14.1-0.6-11.3 6.4-23.1 17.4-26-4.5-9.2-2.7-21.1 4.3-28.6 7.1-7.4 18.9-9.9 28.4-5.1 4.3-8.9 13.5-15.4 23.4-15.5 9.8-0.2 19.6 6.6 22.1 16.2 3.6-1.2 7.3-2.5 11.2-2.8 8.5-0.6 17.2 3.8 21.7 11.1 4.5 7.3 4.6 17 0.5 24.4 7.1 0.6 13.7 5.4 16.8 11.9 3.1 6.4 2.8 14.3-0.3 20.8zm-36.1-8.3c0.1-1.1-0.8-2-1.9-2.1-9.5-0.4-19.1-0.7-28.7-0.8 6.8-6.9 13.7-13.7 20.7-20.3 0.8-0.8 0.8-2.1 0.1-2.9-0.8-0.8-2.1-0.8-2.9 0-6.9 6.5-13.6 13.2-20.3 19.9 0-9.5-0.1-19.1-0.4-28.6 0-1.1-1-1.9-2.1-1.9-1.1 0-1.9 1-1.9 2.1 0.3 9.6 0.4 19.3 0.4 29-6.7-7-13.5-13.9-20.4-20.6-0.8-0.7-2.1-0.7-2.9 0.1-0.7 0.8-0.7 2.1 0.1 2.8 6.8 6.6 13.5 13.4 20.1 20.3-9.3-0.1-18.7 0-27.9 0.2-1.1 0-2 0.9-2 2 0 1.1 0.9 2.1 2 2 9.3-0.2 18.6-0.3 28-0.2-6.6 6.8-13 13.7-19.3 20.6-0.7 0.9-0.7 2.1 0.2 2.9 0.3 0.3 0.8 0.5 1.3 0.5 0.5 0 1.1-0.3 1.5-0.7 6.2-6.9 12.6-13.8 19.2-20.5-0.2 9.8-0.5 19.7-1.1 29.5-0.1 1.1 0.8 2 1.9 2.1q0 0 0.1 0c1 0 1.9-0.8 2-1.9 0.5-9.7 0.9-19.4 1-29.2 6.2 6.6 12.2 13.3 18.1 20 0.4 0.5 0.9 0.7 1.5 0.7 0.5 0 0.9-0.1 1.3-0.5 0.8-0.7 0.9-1.9 0.2-2.8-6-7-12.3-13.8-18.6-20.6 9.6 0.1 19.1 0.4 28.6 0.8q0.1 0 0.1 0c1.1 0 2-0.8 2-1.9z"/><path fill-rule="evenodd" class="b" d="m-119.2 367.1c-1.7 4.2-5.3 9-10.5 10.4 5.1 9.8 5.2 22.3 0 32.1-5.4 10.3-16.3 17.4-27.8 18.3q-0.1 0-0.1 0-0.2 0-0.3-0.1c-3.1 3.3-6.8 5.8-10.8 7.1-2.3 0.8-4.8 1.2-7.3 1.2-6 0-11.9-2.3-15.9-6.5-3.5 4.4-8.9 7.2-14.5 7.3q-0.2 0-0.3 0c-5.7 0-11.2-2.7-14.7-7-10 5.4-23 5.6-33.3 0.3-10.5-5.3-18.2-15.9-20-27.7-0.8-4.7-0.6-9.2 0.6-13.2q0.3-1.2 0.8-2.2c-3.8-1.2-7.5-3.9-10.7-8.1-6.2-7.9-8.8-17.9-6.9-26.8 2.1-9.8 10-17.8 19.2-19.3 2.8-0.5 5.4-0.4 7.7 0.4q0.2 0.1 0.5 0.2c0.1-4.8 1.5-9.5 4-13.4 3.9-6.1 10.5-10.4 17.5-11.7q4.5-0.7 7.7 0.5c3.4-6.7 10.9-11.5 19.4-12.5 10.8-1.3 22.2 3.9 28.6 12.9 4.6-1.7 9.6-2.1 14.3-1 3.3 0.8 5.9 2.2 7.8 4.2 1.9 1.9 3 4.4 3.1 6.8 4-1.2 8.6-0.5 11.9 2.2 2 1.6 3.5 3.9 4.2 6.6 2.7 0.1 5.4 0.7 7.8 1.8 5 2.5 9.2 8.1 8 13.5 4.5 0.6 8.7 4.1 10.6 8.7 1.7 4.4 1.5 9.7-0.6 15zm-1.3-14.2c-1.7-4.4-5.9-7.5-10.1-7.6-0.3 0-0.6-0.2-0.8-0.5-0.2-0.3-0.2-0.6-0.1-0.9 1.9-4.6-2-9.9-6.6-12.2-2.3-1.1-5-1.7-7.6-1.7-4.2 0.1-7.9 1.7-10.2 4.4-0.2 0.3-0.5 0.4-0.9 0.4-4.1-0.7-8.5 0.4-12.2 3-6.4 4.6-9.3 13.6-6.8 21 2.5 7.5 10.3 12.9 18.1 12.7 7.9-0.3 15.3-6.2 17.4-13.7 1.1-4.2 0.3-9.5-3.4-11.7-2.9-1.7-6.5-0.9-8.8 0.4-2.5 1.3-4.1 3.3-4.3 5.4-0.1 1.1 0.3 2.4 1.2 3.3 0.7 0.7 1.5 1 2.3 1 0.6-0.1 1 0.3 1.1 0.9 0 0.5-0.4 1-0.9 1.1-1.5 0.1-2.8-0.5-3.9-1.6-1.3-1.3-2-3.2-1.8-5 0.3-2.7 2.3-5.2 5.3-6.9 3.7-2 7.8-2.1 10.8-0.3 4.8 2.8 5.6 9.2 4.3 13.9-2.2 8.4-10.5 14.9-19.2 15.2-8.7 0.3-17.3-5.8-20.1-14-2.8-8.3 0.5-18.3 7.6-23.3 3.9-2.8 8.6-4 13.1-3.5 2.4-2.6 5.9-4.2 9.9-4.6-0.6-2-1.8-3.8-3.4-5.1-3.1-2.4-7.7-3-11.3-1.2-0.4 0.1-0.8 0.1-1.1-0.1-0.3-0.3-0.4-0.6-0.3-1 0.4-2.3-0.5-4.9-2.4-6.8-1.6-1.7-4-2.9-6.9-3.6-4.1-1-8.6-0.7-12.7 0.7q0.7 1.1 1.3 2.4c5.5 11.5 2.4 26.3-7.1 34.6-5.1 4.4-11.9 6.7-18.6 6.7-5.9 0-11.7-1.8-16.5-5.2-3.2-2.5-5.6-5.4-7-8.7-3-7.4-0.1-17 6.9-22.8 4.4-3.6 9.6-5.2 14.3-4.5 5.1 0.8 9.7 4.6 11.8 9.5 1.9 4.4 1.7 10.5-2.4 13.7-4.1 3.2-9.6 2-13.2 0-0.4-0.3-0.6-0.9-0.3-1.4 0.2-0.4 0.8-0.6 1.3-0.3 3.2 1.8 7.9 2.5 10.9 0.2 3.3-2.6 3.4-7.8 1.9-11.4-1.9-4.3-5.9-7.6-10.3-8.3-4.1-0.7-8.8 0.8-12.7 4.1-5.5 4.5-9.4 13-6.3 20.5 1.2 2.9 3.4 5.5 6.3 7.7 9.4 7 23.7 6.4 32.6-1.3 8.8-7.7 11.7-21.5 6.6-32.2q-0.8-1.8-1.8-3.3c-5.9-8.8-16.8-13.8-27.2-12.6-8.1 0.9-15.3 5.7-18.2 12.2-0.1 0.2-0.3 0.4-0.6 0.5q-0.4 0.1-0.8-0.1c-1.9-0.9-4.4-1.1-7.3-0.6-6.6 1.2-12.6 5.2-16.2 10.8-2.5 3.9-3.8 8.6-3.8 13.3 2.3 1.3 4.4 3.4 6.2 6.1 3.2 5.1 4.7 12.5 0.6 17.5-2.8 3.4-7.7 5-12.6 3.9-5.2-1-10.4-5.5-10.1-11.3 0-0.5 0.5-1 1-0.9 0.6 0 1 0.5 1 1-0.2 4.7 4.1 8.4 8.5 9.3 4.1 0.9 8.4-0.4 10.7-3.2 3.4-4.2 2-10.9-0.8-15.2-1.7-2.6-3.7-4.6-5.8-5.7q-0.1 0-0.1-0.1-0.9-0.4-1.6-0.7-3-1-6.8-0.4c-8.4 1.5-15.6 8.8-17.5 17.8-1.8 8.3 0.6 17.7 6.5 25.2 2.1 2.8 5.6 6.2 9.9 7.4 3-6.1 8.5-11.3 15.3-14.5 10.1-4.7 21.3-3.9 28.5 2 4.8 3.9 8 10.1 8.8 17.2 0.9 8.5-2.2 19.6-11.4 23.9-4.7 2.2-10.5 2.1-15.1-0.3-5.9-3-9.3-9.6-7.9-15.4 0.8-3.2 3.4-6 6.7-7.3 2.9-1.2 5.9-1 8.3 0.4 1.9 1.2 3.3 3.5 3.4 5.8 0.2 1.8-0.4 3.4-1.7 4.4-0.4 0.4-1 0.4-1.4-0.1-0.3-0.4-0.3-1 0.1-1.4 1-0.8 1.1-2 1-2.8-0.1-1.6-1.1-3.3-2.5-4.2-1.8-1.1-4.2-1.2-6.5-0.3-2.7 1.1-4.8 3.4-5.4 6-1.2 4.8 1.8 10.6 6.8 13.1 4.1 2.1 9.2 2.2 13.3 0.3 8.3-3.9 11.2-14 10.3-21.9-0.8-6.5-3.7-12.3-8-15.9-7.6-6.1-18.7-5.3-26.4-1.7-6.7 3.1-12.1 8.3-14.8 14.3-0.4 0.9-0.8 1.9-1.1 3.1-1.1 3.7-1.3 7.9-0.5 12.3 1.7 11.2 9 21.2 18.9 26.2 10 5.1 22.6 4.8 32.1-0.7 0.5-0.3 1.1-0.1 1.4 0.3 3.1 4.3 8.5 7 13.8 6.9 5.4-0.1 10.6-2.9 13.7-7.3q0-0.1 0-0.1 0-0.1 0.1-0.1 0.1-0.1 0.2-0.2 0.2-0.1 0.5-0.1c0.4 0 0.8 0.2 0.9 0.6 5.2 5.7 14.1 7.9 21.8 5.3 3.9-1.3 7.6-3.8 10.5-7.1 2.5-2.9 4.4-6.3 5.5-10 2.2-7.4 1.4-16.1-2.2-23.9-1.7-3.7-3.7-6.5-6.1-8.5-2.6-2.2-6-3.7-10.4-4.7-6.1-1.3-11.9-1-16.9 0.9-5.6 2.2-9.9 6.5-11.5 11.6-1.9 5.4-0.3 11.7 3.8 15.1 2.7 2.3 6.4 3.3 9.5 2.4 3.4-0.9 6-3.8 6.3-7 0.4-3.3-1.9-6.7-5-7.4-0.6-0.1-0.9-0.7-0.8-1.2 0.2-0.5 0.7-0.9 1.2-0.7 4.1 0.9 7.1 5.2 6.6 9.5-0.4 4-3.6 7.7-7.7 8.8-3.8 1-8.2-0.1-11.4-2.9-4.7-3.9-6.5-11-4.4-17.3 1.8-5.6 6.6-10.4 12.7-12.7 5.3-2.1 11.5-2.4 18.1-1 4.7 1 8.3 2.6 11.2 5 2.6 2.2 4.8 5.3 6.7 9.3 3.7 8.2 4.5 17.4 2.2 25.3-1 3.4-2.7 6.5-4.8 9.2 10.3-1.2 19.9-7.8 24.7-17 5.1-9.7 4.8-22-0.6-31.4-0.2-0.3-0.2-0.6-0.1-0.9 0.2-0.3 0.4-0.5 0.8-0.6 5.1-0.7 8.7-5.4 10.4-9.5 1.9-4.7 2.1-9.5 0.5-13.4z"/><path fill-rule="evenodd" class="b" d="m-49.5 525.8c-0.2 7.3-3.8 14.5-9.5 19-5.7 4.6-13.4 6.5-20.6 5.2-4.9-0.9-9.4-3.3-14.3-4.2-4.1-0.8-8.4-0.5-12.3 0.8-4.8 1.6-9 4.6-13.5 7-11.2 6.1-25.8 8.2-36.5 1.2 5.9-2.1 10.2-7.9 10.6-14.1 0.3-6.2-3.2-12.5-8.7-16-0.2 3-2.9 5.2-5.6 6.5-4.7 2.3-10.2 3.3-15.3 2.1-5.1-1.2-9.8-4.8-11.4-9.8-1.4-3.9-0.8-8.3 1.1-12.1 2-4.1 5.5-7.5 9.8-9.3 4.3-1.7 9.2-1.8 13.2 0.2 5.8-8.6 18.6-11.8 27.7-6.8 9.2 5 13.5 17.3 9.4 26.9 6.3-5.8 15.4-7.9 23.8-6.7 8.4 1.3 16.2 5.7 22.5 11.4 2.4 2.2 4.6 4.5 7.4 6 7.6 4.3 18.6 0.7 22.2-7.3zm-105.1 24.5c-4.4 5.1-11.3 7.6-18.1 8.2-7.7 0.7-16.1-1-21.5-6.6-3.1 3.1-7.3 5-11.7 5.8-4.8 1-10 0.7-14.3-1.5-4.4-2.3-7.7-6.7-8-11.6-0.2-4.5 2.8-9.2 7.1-10.6-6.8 1.5-14.3-2.4-17.3-8.7-3.2-6.5-1.5-14.9 3.5-20.2 5-5.2 12.9-7.4 20-5.9-0.4-8 6.9-14.5 14.6-16.9 5.7-1.8 12.1-2 17.6 0.4 5.6 2.4 10 7.6 10.7 13.6-8.1 2.4-14.8 8.9-17.5 16.9-1.9 5.4-1.8 11.8 1.3 16.6 4.5 6.7 13.5 8.6 21.5 8 4.8-0.3 9.9-1.6 13.2-6.2 4.3 5.3 3.2 13.5-1.1 18.7zm-72.2 5.9c-6.5-4.9-15.2-5.7-23.3-5.1-8 0.7-16.1 2.6-24.2 2.2-8.1-0.3-16.7-3.4-21-10.3-2.6-4.2-3.2-9.5-1.8-14.3-0.4 2.5 0.9 5.3 3 6.9 2.7 2 6.2 2.5 9.5 2.7 5.3 0.3 10.8 0.1 15.5-2.3 4.7-2.4 8-6.5 11.7-10.2 3.6-3.7 8.1-7.2 13.5-8.3-1.9 7.9 3.9 16.8 11.9 18.3-2.8 7-0.6 15.6 5.2 20.4zm-69.6-29.4q-0.4 0.9-0.7 1.9c0.1-0.6 0.3-1.3 0.7-1.9z"/><path fill-rule="evenodd" class="b" d="m-278.8 224.5q0 0.3-0.2 0.6c0.2 5.7-2.4 11.8-7 16.4-1.7 1.7-3.4 3-5.2 3.8-2.4 1.2-5.3 1.7-9 1.7q-0.3 0.2-0.5 0.3-0.1 0-0.1 0-0.4-0.1-0.6-0.3c-5.1-0.1-11.8-1.3-16.4-6-2.1-2.1-3.6-5-4.5-8.4-2.1-8.1 0.6-17.3 6.7-22.9 3.9-3.6 9.1-5.6 14.3-5.8q0.2-0.1 0.5-0.1 0.2 0 0.4 0.1c2.8 0.1 5.6 0.6 8.2 1.7 7.1 3 12.4 10.4 13.1 18.3q0.2 0.3 0.3 0.6zm-20.9-18.5c0.6 2.9 2.5 5.7 5.7 8.7 3.7 3.5 8.1 6.3 12.7 8.2-1-6.7-5.6-12.9-11.7-15.5-2.1-0.9-4.4-1.3-6.7-1.4zm-21.2 19.2c8.7-3.4 15.6-10.5 18.6-19.1-4.4 0.3-8.7 2.1-12 5.1-3.9 3.5-6.2 8.7-6.6 14zm18.3 19.8c-3.7-7.1-10.3-13.1-18.4-16.9 0.1 1.3 0.3 2.7 0.6 4 0.8 3 2.2 5.6 4.1 7.6 3.7 3.8 9.2 5 13.7 5.3zm9.4-12.3c3.4-3.1 7.3-5.6 11.1-7.9-4.9-2-9.5-5-13.3-8.6-2.8-2.6-4.7-5.2-5.7-7.8-3.3 8.1-9.9 14.8-18.1 18.3 7.9 3.9 14.3 9.9 18.2 16.9 1.4-3.9 4.1-7.6 7.8-10.9zm12.2-6.2c-3.8 2.2-7.6 4.7-10.9 7.6-3.7 3.4-6.2 7.1-7.5 10.9 3-0.1 5.4-0.6 7.4-1.5 1.5-0.7 3.1-1.9 4.6-3.4 3.9-3.9 6.2-8.9 6.4-13.6z"/><path fill-rule="evenodd" class="b" d="m-263.9 179.7c0.1 0.5-0.2 0.9-0.7 1.1-6.1 1.7-10.7 8-10.6 14.4q0 0.2 0 0.5c0 0.5-0.4 1-1 1q0 0 0 0c-0.5 0-1-0.4-1-0.9q0-0.3 0-0.6c-0.2-3.1-1.5-6.2-3.7-8.5-2.3-2.5-5.5-4-8.8-4.3-0.5 0-0.9-0.4-0.9-0.9-0.1-0.5 0.2-0.9 0.7-1 6.7-1.9 12.1-8.5 12.5-15.4 0-0.6 0.4-1 1-1 0.6 0 1 0.5 1 1 0.1 3.4 1.1 6.6 2.8 9.1 2 2.6 4.9 4.3 7.8 4.6 0.5 0 0.9 0.4 0.9 0.9zm-4.2 0.3c-2.4-0.9-4.5-2.5-6.1-4.7-1-1.4-1.8-3-2.4-4.8-1.7 4.5-5.2 8.4-9.5 10.6 2.5 0.8 4.9 2.3 6.7 4.2 1.3 1.3 2.3 3 3 4.7 1.4-4.2 4.4-7.9 8.3-10z"/><path fill-rule="evenodd" class="c" d="m388.3 236.3c0.1 0.5-0.2 0.9-0.7 1.1-6.2 1.7-10.8 8-10.7 14.3q0 0.3 0.1 0.6c0 0.5-0.5 1-1 1q0 0 0 0c-0.6 0-1-0.4-1-0.9q-0.1-0.3-0.1-0.6c-0.1-3.1-1.5-6.2-3.6-8.5-2.3-2.5-5.5-4-8.9-4.3-0.5 0-0.8-0.4-0.9-0.9 0-0.5 0.3-0.9 0.7-1 6.8-1.9 12.2-8.5 12.6-15.4 0-0.6 0.4-1 1-1 0.5 0 1 0.5 1 1 0 3.4 1 6.6 2.8 9 1.9 2.7 4.8 4.4 7.8 4.7 0.5 0 0.9 0.4 0.9 0.9zm-4.2 0.3c-2.4-0.9-4.5-2.5-6.1-4.7-1-1.4-1.8-3-2.4-4.8-1.7 4.5-5.2 8.4-9.5 10.6 2.5 0.8 4.8 2.3 6.6 4.2 1.3 1.3 2.3 3 3.1 4.7 1.3-4.2 4.4-7.9 8.3-10z"/><path class="a" d="m-5.3 358.9c-3.4-6.7-6-13.8-7.8-21-1.3-5.2-2.1-10.9 0.4-15.5 2.5-4.7 7.6-7.2 12.4-9.4q2 5.9 4 11.9 3-5.8 6.4-11.3c3.5 2.5 7.2 5.2 8.7 9.2 1.7 4.7 0.1 9.9-1.8 14.6-3.3 7.9-7.6 15.5-12.7 22.5q-2.1-3.1-4.3-6.2c-1.7 1.8-3.3 3.6-5.3 5.2z"/><path class="b" d="m-7.4 372c0-3.2 2.6-5.8 5.8-5.8 3.3 0 5.9 2.6 5.9 5.8 0 3.2-2.6 5.8-5.9 5.8-3.2 0-5.8-2.6-5.8-5.8z"/><path class="a" d="m9.5 366.9q3.6 0.1 7.2 0.6-1.5 3.3-3.3 6.4c7 0.8 14 1 21 0.6 3.6-0.2 7.2-0.6 10.8-1.3 2.1-0.5 4.3-1.1 6-2.5 2-1.6 3.2-4.1 3.8-6.7 0.5-2.6 0.4-5.2 0.4-7.8q-6.8 0.5-13.5 0.9 4.4-4.4 9.2-8.5c-2-2.7-4.6-4.9-7.6-6.4-1.9-0.9-3.9-1.6-5.9-1.3-2.5 0.3-4.6 1.9-6.6 3.6-7.8 6.6-15.1 14-21.5 22.4z"/><path class="a" d="m5.8 386.3q1.2-3.2 1.8-6.5c9.3 4.8 18 10.9 25.6 18 1.3 1.2 2.5 2.4 3.3 4 1 2.2 0.8 4.8 0.2 7.1-0.7 2.8-2.1 5.4-3.8 7.6-0.3 0.3-0.6 0.7-1 0.8-0.5 0.1-0.9-0.1-1.4-0.3-3.1-1.6-5.9-3.7-8.5-6.1q0.1 6.3 0.1 12.5c-2.7 0.3-5.5 0.4-8.2-0.1-2.7-0.6-5.3-1.9-7-4-1.9-2.4-2.5-5.5-3.1-8.4q-2.4-12.6-4.8-25.2c2.3 0.2 4.6 0.5 6.8 0.6z"/><path class="a" d="m-12.2 383.9q3.1-0.5 6.3-0.3c-4.8 9.1-10.4 17.8-16.7 25.9-1.9 2.6-4.1 5.2-7.1 6.2-2.4 0.7-5 0.4-7.3-0.5-2.3-1-4.3-2.6-6-4.3q3.4-4.9 6.8-9.8-6.2 1.2-12.4 2.8c-1-4.6-1.9-9.8 0.6-13.7 1.6-2.5 4.3-4.1 7-5.2 9.4-4.1 20-4.4 29.7-7.7-0.2 2.1-0.4 4.2-0.9 6.6z"/><path class="a" d="m-16.4 364.2q-0.2 3.1 0.2 6.2-13.3-3.4-26.6-6.8c-2-0.5-4.1-1-6.1-1.8-2.2-0.8-4.4-2-5.5-4.1-0.8-1.4-0.9-3-0.8-4.6 0.1-3 1.1-5.9 2.1-8.8q6.4 1.6 12.7 3.2-3.4-4.6-6.9-9.3c-0.2-0.2-0.3-0.4-0.3-0.7 0.1-0.2 0.3-0.4 0.4-0.5 3-2.3 6.5-3.8 10.2-4.4 1.3-0.2 2.6-0.3 3.9 0 2.1 0.5 3.8 2.3 5.3 3.9 7.3 8.1 13.3 17.2 18 27-2.3 0.3-4.5 0.5-6.6 0.7z"/><path fill-rule="evenodd" class="b" d="m141 522.2c0.5 1 0.1 2.2-0.9 2.7-1 0.4-2.2 0.1-2.7-0.9-1.3-2.6-3.7-4.7-6.8-5.7-2.7-1-6-1.2-9.4-0.5-4.6 0.8-10.3 3.6-12.3 9-0.3 0.8-1 1.3-1.9 1.3q-0.3 0-0.6-0.1c-1.1-0.4-1.6-1.6-1.2-2.6 2.1-5.8 8-10.2 15.3-11.6 4.1-0.7 8.1-0.5 11.5 0.7 4 1.4 7.3 4.2 9 7.7zm-88.7 4.2c0.5 1 0 2.2-1.1 2.6-1 0.4-2.1 0-2.6-1.1-1-2.4-3.3-4.5-6.2-5.6-2.6-0.9-5.7-1.1-9.3-0.6-4.1 0.7-9 2.8-10.3 6.8-0.3 0.8-1.1 1.3-1.9 1.3q-0.3 0.1-0.7 0c-1-0.4-1.6-1.5-1.2-2.6 1.5-4.8 6.6-8.4 13.5-9.4 4.2-0.6 8-0.4 11.2 0.8 4 1.4 7.2 4.3 8.6 7.8zm10.7-7.5c0.4 1-0.1 2.2-1.2 2.6q-0.3 0.1-0.7 0.1c-0.8 0-1.6-0.5-1.9-1.2-3.6-9.4-14.3-15.9-25.3-15.5-10.1 0.4-20.2 6.2-27.2 15.4-0.6 0.9-1.9 1.1-2.8 0.4-0.8-0.6-1-1.9-0.4-2.8 7.7-10.2 19-16.5 30.3-17 12.6-0.5 24.9 7.1 29.2 18zm87.1-2.4c0.4 1-0.2 2.2-1.2 2.6-1 0.4-2.2-0.1-2.6-1.2-3.7-9.8-14.9-16.7-26-16-10.7 0.6-21 7.6-26.3 17.8-0.3 0.7-1 1.1-1.8 1.1q-0.4 0-0.9-0.2c-1-0.5-1.3-1.7-0.8-2.7 5.9-11.4 17.5-19.3 29.5-20 13.1-0.8 25.7 7 30.1 18.6zm13.8-5.9c0.2 1.1-0.5 2.1-1.6 2.3-1.1 0.2-2.1-0.6-2.3-1.7-1.1-6.8-5.6-13.4-12.1-17.8-5.7-3.8-13.1-6.1-21.5-6.7q-2.2-0.1-4.3-0.1c-5.2 0.1-10.1 0.8-14.7 2.3-3.8 1.2-7.3 2.8-10.3 4.8-2.6 1.7-4.9 3.7-6.9 6-3.9 4.4-6.6 9.9-9.3 15.2l-0.1 0.3c-0.3 0.7-1 1.1-1.7 1.1q-0.1 0-0.1 0c-0.7 0-1.3-0.3-1.7-0.9-4.2-6.9-9.9-12.9-16.3-17.3-3.9-2.7-8-4.8-12.2-6.3-4.5-1.6-9.1-2.5-13.7-2.7h-0.2c0 0-0.2 0-0.3 0q0 0 0 0 0 0 0 0h-0.1c-17.3-0.3-33.9 10.2-39.7 25.3-0.4 1-1.6 1.5-2.6 1.1-1-0.4-1.6-1.6-1.2-2.6 6.3-16.1 23.7-27.5 42-27.8 2.5-9.5 8.9-18.2 17.9-24 9-5.8 20.3-8.7 32.6-8.5 7.2 0.2 13.1 1.4 18.1 3.8 3.4 1.7 6.6 3.9 9.9 7 4.5 4.1 10 10.7 12.1 19.2q1.5 0 3.1 0.1c9.1 0.7 17.2 3.2 23.4 7.4 7.6 5 12.6 12.5 13.8 20.5zm-71.1-18.7c-4-3.2-9.3-4.8-14.3-4.3-5.4 0.6-10.5 3.8-13.7 8.3 5.3 3.9 10.1 8.8 14 14.4 2.3-4.6 4.9-9.3 8.4-13.3q2.5-2.8 5.6-5.1zm11.4-6.1c-3.1-6.8-9.4-12-16.6-13.4-2.7-0.6-5.7-0.7-9.1-0.3-4.1 0.4-7.7 1.2-10.9 2.5-6.6 2.7-12.1 7.9-15.4 14.3q4.8 1.9 9.3 4.8c3.9-5.5 10-9.3 16.6-10 6.4-0.7 13.2 1.5 18.1 5.9q3.7-2.3 8-3.8zm15.3-3.1c-2-7.1-6.8-12.8-10.7-16.3-3-2.8-5.9-4.9-9-6.4-4.4-2.1-9.8-3.2-16.4-3.4-11.5-0.2-22 2.5-30.3 7.9-7.9 5.1-13.5 12.6-16 20.8q5.7 0.4 11.4 2.2c3.6-7.5 9.9-13.5 17.5-16.6 3.6-1.4 7.7-2.4 12.1-2.8 3.8-0.4 7.2-0.3 10.3 0.3 8.6 1.7 16.2 8 19.7 16.2q5.5-1.5 11.4-1.9z"/><path class="b" d="m336 496.2c8.1-2.6 17.5-0.8 24 4.6 6.6 5.5 10 14.4 8.9 22.9 13.1-2.3 27.2 5.6 32.1 18-7.1-3.3-15.5-2.5-23-0.2-7.5 2.3-14.6 5.9-22.1 8-4.3 1.2-8.7 1.9-13.1 2.1-4.7 0.2-9.6-0.2-13.3-3.1-4.6-3.5-5.9-10.7-2.8-15.6 3.1-5 10.1-7 16.2-4-2.4-4.7-7-8.4-12.3-8.8-5.2-0.4-10.8 3-11.9 8.2-1.1 4.7 1.5 9.8 0.5 14.5-0.9 4.2-4.6 7.5-8.6 8.9-4.1 1.5-8.5 1.5-12.8 1.4-3-0.1-6.1-0.4-8.8-1.5-2.8-1.2-5.2-3.6-5.7-6.5 1.7-0.6 2.5-2.6 3-4.4 1.8-6.9 2.5-14.9-1.7-20.8-2.8-3.9-7.5-6.2-12.2-7.5-5.2-1.3-10.9-1.4-15.9 0.8-4.9 2.3-8.8 7.2-8.8 12.6-0.1 5.4 4.5 10.7 9.9 10.7 3.4-0.1 7-2.9 6.4-6.8-1.8 1.8-5.4 0.7-6.3-1.7-1-2.4 0.2-5.2 2.1-6.9 1.8-1.6 4.1-2.4 6.5-2.5 6.8-0.4 13.4 5.4 13.9 12.2 0.3 5-2.3 9.9-6 13.2-3.8 3.3-8.6 5.1-13.4 6.4-9.2 2.3-19 2.3-28.2 0.1-5-1.2-9.9-3.2-14.1-6.2-10.6-8-14.4-23.8-8.4-35.7 5.9-11.9 20.9-18.4 33.9-13.6-5.8-11-3.5-25.8 5.5-34.4 9-8.7 23.9-10.5 34.7-4.2-7.9 5.3-12.4 15.1-11.5 24.6 1 9.4 7.4 18.1 16.2 21.7 8.8 3.6 19.5 2.1 26.8-3.9 1.8-1.5 3.5-3.2 4.6-5.3 2-4.1 1.6-9.2-0.8-13-2.4-3.8-6.7-6.3-11.2-6.7-2.5-0.3-5.2 0.2-6.8 2-1.7 1.9-1.4 5.3 0.8 6.3 0.9-2.5 4.1-3.7 6.6-2.9 2.5 0.9 4.1 3.4 4.3 6.1 0.1 2.6-1 5.2-2.9 7.1-4.9 5.1-13.9 4.9-19.3 0.3-5.4-4.6-7.3-12.6-5.7-19.5 2.3-9.8 11.2-17.6 21.2-18.9 9.9-1.3 20.4 3.7 25.9 12.1 5.5 8.4 6 19.7 3.6 29.8z"/><path fill-rule="evenodd" class="b" d="m201.2 380.7c-2.3 4.8-5.1 8.9-8.3 12-6.6 6.4-16.5 10.4-28.7 11.4q-3.1 0.3-5.9 0.3c-4.3 0-8.2-0.5-11.7-1.4-15-4.1-26.8-18.5-28.7-35.1-1.5-13.5 2.9-27.7 11.7-37 8.3-8.9 20.7-14.2 32.9-14.1 7 0 14.1 1.7 20.7 4.9 5 2.4 9.2 5.5 12.6 9.1 5.9 6.3 9.6 14.9 10.4 24.1 0.7 8.4-1.1 17.4-5 25.8zm3-25.7c-0.8-8.7-4.3-16.9-9.9-22.9-3.2-3.4-7.2-6.3-12-8.6-6.3-3-13.1-4.7-19.8-4.7q-0.1 0-0.2 0c-11.7 0-23.3 5-31.3 13.5-8.3 8.9-12.6 22.4-11.1 35.4 1.8 15.7 13 29.5 27.2 33.3 4.8 1.4 10.4 1.7 16.9 1.1 11.7-1 21.2-4.8 27.5-10.8 3-3 5.7-6.8 7.9-11.5 3.8-8.1 5.5-16.6 4.8-24.8zm-17.2-15.5c4.7 5.6 7.3 13 7.5 20.4 0.2 12.4-6.7 24.7-17.5 30.6-10.8 6-25.1 5.2-35-2.2-9.8-7.4-14.2-21-12.5-32.7 1.3-8.5 6.5-16.3 13.9-20.9 3.3-2 7-3.4 10.8-4.4 4.5-1.2 9.2-1.8 13.9-1.3 7.3 0.9 14.2 4.8 18.9 10.5zm-11.8 24.6q-4.5-8.4-9-16.8-8.7 4.5-17.3 8.9c2.2 6.1 5.3 11.5 8.5 16.8q8.9-4.4 17.8-8.9z"/><path class="c" d="m-257.8-143.4q-9.1 0.4-18.1 0.6l10.2-9.8c0.8-0.8 0.8-2 0-2.8-0.7-0.8-2-0.9-2.8-0.1l-10.5 10.1-0.6-19.2c0-1.1-0.9-1.9-2-1.9-1.1 0-2 1-2 2.1l0.5 17.8q-4-4.9-8-9.9c-0.7-0.8-1.9-1-2.8-0.3-0.9 0.7-1 2-0.3 2.8q4.6 5.8 9.3 11.5c-6.2 0.1-12.4 0.3-18.5 0.4-1.1 0-2 0.9-2 2 0 1.1 0.9 2 2 2 5.7-0.1 11.5-0.3 17.2-0.4l-9.2 8.9c-0.8 0.8-0.8 2-0.1 2.8 0.4 0.4 0.9 0.6 1.5 0.6 0.5 0 1-0.1 1.4-0.5l9.9-9.5 0.6 20.7c0 1.1 0.9 1.9 2 1.9q0 0 0 0c1.1 0 2-0.9 2-2l-0.6-19.8q4 4.7 8.2 9.2c0.4 0.5 0.9 0.7 1.4 0.7 0.5 0 1-0.2 1.4-0.6 0.8-0.7 0.9-2 0.1-2.8q-4.4-4.9-8.8-9.9 9.4-0.2 18.7-0.6c1.1 0 2-0.9 1.9-2 0-1.1-0.9-2-2-2z"/><path class="b" d="m384.2 72.8q-9 0.4-18.1 0.6l10.2-9.8c0.8-0.8 0.8-2 0.1-2.8-0.8-0.8-2.1-0.9-2.9-0.1l-10.5 10.1-0.6-19.2c0-1.1-1-1.9-2-1.9-1.1 0-2 1-2 2.1l0.6 17.8q-4.1-4.9-8.1-9.9c-0.7-0.8-1.9-1-2.8-0.3-0.9 0.7-1 2-0.3 2.8q4.6 5.8 9.4 11.5-9.4 0.2-18.6 0.4c-1.1 0-2 0.9-2 2 0.1 1.1 0.9 2 2 2h0.1c5.7-0.1 11.4-0.3 17.2-0.4l-9.3 8.9c-0.8 0.8-0.8 2-0.1 2.8 0.4 0.4 1 0.6 1.5 0.6 0.5 0 1-0.1 1.4-0.5l9.9-9.5 0.6 20.7c0 1.1 0.9 1.9 2 1.9q0 0 0 0c1.1 0 2-0.9 2-2l-0.6-19.8q4.1 4.7 8.2 9.2c0.4 0.5 0.9 0.7 1.5 0.7 0.4 0 0.9-0.2 1.3-0.6 0.8-0.7 0.9-2 0.1-2.8q-4.4-4.9-8.8-9.9 9.4-0.2 18.7-0.6c1.1 0 2-0.9 2-2-0.1-1.1-1-2-2.1-2z"/><path class="a" d="m238.7 170.6c0-2.7 2.2-4.9 4.9-4.9 2.7 0 4.9 2.2 4.9 4.9 0 2.7-2.2 5-4.9 5-2.7 0-4.9-2.3-4.9-5z"/><path class="b" d="m276.6 102c-0.2-1.5-1.2-3.1-2.7-3.6-1.7-0.6-3.6 0-4.9 1.2-1.2 1.2-2 2.8-2.7 4.4-3.8 8.9-5.5 18.5-7.1 28 4.4-5.9 8.2-11.3 11.9-16.6 1.9-2.8 3.8-5.6 4.9-8.7 0.5-1.5 0.9-3.1 0.6-4.7zm-57.5 6c-0.8-2.5-1.7-5.1-3.6-7-1.9-1.8-5.1-2.6-7.2-1-1.4 1.1-2 3-1.9 4.8 0.1 1.7 0.9 3.4 1.7 5 2.2 4 5.1 7.6 7.9 11.2q5 6.2 9.9 12.4c-2.2-8.8-4.3-17.2-6.8-25.4zm82.2 15c1-1.5 1.4-3.5 0.6-5.2-1.1-2.4-4.4-3.1-7-2.3-2.5 0.9-4.4 3-6.2 5-5.4 6.3-10.2 13.1-14.5 20.1 8.3-3.8 16.1-8.3 23.3-13.8 1.4-1.1 2.9-2.2 3.8-3.8zm-112.8-4.8c-2.9-0.3-5.8 2.3-5.7 5.2 0 3.2 2.7 5.6 5.4 7.5 7.2 5 15.2 9 23.5 12-6-7-11.4-13.5-16.8-20-1.7-2.1-3.7-4.4-6.4-4.7zm130.7 53.3c-1.9-1-4.1-1.1-6.3-1.1-9.2 0-18.5 1-27.5 3 8 2.5 15.5 4.7 23.2 6.5 2.7 0.7 5.4 1.3 8.1 0.9 2.5-0.3 5.2-1.7 5.6-4.2 0.3-2.1-1.2-4.2-3.1-5.1zm-15.1 26.2c-7.6-3.7-15.7-6-23.8-8.3 6.3 7.5 13.2 14.1 21.5 18.4 1.7 0.9 3.5 1.7 5.5 1.9 1.7 0.1 3.6-0.3 4.5-1.8 1.2-1.9 0-4.6-1.6-6.2-1.8-1.7-3.9-2.9-6.1-4zm-77.8 36.6c-0.7 1.9-1.5 3.9-1.6 5.9-0.2 2.1 0.2 4.3 1.5 5.9 1.3 1.5 3.6 2.4 5.5 1.6 1.6-0.7 2.6-2.3 3.2-3.9 1.5-4 1.2-8.4 1-12.7-0.4-6.3-0.4-12.6 0.3-19.7q-5.5 11.2-9.9 22.9zm27.3-23.1c0.1 9.3 0.2 18.6 1.9 27.8 0.2 1.5 0.6 3.1 1.4 4.5 0.8 1.3 2.1 2.5 3.7 2.6 2.3 0.3 4.4-1.7 5.1-3.9 0.6-2.2 0.2-4.6-0.4-6.8-2.4-8.6-7.3-16.2-11.7-24.2zm-51-35.3c-9.6-1.5-19.3-2.6-28.9-1.6-1.7 0.2-3.5 0.5-5 1.4-1.6 0.8-2.8 2.5-2.7 4.2 0.1 1.8 1.5 3.2 3.1 3.9 1.6 0.7 3.4 0.7 5.1 0.6 4.7-0.4 9.2-1.8 13.6-3.3 4.4-1.5 8.8-3.1 14.8-5.2zm-24.4 30.2c-1.4 2.1-1.3 5.4 0.8 6.9 1.3 0.9 3 1 4.5 0.5 1.5-0.5 2.8-1.5 4-2.4 7.3-5.6 13.8-12.2 20.4-19-8.1 2.8-16.1 5.6-23.7 9.3-2.3 1.2-4.6 2.5-6 4.7z"/><path class="d" d="m245.7 90.5c-3.1-0.9-6.4 1.3-7.7 4.2-1.4 2.8-1.3 6.2-1 9.3 0.9 11.9 3.8 23.4 6.7 35 2.7-11.8 5.1-24 6.5-36.3 0.3-2.4 0.5-4.8-0.1-7.1-0.6-2.3-2.2-4.4-4.4-5.1zm-62 54.3c-3.1-1.6-6.4-3.1-9.9-2.8-3.4 0.4-6.8 3.4-6.3 6.9 0.6 3.1 3.9 4.9 6.9 5.8 3.7 1.2 7.6 1.8 11.5 2.4q13.8 2.2 27.5 4.3c-10.4-6.1-19.9-11.7-29.7-16.6zm134.7 0.3c-1-1.2-2.4-1.8-3.9-2.1-4.4-0.8-8.9 0.9-13 2.7-9.4 4.2-18.5 9.1-27.1 14.6 11.1-0.3 22.1-1.3 33-3.1 3.8-0.7 7.8-1.6 10.3-4.5 1.8-2.1 2.4-5.5 0.7-7.6zm-37.5 67.3c-5.7-5.7-11.6-11.4-18.4-15.6 3.4 10.6 8.2 20.7 14.2 30 1.2 1.9 2.5 3.7 4.2 5.2 1.7 1.5 3.8 2.5 6.1 2.4 2.2-0.1 4.5-1.5 5.1-3.7 0.6-1.8 0-3.8-0.9-5.6-2.4-4.9-6.4-8.9-10.3-12.7zm-82.5 7.6c-2.4 3-4.8 6.6-4.2 10.5 0.2 1.7 1.1 3.4 2.5 4.4 2.1 1.3 4.8 1.1 7-0.1 2.1-1.2 3.7-3.1 5.1-5 7.3-9.7 12.4-20.9 14.8-32.9-9 7-18 14.1-25.2 23.1z"/><path class="a" d="m264.7 147.5c0.6-1.4 0.7-3.1-0.3-4.2-1.1-1.2-3.1-1.1-4.6-0.3-1.4 0.9-2.3 2.4-3.1 3.8-2.1 3.9-3.8 8-5.1 12.2 3.4-2.6 6.8-5.5 10.1-8.3 1.2-1 2.3-1.9 3-3.2zm10.5 28.9c-1.1-0.9-2.4-1.3-3.7-1.7-5.1-1.3-10.5-0.8-15.7-0.4 3.4 3.7 7.9 6.1 12.6 7.7 1.5 0.6 3 1.1 4.6 0.9 1.6-0.2 3.2-1.3 3.6-2.8 0.3-1.4-0.4-2.8-1.4-3.7zm-29.1 16.4c-1-3-2-6-2.5-9.2l-2.7 12.4c-0.3 1.7-0.7 3.5-0.3 5.2 0.4 1.6 1.9 3.2 3.6 3.1 1.2 0 2.4-0.9 2.9-2.1 0.6-1.1 0.7-2.4 0.5-3.7-0.2-1.9-0.8-3.8-1.5-5.7zm-33-16.9c-1.8 1.2-2.9 3.6-2 5.5 0.6 1.3 2.1 2 3.5 2.1 1.4 0.2 2.8-0.2 4.1-0.7 5.1-1.8 9.4-5.3 13.6-8.7-4.3 0.2-8.7 0.2-13.1 0.4-2.1 0.1-4.3 0.3-6.1 1.4zm16.7-31.7c-0.8-1.2-2-2.2-3.4-2.6-1.3-0.3-3 0.1-3.8 1.3-0.7 1.1-0.6 2.7 0 3.9 0.6 1.2 1.6 2.1 2.6 3.1q5.1 4.8 10.3 9.7c-1.5-4.2-2.7-7.8-4-11.5-0.5-1.3-0.9-2.7-1.7-3.9z"/><path class="c" d="m243.3 144c-1.1 0.1-2.2 0.6-2.8 1.5-0.9 1.2-0.5 2.9 0 4.3 0.8 2.1 2 3.9 3.2 5.8 0.7-1.5 1.3-3 1.9-4.5 0.5-1.2 1-2.5 1.1-3.8 0-1-0.2-2-0.9-2.7-0.7-0.6-1.6-0.7-2.5-0.6zm25.9 18.2c-0.3-1-1.2-2-2.3-2.3-1.5-0.4-3 0.5-4.2 1.5q-3.1 2.2-5.9 4.9c2.9 0.3 5.6 0.3 8.4 0.1 1.4 0 3.1-0.2 3.9-1.5 0.5-0.7 0.4-1.8 0.1-2.7zm-10.8 23.7q-2.8-2-5.9-3.5c0 2.4 0.7 4.7 1.7 6.9 0.7 1.6 1.6 3.2 3.3 3.5 1.1 0.3 2.5-0.3 3.1-1.3 0.7-1.1 0.7-2.5 0.1-3.5-0.5-0.9-1.4-1.6-2.3-2.1zm-30.7 0.6c-1 1.1-1.5 2.7-1 4.1 0.5 1.5 2.2 2.4 3.6 1.8 0.5-0.2 0.9-0.7 1.3-1.1 2.1-2.5 3-5.7 3.9-8.8-1.2 0.6-2.7 1-4 1.6-1.4 0.5-2.8 1.3-3.8 2.4zm-4-25.2c-1-0.7-2.2-1.4-3.4-1.1-0.7 0.2-1.4 0.8-1.8 1.4-0.3 0.5-0.5 1-0.6 1.5 0 0.8 0.6 1.6 1.3 2.1 0.8 0.4 1.6 0.6 2.5 0.7 2.8 0.5 5.6 0.5 8.5 0.3-2-1.8-4.2-3.4-6.5-4.9z"/><path class="a" d="m252.1 321.7c10.3-16.7 28.6-28.1 48.1-30.1 3.6-0.4 7.3-0.5 10.9 0.2 10.1 2 18 9.6 24.3 17.8 1.4 1.9 3 4 5.2 5.1 3.3 1.5 7.2 0.2 10.6-1 4 3.2 5.6 8.9 4.7 14-0.9 5.1-4.1 9.6-8.1 12.9-1.8-2.5-5.5-2.7-8.2-1.5-2.8 1.2-4.9 3.5-7.2 5.5-11.2 10.2-27.8 14.1-42.5 10.2-10-2.7-18.9-8.8-26.5-15.9-5-4.8-9.7-10.1-11.3-17.2z"/><path fill-rule="evenodd" class="c" d="m280 319.5c-0.3 2.9-2.2 5.6-3.8 6.7-2.7 1.8-6.3 2.5-9.2 1.1-1.9-1-3.3-2.7-3.9-4.7-0.7-2-0.6-4.2 0.1-6.2 0.8-2.6 2.7-4.9 5.1-5.9 2.7-1.2 6.1-0.7 8.4 1.1 2.4 1.8 3.6 4.9 3.3 7.9zm-6.4-5.1c-0.5-0.3-1.2-0.4-1.8-0.3-1.7 0-3.3 0.9-4.1 2.4-0.9 1.4-0.8 3.3 0.2 4.7 1 1.3 2.9 1.9 4.5 1.2 0.9-0.4 2.8-1.4 3.3-3.2 0.5-1.9-0.3-4.1-2.1-4.8z"/><path fill-rule="evenodd" class="c" d="m299.5 336.7c-0.8 3.7-2.9 7.7-6.6 8.7-2.9 0.8-6.1-0.5-8.3-2.5-2.2-2.1-3.6-4.8-5-7.4 7.9-7 10.4-19.4 5.8-28.9 6.7 5.7 7.5 16.9 2.3 24.5 2.7-0.5 5.5-0.7 8.3-0.4 0.7 0.1 1.5 0.2 2.1 0.6 1.7 1 1.8 3.4 1.4 5.4zm-6.6 4.8c0-0.2-0.2-0.4-0.5-0.5-2.2-1.6-5-2.3-7.5-3.8q1.4 1.7 3 3.3c1.1 1 2.4 2 3.9 2 0.3 0 0.6-0.1 0.8-0.2 0.3-0.2 0.4-0.5 0.3-0.8zm3.1-5.3c0-0.4-0.3-0.7-0.7-0.9-0.3-0.2-0.8-0.2-1.2-0.2-2.3-0.3-4.6-0.3-7.1-0.2 1.9 1.1 4.1 1.8 6.3 2.4 0.6 0.1 1.2 0.3 1.7 0.1 0.6-0.1 1.1-0.6 1-1.2z"/><path class="c" d="m304.2 325c2.6-1.4 4.4-4.4 4.2-7.4-0.2-3-2.3-5.8-5.2-6.7 2.5-1.5 3.9-4.6 3.5-7.4-0.5-2.9-2.8-5.3-5.6-5.8 2.2 1.5 3.6 4.1 3.6 6.7 0 2.7-1.4 5.3-3.7 6.7 2.2 0.6 4.1 2.3 4.9 4.5 0.8 2.1 0.5 4.6-0.7 6.6-0.9 1.2-2 2.1-3.2 3.1 3.4 1.2 5.8 5 4.8 8.4-0.6 2.3-2.5 4-4.3 5.6 1.9 1.4 2.8 4.1 2.3 6.5-0.5 2.4-2.3 4.5-4.5 5.5 2.6-0.2 5-2.1 5.9-4.6 0.8-2.5 0.1-5.5-1.8-7.3 1.5-0.3 2.7-1.4 3.5-2.7 0.8-1.4 1-3 1-4.5 0-1.6-0.4-3.1-1.2-4.4-0.8-1.4-2-2.4-3.5-2.8zm15.3 3.5c0-2.5-1.8-4.9-4.2-5.7 1.8-0.9 3.1-2.8 3.1-4.9 0.1-2-1-4-2.8-5.1 1.9-0.7 3.3-2.5 3.6-4.5 0.2-2-0.7-4.1-2.5-5.3 0.9 1.6 1.1 3.6 0.6 5.4-0.5 1.7-1.8 3.3-3.4 4.2 2 0.7 3.1 3.1 2.7 5.2-0.4 2.1-1.8 3.9-3.6 5.1 2.4 0.6 4.1 3 4.1 5.4 0 2.4-1.8 4.7-4.1 5.3 2.4 1 3.5 4 3 6.5-0.6 2.5-2.5 4.5-4.8 5.7 1.8-0.3 3.6-1.1 4.9-2.4 1.3-1.3 2.1-3.2 1.9-5-0.3-1.7-1.4-3.1-2.7-4.3 2.4-0.7 4.2-3.1 4.2-5.6zm7.3-7.4c-0.3-2.3-2.1-4.3-4.3-4.9 1.2-1.3 1.8-3.1 1.5-4.8-0.3-1.7-1.4-3.3-2.9-4 2.2 2.6 2.2 6.8 0.5 9.5 1.5 0.5 2.5 2.1 2.7 3.7 0.3 2.3-0.7 4.7-2.6 6 2.2 1.3 3.3 4 3 6.6-0.4 2.5-2 4.7-4.1 6.2 2.6-1 4.8-2.9 5.7-5.4 0.8-2.5-0.1-5.7-2.4-7.1 2-1.1 3.2-3.5 2.9-5.8zm7.7 3.6c1.8-0.3 2.9-2.3 2.6-4-0.4-1.8-1.9-3.1-3.5-3.5 1.1 1.1 1.6 2.7 1.3 4.2-0.2 1.5-1.2 2.9-2.6 3.6 1.3 0.1 2.3 1.2 2.9 2.4 1.2 2.8 0.3 6.3-2 8.2 2.2-0.7 3.9-2.7 4.2-5 0.3-2.3-0.9-4.7-2.9-5.9z"/><path class="a" d="m283.6 291.8c6.2-9.5 15.1-17.2 25.4-22 4-1.9 8.9-3.2 12.8-1.1 3.7 2.2 5.1 6.8 7.2 10.5 1.7 3.2 4.2 5.9 7 8 2.4 1.6 4.9 2.9 7.1 4.7 2.2 1.8 4 4.4 3.8 7.3-0.1 2.1-1.3 4-2.8 5.5-1.6 1.5-3.5 2.5-5.3 3.5-5.2-5.6-10.6-11.4-17.5-14.9 2.5-2.7 5.6-4.9 8.9-6.4-4 0.3-7.8 1.9-10.7 4.7q-3.9-1.1-7.8-1.4c3.4-3.5 7.6-6.3 12.3-8-4.8-0.8-9.5 2.1-12.5 5.9-0.2 0.4-0.5 0.7-0.9 0.9-0.4 0.2-0.8 0.1-1.3 0.1-2.6-0.1-5.3 0.1-7.9 0.6 4-5.2 9.1-9.5 15-12.3-2.3 0-4.4 0.9-6.3 1.9-4.4 2.3-8.2 5.5-11.3 9.3-0.3 0.4-0.6 0.7-1 1-0.3 0.2-0.8 0.2-1.2 0.2-4.3 0.4-8.6 1.2-13 2z"/><path class="a" d="m354.2 311c1.3 1.2 2.3 2.6 2.9 4.3 7.5-3.2 16.1-3.9 24.1-1.8-7.7-0.4-15.4 0.8-22.6 3.4 0.5 2 0.7 4 0.5 5.9 8.3 0.1 16.5 3.4 22.6 9-7-3.1-14.6-4.7-22.2-5-0.3 2.5-1.2 4.9-2.7 7 4.3 2.1 7.8 5.7 9.9 10-2.9-2.6-6.3-4.7-9.9-6.2-0.4-0.1-0.8-0.3-1.3-0.2-0.3 0.1-0.6 0.3-0.9 0.5q-2.8 2.3-5.7 4.5c2.5 2.3 3.5 5.7 4.4 9 1 3.2 2.4 6.6 5.3 8.3 3.6 2.1 8.6 0.4 11-3 2.4-3.4 2.5-8 1.1-12 4.9 1.2 10.1 1.4 14.9-0.3 4.8-1.6 9-5.3 10.6-10 1.5-4.8 0.1-10.7-4-13.6 3.7-0.2 7.2-1.7 10-4.1 2.5-2.2 4.5-5.4 3.9-8.7-0.4-2.8-2.6-5.1-5.2-6.3-2.5-1.2-5.5-1.5-8.3-1.4-6.2 0.2-12.3 1.7-18.3 3.5-6.7 2-13.2 4.4-20.1 7.2z"/><path fill-rule="evenodd" class="c" d="m339.9 366.4c-0.2 1.1-1.2 1.9-2.2 2.4-3.2 1.7-7.2 1.5-10.4 3.2-2 1.1-3.5 2.9-5 4.6-2.1 2.1-4.3 4.2-6.9 5.5-2.7 1.2-5.9 1.6-8.6 0.5-4-1.8-5.8-6.2-6.9-10.4-1-3.9-1.6-8.1 0-11.9 3.3 0.5 6.5-0.5 9.8-0.9 4.3-0.7 8.6-0.6 12.9-0.3 5.1 0.4 10.4 1.1 14.9 3.7 1.3 0.8 2.6 2.1 2.4 3.6zm-28.2 11.6c0.2-2-1.5-3.6-2.9-5.1-2.4-2.5-4.2-5.5-5.3-8.6q1.4 5 3.5 9.8c0.5 1.2 1.1 2.5 2.1 3.4 0.6 0.5 1.3 0.8 2 1 0.2 0 0.3 0 0.4-0.1 0.2 0 0.2-0.2 0.2-0.4zm7.8-5.3c0.1-0.9-0.6-1.6-1.2-2.2q-2.3-2.1-4.9-3.9c-1.5-1-3.1-2-3.9-3.3 1.6 2.8 3.3 5.7 5.6 8 1 1 2.2 1.9 3.6 2 0.2 0 0.4 0 0.5-0.1 0.2-0.1 0.3-0.3 0.3-0.5zm8.6-4.5c0-0.5-0.3-0.8-0.7-1.1-2.4-2-5.7-2.5-8.2-4.2 1.3 1.8 2.9 3.4 4.7 4.8 0.8 0.6 1.7 1.3 2.8 1.3 0.6 0.1 1.3-0.2 1.4-0.8z"/><path class="a" d="m135.1-54.3q36.6 28.2 73.2 56.4c14.4-12.3 33.4-19.2 52.3-19.1 19 0 37.9 7.1 52.4 20 23-20.2 47.3-38.9 72.7-56-8-1.8-15.8-4.1-23.5-6.9-1-0.4-2.1-0.8-2.9-1.5-1.1-1-1.7-2.6-2.3-4q-3.4-9.3-6.8-18.5c-0.4-1.1-0.9-2.2-1.9-2.8-0.7-0.3-1.6-0.3-2.4-0.3q-10.4 0.5-20.9 1c-1.6 0-3.3 0.1-4.7-0.5-1.9-0.8-3.1-2.6-4.2-4.2q-3.7-5.4-7.3-10.7c-0.8-1.2-1.7-2.5-3.1-2.9-1.1-0.4-2.2-0.1-3.4 0.1q-9.1 2-18.3 3.9c-1.5 0.4-3.1 0.7-4.7 0.3-1.5-0.4-2.8-1.5-4-2.6q-5.3-4.7-10.6-9.5c-0.9-0.7-1.9-1.5-3-1.6-1.3-0.2-2.4 0.6-3.5 1.3q-6.7 4.5-13.5 9c-1.4 1-3 2-4.8 2.2-1.6 0.3-3.2-0.2-4.8-0.6q-10.1-2.7-20.2-5.5-5.7 9-11.4 18c-0.7 1-1.5 2.2-2.7 2.6-1.1 0.5-2.3 0.2-3.5 0q-10.2-2.3-20.4-4.6c-5.6 7.9-6.7 18.6-13.8 25.1-7.7 7.1-19.6 6.6-28 11.9z"/><path class="b" d="m303.8 2.6c-0.3-0.5-0.9-0.6-1.4-0.2-13.1 10.1-26.2 20.2-39.2 30.3 6.7-14.1 13.7-28.1 21.1-41.7 0.2-0.5 0-1.1-0.5-1.4-0.4-0.2-1-0.1-1.3 0.4-7.3 13.6-14.3 27.5-21 41.5 0.1-15.2 0-30.4-0.4-45.5 0-0.6-0.5-1-1-1-0.6 0-1 0.5-1 1 0.4 15.3 0.5 30.7 0.4 46-7.2-14.2-14.8-28.3-22.7-42-0.3-0.5-0.9-0.6-1.4-0.4-0.5 0.3-0.6 0.9-0.4 1.4 7.9 13.6 15.5 27.6 22.6 41.7-13.3-10-26.8-19.8-40.5-29-0.5-0.3-1.1-0.2-1.4 0.3-0.3 0.4-0.2 1 0.2 1.3 14.5 9.8 28.9 20.1 42.9 30.7q-9.1 7.1-18.1 14.1c-0.4 0.3-0.5 1-0.1 1.4 0.2 0.3 0.4 0.4 0.7 0.4q0.4 0 0.7-0.2 7.8-6.1 15.8-12.3-3.4 7.2-6.7 14.5c-0.2 0.5 0 1 0.5 1.3q0.2 0.1 0.4 0.1c0.4 0 0.8-0.3 1-0.6q3.2-7.2 6.5-14.3 0 7.8-0.2 15.5c0 0.6 0.5 1 1 1 0.6 0 1-0.4 1-0.9q0.2-7.8 0.2-15.7 3.4 6.9 6.7 13.9c0.2 0.3 0.6 0.5 0.9 0.5q0.2 0 0.5-0.1c0.5-0.2 0.7-0.8 0.4-1.3q-3.3-6.9-6.7-13.8 6.2 4.7 12.3 9.5 0.2 0.2 0.6 0.2c0.3 0 0.6-0.1 0.8-0.4 0.3-0.4 0.2-1-0.2-1.4q-7.3-5.7-14.7-11.4c13.8-10.6 27.7-21.4 41.5-32 0.5-0.4 0.6-1 0.2-1.4z"/><path class="b" d="m239.9-101.2q-0.6 0.1-1.3 0.1c3.3 28.2 6.4 56.8 9.2 85.1q1-0.2 2-0.3c-2.8-28.3-5.9-56.8-9.2-85-0.2 0-0.4 0.1-0.7 0.1zm-25-6.1q-0.4 0.6-0.8 1.2c11.2 29.7 20.5 60.4 27.7 91.3q1-0.2 1.9-0.5c-7.2-31-16.5-61.9-27.8-91.7q-0.5-0.2-1-0.3zm-13.9 20.5c11 24.6 21.6 49.8 31.4 74.9q0.9-0.4 1.9-0.7c-9.9-25.3-20.6-50.7-31.7-75.5-0.4 0.5-0.9 1-1.6 1.3zm-39.7 22.1c18.3 20.3 37.2 40.5 56.3 60.1q0.8-0.6 1.7-1.1c-19.1-19.7-38.1-39.9-56.4-60.3q-0.8 0.7-1.6 1.3zm15.9-26.5q-0.2 0-0.3-0.1-0.6 0.9-1.1 1.7c7 13.6 15.5 26.7 23.6 39.3 8.7 13.4 17.7 27.3 25 41.8q0.9-0.4 1.8-0.9c-7.4-14.6-16.3-28.5-25.1-42-8.3-12.8-16.8-26-23.9-39.8zm128.5-13.1q-0.2-0.1-0.5-0.1c-11 29.2-21.6 58.9-31.6 88.5q1 0.2 2 0.4c9.9-29.4 20.5-59 31.4-88-0.4-0.4-0.8-0.7-1.3-0.8zm-44-9.4c-0.2-0.1-0.4 0-0.6 0 0.5 32.2-0.9 64.7-4.2 96.7q1 0 2 0c3.3-31.9 4.7-64.2 4.2-96.2-0.4-0.3-0.9-0.5-1.4-0.5zm86.7 27.1c-18.2 25.7-37.3 51.3-56.7 76.1q0.9 0.4 1.8 0.8c19.3-24.5 38.2-49.8 56.2-75.3-0.3-0.7-0.7-1.2-1.3-1.6zm-27.8 0.2c-12.5 24.3-25.7 48.5-39.4 72.2q1 0.3 1.9 0.6c13.8-23.7 27-48 39.5-72.4q-1.1-0.1-2-0.4zm39 25.2c-19.1 18.5-38.3 37.4-57.3 56.2q0.8 0.5 1.7 1.1c19-18.9 38.3-37.7 57.5-56.3-0.7-0.3-1.3-0.6-1.9-1zm-77.8-38.7q-1 0.1-2 0c-2.5 12.3-4.2 24.8-5.9 37-2.1 15.2-4.2 30.9-7.8 46.1q1 0.1 2 0.2c3.6-15.2 5.7-30.8 7.8-46 1.6-12.3 3.4-24.9 5.9-37.3z"/><path class="b" d="m-161.1-258.2c3.4-2.9 4.2-8.3 2.4-12.4-0.8-1.9-2.1-3.5-3.7-4.6-2.1-1.3-4.7-1.6-7.1-1.8q-9.3-0.8-18.6-0.3c-3.8 0.2-7.4-0.4-10.9-0.3-3.6 0.2-7.4 1.2-9.5 4.1-2.7 3.6-1.8 8.9 0.8 12.6 0.8 1.1 1.6 2 2.7 2.7 2 1.3 4.5 1.4 6.9 1.5q12.1 0.6 24.1 1.1c4.5 0.2 9.4 0.3 12.9-2.6zm214.8-16.2c-3.9-1.8-8.3-1.9-12.6-1.9q-40-0.4-80-0.7c-4.6-0.1-9.4-0.2-13.3-2.5-4-2.3-6.6-7.5-4.4-11.5 2.1-3.7 6.9-4.6 11.1-4.9 10.2-0.8 20.5-0.8 30.8 0.1 3.5 0.3 7.2 0.7 10.6-0.3 3.4-1 6.6-3.9 6.7-7.5 0-3.3-2.5-6.2-5.5-7.5-3-1.4-6.4-1.5-9.7-1.6q-47.1-1.4-94.2-2.8c-1.4 0-3.4 0.2-5.4 0.2-2.7-0.1-5.6-0.1-8.2 0.7-3.6 1.2-6.6 4.2-7.7 7.9-0.6 2-0.7 4.2 0.2 6.1 1.2 2.5 3.9 4 6.5 5.1 4 1.6 8.3 2.6 12.6 2.9 2.3 0.2 4.7 0.2 6.9 1 2.1 0.9 4.1 2.9 4 5.2 1 5.1-4.4 7.2-9 8-6 1-12.1 1.5-18.2 1.4-3.5-0.1-7-0.4-10.4 0.4-3.3 0.7-6.6 2.6-8.1 5.8-2.4 5.1 1.4 11.5 6.6 13.9 5.1 2.5 11.1 2.2 16.8 1.9 13.8-0.6 27.5-0.3 41.2 0.7 3 0.2 6.2 0.6 8.2 2.7 3.5 3.5 1.4 10-2.7 12.6-4.2 2.7-9.4 2.7-14.4 2.6l-34.5-0.6c-18-0.4-36.6-0.8-55.3-1.2-6.6-0.1-14.8 0.7-17.3 6.8-2.1 5.2 1.7 11.2 6.7 13.6 5.1 2.4 10.9 2.2 16.5 2q20.6-0.8 41.2 0.2c2 0.2 4.1 0.3 5.9 1.1 4.4 2.1 6 8.4 3.1 12.3-3.2 4.3-9.5 4.4-14.9 4.2-5.4-0.2-11.9 0.5-14.4 5.3-2.4 4.5 0.6 10.4 5 13 4.5 2.5 9.9 2.6 15 2.7q15.8 0.1 31.5 0.2c8.2-0.4 16.7-0.6 25.3-1.1 4.5-0.3 9.5-0.9 12.6-4.3 3.4-3.5 3.2-9.9-0.4-13.2-2.8-2.7-6.9-3.3-10.8-3.4-3.9-0.1-7.8 0.2-11.5-1-3.7-1.1-7.2-4.3-7.1-8.2 0.1-3.4 2.9-6.2 6-7.4 3.1-1.3 6.5-1.2 9.9-1.2q34.3 0.3 68.6 0.6c5 0.1 10.2 0.1 14.5-2.3 4.4-2.4 7.4-8 5.2-12.4-2.1-4.2-7.5-5.4-12.1-5.8-8.4-0.8-16.9-0.9-25.3-0.3-5.1 0.3-10.4 0.9-15.1-1-4.8-1.9-8.5-7.4-6.5-12.1 2.2-5.3 9.2-6 14.9-5.9l30 0.6c14.1-0.1 28.6-0.1 43.1 0 4.3 0 8.8 0 12.6-1.9 2.8-1.5 5.3-4.1 5.7-7.2 0.6-4.3-2.6-8.3-6.5-10.1z"/><path fill-rule="evenodd" class="b" d="m170.7-287.9c0-0.5 0.3-0.9 0.7-1.1 4.4-1.2 8-5.5 8.2-10 0.1-0.5 0.5-1 1-1 0.6 0 1 0.5 1 1 0.1 2.2 0.7 4.3 1.9 5.9 1.2 1.7 3.1 2.8 5 3 0.5 0 0.8 0.4 0.9 0.9 0 0.5-0.3 0.9-0.7 1.1-4 1.1-7 5.2-7 9.3q0 0.2 0 0.4c0 0.5-0.4 1-0.9 1q0 0-0.1 0c-0.5 0-0.9-0.4-1-0.9q0-0.2 0-0.4c-0.1-2.1-0.9-4.1-2.4-5.6-1.4-1.5-3.5-2.5-5.7-2.7-0.5 0-0.9-0.4-0.9-0.9zm4.2-0.4c1.5 0.6 2.8 1.5 3.9 2.7q1.1 1.1 1.8 2.5c0.9-2.4 2.7-4.5 4.9-5.8-1.4-0.7-2.7-1.7-3.7-3q-0.8-1.2-1.3-2.5c-1.2 2.5-3.2 4.7-5.6 6.1zm48.3-9.4c0.1 0.5-0.2 0.9-0.7 1.1-6.1 1.7-10.7 8-10.7 14.4q0.1 0.2 0.1 0.5c0 0.5-0.5 1-1 1q0 0 0 0c-0.6 0-1-0.4-1-0.9q0-0.3-0.1-0.6c-0.1-3.1-1.4-6.2-3.6-8.5-2.3-2.5-5.5-4-8.9-4.3-0.4 0-0.8-0.4-0.9-0.9 0-0.5 0.3-0.9 0.8-1 6.7-1.9 12.1-8.5 12.5-15.4 0-0.5 0.5-1 1-1 0.5 0 1 0.5 1 1 0 3.4 1 6.6 2.8 9.1 1.9 2.6 4.9 4.3 7.8 4.6 0.5 0 0.9 0.4 0.9 0.9zm-4.2 0.3c-2.4-0.9-4.5-2.5-6.1-4.7-1-1.4-1.8-3-2.4-4.8-1.7 4.5-5.2 8.4-9.5 10.6 2.5 0.8 4.8 2.3 6.6 4.2 1.3 1.3 2.4 3 3.1 4.7 1.4-4.2 4.4-7.9 8.3-10zm0.1 45.2c0.5 4.1-0.2 8.8-1.8 12.7-6 14.5-18.3 26.3-33 31.6-5.7 2.1-11.9 3.3-19.1 3.9-2.2 0.1-4.6 0.2-7.2 0.2-11.2 0-25.1-2-37.6-10-13.8-8.7-22.5-23.1-22.9-37.8q-0.1-0.6 0-1.3c0.3-2.7 2.8-4.3 4.7-5.3 11.3-6.2 24.7-7.5 36.5-8.5 3-2.1 6.3-3.8 9.8-5 4-1.4 8-1.9 11.8-1.8 6 0.3 12 2.8 16.9 6.7q0.1 0 0.2 0c13.1 1.6 24.4 3 36.2 8.4q4.5 2.1 5.3 5 0.1 0.1 0.1 0.1 0 0.1 0 0.1 0.1 0.5 0.1 1 0 0 0 0zm-39.4-12.3q1.2 1.2 2.2 2.5c4.9 6 7.7 13.9 7.9 22.3 8.7-1.2 17.2-3.4 24.4-8.4 1.9-1.4 2.9-2.7 2.9-4q0-0.4-0.1-0.7-0.5-2.1-4.3-3.8c-10.7-4.9-21.1-6.4-33-7.9zm-46.9 6.3c-4.4 5.9-6.2 11.7-5.6 17.8 17.5 2.9 36.3 3.5 56 1.5q2.3-0.2 4.6-0.5c-0.2-8.1-2.8-15.6-7.4-21.4-5.1-6.3-12.7-10.3-20.2-10.7-3.5-0.1-7.3 0.4-11.1 1.7-3.3 1.1-6.3 2.7-9 4.6q-0.2 0.2-0.5 0.3c-2.7 2-5 4.2-6.8 6.7zm-33.3 6.4c0.4 1.6 1.9 3 3 3.7 4.5 3.2 10.1 4.8 15.5 6q3.5 0.8 7.2 1.4c-0.5-6.4 1.4-12.5 6-18.7 1.3-1.8 2.9-3.5 4.7-5.1-10.9 1-22.8 2.5-32.8 8-2.3 1.3-3.4 2.5-3.6 3.9q0 0 0 0 0 0.4 0 0.8zm117.7 3.7q-0.8 0.8-1.9 1.6c-9.3 6.6-20.8 8.5-31.9 9.6q-11.9 1.2-23.4 1.2c-14.9 0-29.1-1.5-42.5-4.5-5.6-1.2-11.4-2.8-16.2-6.2q-0.7-0.5-1.4-1.2c1.7 12.5 9.8 24.7 21.6 32.2 14.8 9.4 31.9 10.3 43.5 9.4 7.1-0.6 13.1-1.8 18.6-3.8 14.2-5.1 26.1-16.5 31.8-30.5 1-2.4 1.6-5.1 1.8-7.8z"/><path fill-rule="evenodd" class="b" d="m393.5-205.1c0 4.4-2 8.8-5.6 12-3.5 3.3-8 4.9-12.4 4.6-4.1-0.4-7.7-2.1-11-4.5-7.7 7.7-17.9 12.8-29.2 14.2q2.6 2.9 5.1 5.8c2.8 3.4 5.7 7 7.4 11.3 2 4.8 2.1 9.8 0.3 13.7-2.2 4.9-7.4 8.5-13.7 9.3q-1.4 0.1-2.7 0.1c-4.4 0-8.7-1.3-12-3.7-4.3-3.2-7-8.4-6.9-13.5 0-5.2 2.7-9.9 5.6-14.2 2-3 4.1-5.8 6.3-8.6-11.9-1.1-22.6-6.2-30.7-14.1-4 3.5-8.4 6.4-13.5 6.6-3.8 0.1-7.6-1.4-10.7-4.3-3.6-3.3-5.7-8.1-5.8-12.7-0.1-8.7 6.3-15.8 12.8-22.4l1.9-1.9q0-0.7 0-1.5 0-1.8 0.1-3.5-3.4-3.5-6.6-7.2c-2.7-3.1-5.5-6.5-6.7-10.6-1.5-5-0.4-10.7 3-14.7 3.3-4.1 8.6-6.3 13.9-5.8 4.5 0.4 8.4 2.7 11.9 5.3 8.6-8.3 20.2-13.5 33.1-13.9l-7.9-8.1c-3-3.2-6.9-7.1-7.8-12.2-0.6-3.8 0.4-7.9 2.9-11.8 3.9-6 10.5-9.8 17.1-9.9q0.1 0 0.2 0c7.1 0 13.8 4.5 16.1 10.8 1.7 4.9 1 10.9-2.1 16.5-2.7 4.9-6.6 8.8-10.4 12.7l-2.2 2.1c11.8 1 22.4 6 30.5 13.7 5.3-2.9 10.7-4.1 15.7-3.3 7.1 1.1 12.8 6.6 13.7 12.9 0.9 7.1-3.8 13.4-8.6 18.6-1.7 1.8-3.4 3.6-5.1 5.3q0.1 1.6 0.1 3.1 0 0.2 0 0.5l2 2c6 6.2 12 13 11.9 21.3zm-28.2-59c7.6 7.9 12.7 18.1 14 29.5 1.3-1.4 2.6-2.7 3.8-4 4.5-4.9 8.9-10.7 8.1-17-0.7-5.4-5.9-10.2-12-11.2-4.4-0.7-9.2 0.3-13.9 2.7zm-3.1 1.9c-3.1 2.1-5.8 4.6-8.3 7.3l22.6 23.2q0.5-0.5 1-1c-0.9-11.8-6.1-22.4-14-30.3q-0.7 0.4-1.3 0.8zm-12 56q-4.7-4.8-9.3-9.7l-10.5 10.3q-0.3 0.3-0.7 0.3-0.4 0-0.7-0.2c-3.9-3.2-7.8-6.7-11.6-10.6q-4.8 4.9-9.5 9.6c7.3 7 14.8 14.2 21.8 21.6 6.5-7.5 13.4-14.5 20.5-21.3zm-20.4 24.4c-0.4 0.4-0.7 0.9-1.1 1.4q0.2 0 0.4 0 1 0 2-0.1-0.6-0.7-1.3-1.3zm-11.6-58.4q-5.2 5.2-10 10.8c3.1 3.7 6.1 7.2 9.2 10.4q5.2-5.4 10.5-10.9-4.7-5.2-9.7-10.3zm11.1 8.8q5-5.2 10-10.6-5-4.2-10.1-8.2-4.9 4.1-9.5 8.6 4.9 5.1 9.6 10.2zm-10.5 13.8c3.5 3.7 7.1 7 10.8 10l9.9-9.8q-3.6-3.8-7.1-7.7-1.5-1.6-3.1-3.3-5.3 5.5-10.5 10.8zm22.1-1.2l11.6-11.4q-5.7-5.4-11.7-10.5-5 5.5-10.1 10.8 1.6 1.8 3.2 3.5 3.5 3.8 7 7.6zm6.3-31.8l0.6-0.6q1.6-1.9 3.3-3.7l-20.7-21.3-22.7 22.6q5.4 5.2 10.6 10.6c3.3-3.2 6.7-6.3 10.2-9.3 0.3-0.3 0.9-0.3 1.2 0q5.6 4.3 11 8.8 3.3-3.5 6.5-7.1zm-40.9-1.5l-22.3 22.3c7 7.2 14.2 14.1 21.3 20.9q0.6 0.5 1.1 1 4.7-4.7 9.6-9.7c-3.3-3.4-6.6-7.2-9.8-11.2-0.3-0.4-0.3-1 0-1.3q5.1-6 10.7-11.5c-3.5-3.6-7-7.1-10.6-10.5zm45.3 44.5q3.7-3.5 7.4-7c5.3-5.1 10.8-10.3 16.1-15.6l-22.6-23.3q-1.6 1.8-3.2 3.6l-0.6 0.6q-3.2 3.6-6.5 7.1 6.4 5.5 12.4 11.3 0.3 0.3 0.3 0.7c0 0.2-0.1 0.5-0.3 0.7l-12.3 12.2q4.6 4.9 9.3 9.7zm-19.5-69.7l20.4 20.9c2.6-2.7 5.4-5.3 8.5-7.4q0.5-0.3 1.1-0.7c-8-7.3-18.4-12.1-30-12.8zm-2-2.1q0.3 0 0.6 0l3.3-3.3c3.8-3.8 7.6-7.6 10.2-12.3 2.8-5.1 3.5-10.5 1.9-14.8-2-5.5-7.9-9.5-14.2-9.5q-0.1 0-0.2 0c-5.9 0.1-11.9 3.5-15.4 9-2.2 3.4-3.2 7.1-2.6 10.3 0.8 4.5 4.4 8.2 7.3 11.2zm-34.3 15.3q1 0.8 2 1.6 4.3 3.7 8.4 7.6l22.4-22.5c-12.7 0.1-24.2 5.2-32.8 13.3zm-15 31q0.9 0.9 1.7 1.8l22.3-22.2q-4.1-3.9-8.3-7.5-1-0.9-2.1-1.7c-7.6 7.8-12.6 18.1-13.6 29.6zm-0.1 2.7q-0.1 0.5-0.1 1.1l0.5-0.6q-0.2-0.2-0.4-0.5zm-1.7-4.6c1.4-11.2 6.4-21.2 13.8-28.9-3.2-2.4-6.7-4.4-10.6-4.8q-0.7-0.1-1.3-0.1c-4.1 0-8.3 2-10.9 5.1-2.9 3.5-3.9 8.6-2.6 12.9 1 3.7 3.6 6.8 6.3 9.9q2.6 3 5.3 5.9zm13.5 40.8c-7.7-8.1-12.7-18.7-13.7-30.5l-0.6 0.6c-6.3 6.3-12.3 13-12.2 20.9 0 4.1 2 8.4 5.1 11.3 2.7 2.6 6 3.9 9.3 3.8 4.5-0.2 8.4-2.7 12.1-6.1zm1.5-1.3q1.2-1.1 2.3-2.3 4.3-4.2 8.7-8.7-0.6-0.5-1.1-1c-7.1-6.8-14.4-13.7-21.4-20.9l-1.8 1.8c0.6 12 5.5 22.9 13.3 31.1zm32.2 15c0.7-1 1.4-1.9 2.2-2.8-7.1-7.6-14.6-14.8-22-21.8q-4.4 4.5-8.7 8.7-1.1 1.2-2.3 2.3c8.1 7.8 18.9 12.9 30.8 13.6zm6.6 1.9q-1.8 0.2-3.7 0.2-1 0-2-0.1c-2.5 3.1-4.9 6.3-7.1 9.6-2.7 4-5.2 8.4-5.3 13.1 0 4.5 2.3 9 6.2 11.8 3.6 2.7 8.4 3.9 13.2 3.3 5.6-0.8 10.2-3.8 12.2-8.1 1.5-3.4 1.4-7.8-0.4-12.1-1.6-4.1-4.4-7.6-7.1-10.8q-2.9-3.5-6-6.9zm30.1-15.6c-1.9-1.5-3.7-3.1-5.4-4.7q-3-2.9-6-5.9c-7 6.8-14 13.9-20.4 21.4q1.3 1.4 2.5 2.8c11.3-1.1 21.5-6.1 29.3-13.6zm14.7-33.4l-1.2-1.2c-5.3 5.3-10.7 10.5-16.1 15.6q-3.6 3.5-7.3 7 2.9 3 5.9 5.9c1.7 1.6 3.5 3.2 5.4 4.7 7.9-8.4 12.9-19.7 13.3-32zm13.9 22.5c0-7.6-5.6-14-11.4-19.9l-0.6-0.7c-0.8 12.1-5.8 23-13.6 31.3 3 2 6.2 3.6 9.7 3.9 3.8 0.3 7.8-1.2 10.9-4.1 3.2-2.8 5-6.7 5-10.5z"/><path fill-rule="evenodd" class="b" d="m68.5 26c-1.5-3.4-3.1-8.7-1.8-14.1 0.7-3.4 2.6-6 5-7.2 1.9-1 4-1 5.4-1 2.7 0.1 4.7 0.6 6.2 1.6 2.4 1.6 3.9 4.5 4.1 7.8 0.1 3-0.7 5.8-1.7 8.4-2 5.7-4.5 10.9-8 16.3-0.1 0.3-0.4 0.5-0.8 0.5q0 0 0 0c-0.3 0-0.6-0.2-0.8-0.4-2.8-3.7-5.6-7.5-7.6-11.9zm1.8-0.8c1.7 3.7 4.1 7.1 6.5 10.3 3-4.8 5.2-9.5 7.1-14.7 0.8-2.4 1.6-5 1.5-7.6-0.2-2.7-1.3-5-3.2-6.2-1.2-0.8-2.8-1.3-5.1-1.3q-0.2 0-0.4 0c-1.7 0-3 0.2-4.1 0.8-1.9 0.9-3.4 3.1-4 5.9-1.1 4.8 0.3 9.6 1.7 12.8zm70.4 88.7c-2.1 2.9-5.2 4.8-8.5 5.1-5.5 0.5-10.5-2.9-14.7-6.3q-4.5-3.7-8.7-7.7-1.2 1.2-2.4 2.4-7.2 7.2-14.2 14.7l8.6 9.1c2.2 2.4 4.6 4.8 6.1 7.8 1.8 3.5 2.1 7.3 0.8 10.2-2.3 5.4-9.1 7.3-14.3 6-5.3-1.3-9.5-4.9-13.4-8.5q-2.2-2-4.4-4c0.6 9.1 1 18.3 1.4 27.4 0 0.6-0.4 1-1 1.1q0 0 0 0c-0.6 0-1-0.5-1-1-0.4-9.1-0.8-18.4-1.4-27.5q-1.2 1.5-2.5 3c-2.6 3-6.2 7.2-10.3 10.7-3.1 2.7-6.2 4-9.3 4q-0.6 0-1.3-0.1c-3.3-0.4-6.4-2.1-8.5-4.9q-1.2-1.4-1.6-2.9c-0.5-1.5-0.6-3.1-0.3-5.2 0.6-4.8 2.8-9.4 6.1-12.9q5.1-5.6 10.2-11-0.1-0.1-0.2-0.2c-5.5-5.7-11.2-11.4-17-17-4 3.6-8.6 6.9-14 8.5-7.9 2.3-18.5-0.3-21.8-8.5-1.6-4.1-1-8.8 1.4-12.4 2.5-3.6 6.7-5.8 11.1-5.7 6 0 11 4.1 15.3 7.9q4.1 3.6 8.1 7.5c1.5-1.4 3-2.9 4.4-4.3l12.5-12.3-6.4-6.7c-2.9-3.1-6.1-6.5-8-10.6-2.2-4.7-2.1-9.8 0.2-13.4 3.6-5.7 11.4-6.5 17-4.4 5.6 2.1 9.9 6.4 14.1 11.1q1.4 1.5 2.8 3l0.3-21.5c0-0.5 0.4-0.9 1-1 0.5 0.1 1 0.5 1 1.1l-0.3 21.3c2.8-2.6 5.8-5.2 8.8-7.5 2.9-2.2 6-4.4 9.6-5.3 4.1-1.1 8.3-0.2 10.8 2.4 3.4 3.3 3.4 8.6 1.9 12.4-1.5 4-4.6 7.3-7.3 10.1q-3.9 4.2-7.9 8.4c4.9 5.5 10 10.9 15.3 16 4.1-3.9 8.5-7.3 13.6-9.2 5-1.9 10.1-1.8 14 0.2 3.9 2.1 6.6 6.3 7.1 10.9 0.3 3.4-0.7 6.9-2.8 9.7zm-103.2-9.1q-3.9-3.7-8-7.3c-3.9-3.6-8.6-7.4-14-7.4h-0.1c-3.6 0-7.2 1.9-9.2 4.8-2.1 3-2.5 7.2-1.2 10.5 2.7 7 12.2 9.5 19.3 7.4 5-1.5 9.3-4.6 13.2-8zm40.2-36.5q3.1 3.6 6.2 7.1 4.1 4.7 8.3 9.4 3.9-4.1 7.8-8.3c2.7-2.8 5.4-5.8 6.8-9.4 1.3-3.2 1.3-7.6-1.4-10.3-2.5-2.5-6.2-2.6-8.9-1.9-3.1 0.8-5.8 2.6-8.9 5-3.4 2.6-6.7 5.5-9.9 8.4zm-10.5 10.2l-8.5 8.4 15.9 16.7q8.1-8.7 16.2-17.3-4.3-4.8-8.4-9.5-3-3.5-6.2-7.1c-3.1 2.9-6.1 5.9-9 8.8zm-9.9 7l8.5-8.4c2.9-3 6-6 9.1-8.9q-1.8-2-3.6-4c-4-4.5-8.1-8.6-13.3-10.6-1.6-0.6-3.4-0.9-5.2-0.9-3.7 0-7.4 1.4-9.4 4.6-2.3 3.6-1.6 8.3-0.1 11.5 1.8 3.8 4.7 6.9 7.6 10zm0.1 36.3l0.1 0.1q7.9-8.5 15.7-16.8l-15.9-16.8-12.5 12.4c-1.4 1.3-2.8 2.8-4.3 4.2 5.8 5.5 11.4 11.3 16.9 16.9zm15.8 18.5c-5.4-5.1-10.5-10.3-15.6-15.5q-5.1 5.4-10.2 10.9c-3 3.3-5 7.5-5.6 11.9-0.2 1.7-0.2 3.1 0.2 4.2q0.4 1.2 1.3 2.4c1.8 2.3 4.4 3.8 7.2 4.1 3 0.4 5.9-0.7 9-3.4 4.1-3.4 7.6-7.5 10.1-10.5q1.8-2 3.6-4.1zm16.3-18.1l-14.9-15.7q-7.8 8.4-15.7 16.8c5.1 5.2 10.3 10.4 15.6 15.5q7.3-8.4 15-16.6zm1.4 1.4q-7.7 8.2-15 16.6 2.7 2.6 5.5 5.1c3.8 3.5 7.7 6.8 12.5 8 4.4 1 10.1-0.5 12-4.8 1-2.5 0.8-5.6-0.7-8.5-1.4-2.8-3.7-5.1-5.8-7.4zm16.5-20c-5.3-5-10.3-10.4-15.2-15.8q-8 8.5-16.2 17.2l14.9 15.7q7-7.5 14.1-14.7 1.2-1.2 2.4-2.4zm34.2 0.8c-0.4-3.9-2.8-7.6-6.1-9.4-3.3-1.7-7.8-1.8-12.4-0.1-4.8 1.8-8.8 4.9-12.8 8.7q4.1 4 8.6 7.6c3.8 3.1 8.4 6.2 13.2 5.8 2.7-0.3 5.2-1.8 7.1-4.3 1.8-2.4 2.7-5.5 2.4-8.3z"/><path class="a" d="m95.8 232.3c-5.7-8.4-8.1-18.7-9.4-28.9-0.7-5.4-1.2-10.9-2.9-16.2-0.2-0.4-0.3-0.8-0.7-1.1-0.4-0.3-0.9-0.3-1.4-0.2q-5.9 0.2-11.8 0.5c-2.3 0.1-2.4 4.2-2.7 6.8-1.5 14.1-7.6 27.6-17 38.2-0.2 0.3-0.5 0.7-0.5 1.1 0 0.5 0.4 0.9 0.8 1.2 2.9 2 6.1 3.7 9.3 5q0 0 0.1-0.1c4.6-8 7.3-17 7.8-26.2 0.1-0.6 0.5-1 1.1-1 0.5 0 1 0.5 0.9 1.1-0.5 9.4-3.3 18.7-8 26.9q1.5 0.5 3.1 1 0-0.1 0-0.3c1.5-2.3 2.7-4.8 3.6-7.4 0.2-0.6 0.8-0.8 1.3-0.7 0.5 0.2 0.8 0.8 0.6 1.3-0.9 2.6-2.1 5.2-3.6 7.6 6.3 1.4 12.9 1.5 19.2 0.1-4.3-8.2-6.7-17.5-7-26.7 0-0.6 0.4-1.1 1-1.1 0.6 0 1 0.4 1 1 0.3 9.1 2.7 18.1 6.9 26.2q0.1 0.1 0.1 0.1c2.7-0.7 5.3-1.6 7.5-3.2 0.8-0.6 1.6-1.3 1.7-2.3 0.1-1-0.5-1.9-1-2.7zm-19.3-184.9c4.5 0 8.1-3.6 8.1-8.1 0-4.5-3.6-8.1-8.1-8.1-4.5 0-8.1 3.6-8.1 8.1 0 4.5 3.6 8.1 8.1 8.1zm-9.5 133c0.4 0.3 0.9 0.3 1.4 0.3q7.6 0.1 15.2-0.3c1.3 0 2.7-0.2 3.5-1.2 0.6-0.7 0.7-1.7 0.8-2.7 0-1.1 0.1-2.3-0.2-3.5-0.2-1.1-0.9-2.2-1.9-2.7-0.8-0.5-1.8-0.5-2.8-0.6q-5.4-0.1-10.8 0.5c-1 0-2.7-0.1-4.4 0-0.4 0-0.9 0.1-1.3 0.3-0.5 0.3-0.7 1-0.8 1.6-0.4 2.3-0.3 4.6 0.3 6.8 0.2 0.6 0.4 1.2 1 1.5z"/><path fill-rule="evenodd" class="b" d="m-12.6 242.3q-5.6-0.4-11.2-0.8 3.3 5.3 7.1 10.2c-7.7 1.9-15.8 2.7-23.6 1.1-7.8-1.6-15.2-5.9-19.5-13 2.9 8 2.2 17.2-1.4 24.9-3.6 7.8-9.9 14.1-17.3 18.3-1.5-3.4-2.6-6.9-3.3-10.5q-2.9 4.4-5.7 8.8c-6-5.5-9.8-13.4-10.2-21.6-0.4-8.2 2.5-16.5 8.2-22.8-3.5 2-7.7 2.5-11.8 2.9-6 0.6-12.2 1-18.2-0.1-6-1.2-11.8-4-15.5-8.9q4.9-1.9 9.8-3.7c-3.6-1.5-7.5-2.4-11.3-2.6 6.4-10.4 18.1-17.4 30.4-18 0 0 0.8-0.1 2.6-0.1 2.6-0.2 5.2 0.1 8.3 0.9-3.5-2.6-7-5.3-9.5-8.9-3.6-4.9-5.1-11.1-5-17.1 0.1-6.1 1.6-12 3.6-17.7q4.9 2.9 9.5 6.4 0.3-5-0.3-9.9c7.3 1.5 14.4 4.7 19.6 9.9 5.3 5.2 8.6 12.7 7.8 20.3 2.5-7.2 8.2-13.2 14.9-16.8 6.8-3.6 14.6-5 22.3-4.8q-0.8 4.8-1.7 9.6 4.2-2.5 8.4-5c2.5 7.5 2 16-1.5 23.1-3.4 7.2-9.8 12.8-17.9 15.7 8.3 0.2 16.6 2.9 22.8 8.3 6.2 5.4 10.2 13.7 9.6 21.9zm-40.4-21.5c0-1.8-1.5-3.3-3.3-3.3-1.4 0-2.6 0.9-3.1 2.2q-0.1 0-0.1 0l-6.9-0.4q0 0-0.1 0-0.1-1.4-0.7-2.5 0.1-0.1 0.1-0.1l5.1-4.6q0.1-0.1 0.1-0.1c1.3 0.7 3 0.5 4.1-0.6 1.3-1.3 1.2-3.4-0.1-4.7-1.3-1.2-3.4-1.2-4.7 0.1-1 1-1.1 2.5-0.6 3.7q-0.1 0.1-0.1 0.1l-5.1 4.6q0 0 0 0.1-1-0.9-2.2-1.2 0-0.1 0-0.2l0.5-6.8q0-0.1-0.1-0.2c1.5-0.3 2.6-1.6 2.6-3.2 0-1.8-1.5-3.3-3.3-3.3-1.9 0-3.3 1.5-3.3 3.3 0 1.4 0.9 2.6 2.1 3.1q0 0.1 0 0.2l-0.5 6.8q0 0 0 0.1-0.7 0-1.4 0.3-0.1-0.1-0.1-0.2l-3.5-5.9q-0.1 0-0.2-0.1c1.1-1.1 1.2-2.8 0.3-4.1-1-1.5-3.1-1.9-4.6-0.8-1.5 1-1.9 3.1-0.8 4.6 0.8 1.2 2.2 1.6 3.5 1.3q0 0.1 0 0.2l3.6 5.8q0 0.1 0 0.1-0.7 0.5-1.2 1.3 0-0.1-0.1-0.1l-6.4-2.6q-0.1 0-0.1 0c0.1-1.5-0.8-2.9-2.3-3.4-1.7-0.6-3.6 0.4-4.2 2.1-0.6 1.7 0.4 3.6 2.1 4.2 1.4 0.4 2.8 0 3.6-1.1q0.1 0.1 0.2 0.1l6.4 2.5q0 0 0 0.1-0.2 0.7-0.2 1.4 0 0.2 0 0.3-0.1 0-0.1 0l-6.6 1.9q-0.1 0-0.2 0.1c-0.8-1.3-2.4-1.9-3.9-1.4-1.7 0.6-2.6 2.5-2 4.2 0.6 1.8 2.5 2.7 4.2 2.1 1.4-0.5 2.2-1.7 2.2-3.1q0.1 0 0.2 0l6.6-1.8q0 0 0-0.1 0.4 0.9 1.1 1.6-0.1 0.1-0.2 0.1l-4 5.6q0 0.1-0.1 0.1c-1.4-0.5-3 0.1-3.8 1.4-1 1.5-0.6 3.6 1 4.6 1.5 0.9 3.6 0.5 4.5-1.1 0.8-1.2 0.7-2.7-0.1-3.7q0.1-0.1 0.1-0.1l4.1-5.6q0 0 0 0 0.8 0.4 1.8 0.6 0 0.1 0 0.2l0.4 6.8q0 0.1 0 0.2c-1.4 0.5-2.3 1.9-2.1 3.5 0.2 1.8 1.8 3.1 3.7 2.9 1.8-0.2 3.1-1.9 2.9-3.7-0.2-1.4-1.2-2.5-2.5-2.8q0-0.1 0-0.2l-0.4-6.8q0-0.1 0-0.1 1.1-0.2 2-0.8 0.1 0.1 0.1 0.2l4.8 4.9q0.1 0 0.1 0.1c-0.7 1.3-0.4 3 0.7 4 1.4 1.2 3.5 1.1 4.7-0.2 1.2-1.4 1.1-3.5-0.2-4.7-1.1-1-2.6-1.1-3.8-0.5q0-0.1-0.1-0.1l-4.8-4.9q0-0.1 0-0.1 0.7-0.9 1-2 0.1 0 0.2 0.1l6.8 0.3q0.1 0 0.1 0 0.1 0 0.1 0c0.4 1.5 1.7 2.6 3.2 2.6 1.9 0 3.3-1.5 3.3-3.4z"/><path fill-rule="evenodd" class="b" d="m151.5-145.4q-2.5 1.2-5 2.4 2.7 1.4 5.6 2.7c-2.9 2.7-6.2 5-10 6.2-3.8 1.2-8 1.1-11.6-0.9 3.2 2.8 5.1 6.9 5.5 11.1 0.3 4.2-0.9 8.5-3.1 12.1q-2.2-1.6-4-3.7-0.1 2.6-0.3 5.2c-3.9-0.9-7.5-3.5-9.6-6.9-2.2-3.4-3-7.7-2.1-11.8-1 1.7-2.7 2.9-4.3 4.1-2.5 1.7-5.1 3.4-8 4.4-2.8 0.9-6.1 1.1-8.8-0.1q1.6-2 3.3-4c-1.9 0.2-3.8 0.8-5.5 1.6 0.2-6 3.6-11.9 8.8-15.2 0 0 0.3-0.2 1.1-0.6 1.1-0.7 2.2-1.2 3.8-1.7-2.1-0.2-4.3-0.6-6.3-1.5-2.7-1.3-4.9-3.6-6.3-6.2-1.5-2.6-2.2-5.6-2.8-8.5q2.9 0 5.7 0.4-1.1-2.2-2.5-4.2c3.5-1.1 7.3-1.4 10.9-0.5 3.5 1 6.8 3.5 8.3 7-0.7-3.8 0.3-7.7 2.4-11 2-3.2 5.1-5.7 8.4-7.4q0.8 2.2 1.6 4.5 1.2-2.1 2.4-4.2c3 2.6 4.8 6.4 5 10.4 0.3 3.9-1.1 7.9-3.9 11.1 3.6-1.9 7.9-2.7 11.9-1.9 4 0.8 7.7 3.4 9.4 7.1zm-22.6 0.5c-0.5-0.8-1.5-1-2.3-0.6-0.6 0.4-0.9 1-0.8 1.7q0 0-0.1 0l-3 1.5q0 0-0.1 0-0.3-0.5-0.9-0.9 0 0 0.1 0l1-3.3q0 0 0 0c0.8 0 1.5-0.5 1.7-1.3 0.2-0.8-0.3-1.7-1.2-2-0.9-0.2-1.8 0.3-2 1.2-0.2 0.7 0.1 1.4 0.6 1.7q0 0.1 0 0.1l-1.1 3.3q0 0 0 0-0.6-0.1-1.2 0 0 0 0-0.1l-1.5-3q0-0.1-0.1-0.1c0.6-0.5 0.7-1.3 0.4-2-0.5-0.8-1.5-1.1-2.3-0.7-0.8 0.5-1.1 1.5-0.6 2.3 0.3 0.6 1 0.9 1.7 0.8q0 0 0 0.1l1.5 3.1q0 0 0 0-0.3 0.2-0.6 0.5 0-0.1 0-0.1l-3-1.7q0 0-0.1 0c0.2-0.7-0.2-1.5-0.9-1.8-0.8-0.4-1.8-0.1-2.2 0.7-0.4 0.8 0 1.8 0.8 2.2 0.6 0.3 1.4 0.2 1.8-0.3q0.1 0.1 0.1 0.1l3 1.7q0 0 0 0-0.2 0.4-0.2 0.8-0.1 0-0.1 0l-3.4 0.5q0 0 0 0c-0.4-0.7-1.1-1.1-1.9-0.9-0.8 0.1-1.4 1-1.3 1.9 0.2 0.9 1.1 1.5 2 1.3 0.7-0.1 1.2-0.7 1.3-1.3q0 0 0.1 0l3.3-0.5q0.1 0 0.1 0 0 0.4 0.2 0.7 0.1 0.1 0.1 0.1 0 0 0 0.1l-2.5 2.4q0 0 0 0c-0.7-0.3-1.5-0.2-2 0.4-0.6 0.7-0.5 1.7 0.1 2.3 0.7 0.6 1.8 0.6 2.4-0.1 0.4-0.6 0.5-1.3 0.2-1.9q0 0 0 0l2.5-2.4q0 0 0-0.1 0.3 0.3 0.8 0.5 0 0 0 0.1l-0.4 3.3q0 0.1 0 0.1c-0.8 0.2-1.3 0.8-1.4 1.6 0 0.9 0.7 1.6 1.6 1.7 0.9 0 1.7-0.7 1.7-1.6 0-0.7-0.4-1.3-1-1.6q0 0 0.1 0l0.3-3.4q0 0 0-0.1 0.5 0 1-0.1 0 0 0 0.1l1.9 2.8q0 0.1 0 0.1c-0.5 0.6-0.5 1.4-0.1 2 0.6 0.8 1.6 0.9 2.3 0.4 0.8-0.5 0.9-1.6 0.4-2.3-0.4-0.6-1.1-0.8-1.8-0.6q0-0.1 0-0.1l-1.8-2.9q0 0 0 0 0.4-0.4 0.6-0.8 0.1 0 0.1 0l3.3 1q0 0 0.1 0c0 0.7 0.5 1.4 1.2 1.6 0.9 0.2 1.8-0.4 2-1.3 0.2-0.9-0.3-1.8-1.2-2-0.7-0.1-1.4 0.2-1.8 0.7q0 0 0 0l-3.3-0.9q0 0 0 0 0.1-0.6-0.1-1.2 0.1 0 0.1 0l3.1-1.5q0 0 0 0 0 0 0 0c0.5 0.5 1.4 0.7 2 0.3 0.8-0.5 1.1-1.5 0.7-2.3z"/><path fill-rule="evenodd" class="b" d="m-320.6-42c-1.2 9.8-10.4 18-20.3 18 2.4 7.4-1.3 15.9-7.7 20.4-6.4 4.4-14.9 5.1-22.5 3.2-0.6 7.9-6.7 14.9-14.3 16.8-7.7 1.8-16.3-1.8-20.4-8.4-4.4 5.6-12.4 8.1-19.2 6-6.8-2.1-12-8.8-12.4-15.9-6.3 4.4-15.9 2-20.2-4.3-4.3-6.4-3.4-15.5 1.4-21.5-7.1 0.3-14-5.2-15.4-12.2-1.4-7 2.9-14.7 9.6-17.2-7-5.9-7.1-17.4-1.9-24.8 5.2-7.5 14.5-11.3 24.7-10.6-2-9.1 3.3-19.1 11.9-22.6 8.6-3.4 19.4 0.2 24.2 8.1 3.6-9.6 15.2-15.4 25-12.4 9.8 2.9 16.4 14 14.2 24 8.4-5.4 20.7-3.7 27.3 3.8 6.6 7.5 6.7 19.8 0.3 27.5 9.7 2.2 16.8 12.3 15.7 22.1zm-68-24.9c6.6-4.7 13.3-9.7 19.7-15.1 1-0.9 2.1-1.8 2.2-3.1 0.2-2.1-2.3-3.6-4.4-3.2-2.1 0.4-3.6 2.1-5 3.7-4.7 5.5-8.9 11.5-12.5 17.7zm-12.7-2.4c1.5-7.2 2.3-14.7 2.7-22.3 0-1.3 0.1-2.7-0.4-3.9-0.5-1.2-1.6-2.3-2.9-2.3-2.2 0.1-3.2 2.6-3.5 4.7-1 8.1 1.6 16.1 4.1 23.8zm-44.6 15.2c9.3 0.4 18.6 0.2 27.9-0.7-5.4-2.5-10.5-4.4-15.8-5.8-4-1.1-8.3-1.9-12.4-1.1-1.4 0.3-2.8 0.8-3.7 1.8-1 1-1.4 2.6-0.8 3.9 0.9 1.5 3 1.8 4.8 1.9zm26.5 11.6c-8.7 0.2-17.7 1.7-24.9 6.7-1.5 1-2.9 2.4-2.7 4.1 0.2 1.6 1.9 2.7 3.5 2.8 1.6 0 3.1-0.7 4.6-1.4 6.9-3.4 13.4-7.5 19.5-12.2zm4.6 9.2c-6.5 4.9-12.5 10.4-17.8 16.6-1.3 1.4-2.6 3.1-2.8 5-0.3 1.9 1 4.2 3 4.2 1.6 0.1 2.8-1.3 3.8-2.5 5.7-7.3 10.6-15.2 13.8-23.3zm2-33.7c-2.4-6.7-7.3-12.8-12.7-18.4-1.3-1.4-2.8-2.8-4.6-3.4-1.8-0.6-4.1 0-5 1.7-0.6 1.3-0.2 2.8 0.4 4 1.1 2 3 3.4 4.9 4.7q8.3 6 17 11.4zm9.4 37c-2.2 6.7-4.3 13.4-5.8 20.2-0.4 1.7-0.7 3.5 0 5.1 0.7 1.6 2.7 2.7 4.2 1.7 1.2-0.8 1.4-2.5 1.4-4 0-7.3 0-14.7 0.2-23zm11-20.1c0-3.4-2.8-6.2-6.2-6.2-3.4 0-6.1 2.8-6.1 6.2 0 3.4 2.7 6.2 6.1 6.2 3.4 0 6.2-2.8 6.2-6.2zm15.6 38.8c-0.4-1.6-1.4-3-2.4-4.3-4.2-5.7-8-11.8-11.8-18.3 1.9 7.1 4.3 14 7.5 20.6 0.9 1.9 2 4 4 4.7 0.7 0.3 1.5 0.3 2.1-0.1 0.7-0.6 0.8-1.7 0.6-2.6zm23-20.2c0.1-1.4-1.2-2.4-2.5-3-6.7-3.8-13.7-7.2-21.3-9.5 4.7 4.5 9.9 8.6 15.3 12.4 1.6 1.1 3.3 2.2 5.3 2.3 1.4 0.1 3.2-0.7 3.2-2.2zm4.2-30.3c-0.6-0.7-1.7-0.8-2.7-0.7-2 0.1-4 0.8-6 1.4-7.1 2.4-14.2 4.8-21.4 7.3 7.7-0.2 15.5-0.4 23.1-2 1.9-0.5 3.8-1 5.5-2 0.6-0.5 1.3-1 1.6-1.7 0.4-0.7 0.4-1.7-0.1-2.3z"/><path fill-rule="evenodd" class="b" d="m-118 50.1c-1.5 4.6-4.8 9.3-9.5 13.2-8.6 7.1-20 11.1-31.4 11.1q-3 0-6-0.4c-2.9-0.4-5.7-1-8.4-1.9-0.5-0.1-0.8-0.7-0.7-1.2 0.2-0.5 0.8-0.8 1.3-0.7 2.6 0.9 5.3 1.5 8 1.8 12.8 1.6 26.2-2.2 35.9-10.3 3.7-3 6.5-6.6 8.1-10.2q-1 0.5-2.2 1c-5.3 2.2-11.4 3.7-19.3 4.8-4.9 0.7-9.4 1.1-13.5 1.1q-5.3 0-10-0.8c-3.5-0.6-6.8-1.5-9.9-2.7-0.5-0.2-0.8-0.7-0.6-1.3 0.2-0.5 0.8-0.7 1.3-0.5 3 1.1 6.2 2 9.5 2.5 6.6 1.1 14.1 1 23-0.3 7.6-1 13.6-2.5 18.8-4.7q2.2-0.9 4.3-2c17.5-9.4 29-29.5 28-49-0.4-8.4-2.9-15.9-7.1-21.7-2.9-3.9-6.7-7.1-10.9-9.1 3.4 12.7 2.8 26.5-1.8 39-2.1 5.7-4.8 10.6-8 14.6-3.9 5-9.4 9.5-16.2 13.4-9.8 5.6-21 9.1-32.3 10.2q-3.5 0.3-7.1 0.3-0.8 0-1.6 0c-0.6 0-1-0.5-1-1.1 0-0.5 0.5-0.9 1-0.9 2.8 0 5.7-0.1 8.5-0.3 11.1-1 22-4.5 31.5-9.9 6.6-3.8 11.9-8.1 15.7-12.9 3-3.9 5.6-8.6 7.6-14.1 4.8-12.8 5.2-26.9 1.2-39.7-2-6.7-5.1-12.7-9.3-18-10.8-13.5-29.5-20.7-46.1-18.1 10.5 6.2 18.7 16.3 22.7 28.1 5.2 15.2 3.9 32.9-3.8 48.6-6 12.5-15.9 23.8-28.5 32.6-1.6 1.1-3.3 2.2-5.1 3.3q-0.2 0.2-0.5 0.2c-0.3 0-0.7-0.2-0.9-0.5-0.3-0.5-0.1-1.1 0.4-1.4 1.7-1 3.3-2.1 5-3.3 12.3-8.6 22-19.6 27.8-31.7 7.4-15.3 8.8-32.5 3.7-47.2-4.2-12.2-12.9-22.5-24.1-28.3-3-1.6-6.2-2.8-9.4-3.6-4.3-1.1-8.7-1.5-13.4-1.3-6.3 0.2-12.6 1.8-18.6 4.6-10.1 4.7-18.8 12.5-24.2 22-8.7 15.1-9.9 34.2-3.3 51 5.6 14.4 17.2 27.1 31.6 34.6 1.6 0.9 3 1.6 4.5 2.2 0.5 0.2 0.7 0.8 0.5 1.3-0.2 0.5-0.8 0.7-1.3 0.5-1.5-0.6-3-1.3-4.6-2.2-14.9-7.8-26.8-20.8-32.6-35.7-6.8-17.4-5.5-37.1 3.4-52.7 5.2-9 13.1-16.5 22.5-21.5-10.7-1.8-22.1-0.1-31.6 4.8-11.7 6.1-21.1 17.3-24.9 30q-0.4 1.1-0.6 2.3c-1.4 5.4-2.1 11.3-2.1 18.5 0 8.9 1 15.9 3.2 22 3.9 11.2 12.3 21.1 23.8 28 8.1 4.9 17.9 8.3 28.9 10.3q3.6 0.6 6.8 1c0.6 0 1 0.5 0.9 1.1 0 0.5-0.5 0.9-1 0.9q0 0-0.1 0c-2.2-0.3-4.5-0.6-6.9-1-11.3-2-21.3-5.6-29.6-10.6-11.9-7.1-20.7-17.4-24.7-29-2.2-6.4-3.3-13.6-3.3-22.7 0-6.4 0.5-11.8 1.6-16.7-10.4 6.5-17.9 17.3-20.1 29.3-2.7 14.6 2.7 30.6 13.8 40.5 2.2 2.1 4.7 3.9 7.4 5.5 3.4 2.1 7.3 3.9 11.5 5.5 13.4 4.9 28 6.6 42.2 4.8 2.7-0.4 5.3-0.8 7.9-1.4 0.5-0.1 1 0.2 1.2 0.8 0.1 0.5-0.3 1-0.8 1.1-2.6 0.6-5.3 1.1-8 1.4q-5.8 0.8-11.6 0.8c-10.8 0-21.5-1.9-31.6-5.7q-5.3-1.9-9.8-4.4c1.6 5.5 5.3 10.8 10.4 14.4 6.1 4.4 14 7.2 25 8.6 6.4 0.8 11.9 0.9 16.7 0.3 3.5-0.5 6.6-1.3 9.5-2.6 0.5-0.2 1 0 1.3 0.6 0.2 0.5-0.1 1-0.6 1.3-3 1.3-6.3 2.2-9.9 2.6q-3.3 0.5-7 0.5-4.7 0-10.3-0.7c-11.3-1.5-19.5-4.3-25.9-8.9-6-4.4-10.3-10.9-11.6-17.5-2.6-1.6-5.1-3.5-7.3-5.5-11.6-10.4-17.3-27.1-14.5-42.4 2.5-13.1 11-24.9 22.7-31.6q0.3-1 0.6-2c4-13.4 13.5-24.7 25.9-31.1 10.7-5.6 23.6-7.2 35.5-4.6 6.2-2.8 12.6-4.4 19.1-4.6q0 0 0 0c-2.7-8.9-4-16.7-3.9-24 0.1-9 2.4-17.2 6.6-23.9 0.9-1.5 2.2-3.2 4-4.2 1.7-1 4.3-1.3 6.2 0.2 1.4 1.1 2.1 3.1 1.8 5.3-0.2 1.7-0.9 3.2-1.5 4.6l-0.1 0.2c-5.7 12.3-9.4 26.4-11 41.7 4.1 0 8 0.5 11.8 1.4 3.2 0.8 6.4 2.1 9.5 3.7 18.2-4 38.4 3.4 50.4 18.4 4.2 5.3 7.4 11.4 9.5 18.2 5.1 2 9.8 5.7 13.2 10.4 4.4 6.1 7 13.9 7.5 22.7 1 20.4-10.5 40.7-28.7 50.6zm-74.6-130.2c1.8-13.8 5.3-26.5 10.5-37.7l0.1-0.2c0.7-1.4 1.3-2.7 1.5-4.1 0.1-1.1-0.1-2.6-1.2-3.5-0.5-0.4-1.1-0.5-1.8-0.5-0.8 0-1.5 0.2-2.1 0.5-1.5 0.8-2.5 2.3-3.3 3.6-4 6.3-6.2 14.2-6.3 22.9 0 5.8 0.8 12 2.6 19z"/><path fill-rule="evenodd" class="a" d="m-168.1 101.8c-1.5 1.4-3.4 2.1-5.3 2.7-10.5 3.6-21.9 4.4-32.8 2.4-3.7-0.7-7.6-1.8-10.4-4.3-2.8-2.5-4.5-6.7-4-7q-0.6-20.7 0.7-41.4c0.2-3.3 0.6-6.9 2.7-9.5 1.6-1.9 3.9-3 6.2-3.8 11.6-4.4 24.7-4.4 36.3-0.2 3.3 1.1 6.7 2.9 8.1 6.1 0.7 1.6 0.8 3.5 0.9 5.3q0.7 17.4 1.5 34.9c0.2 5.3 0.2 11.4-3.9 14.8zm-2.3-5.3c0.1-1.7-1.1-3.1-2.4-4.2-2.3-1.9-5.3-3-8.2-3.8-8.5-2.2-17.5-2-25.9 0.5-2.3 0.6-4.8 2.2-7 4-1.1 1-2.2 2.3-2.1 3.7 0 1.7 1.5 3 3 3.8 2.6 1.3 5.4 1.8 8.3 2.2 6 0.8 12.2 1 18.3 0.6 3.9-0.2 7.9-0.7 11.6-2.2 2.1-0.8 4.3-2.3 4.4-4.6z"/><path fill-rule="evenodd" class="a" d="m-191.9 193.9c-4.3 15.3-11.2 30.1-12 45.9-3.1 1.2-6.6 1.5-10 1.1 0.9-11.3 4-22.5 9-32.6 0.3-0.5 0.1-1.1-0.4-1.3-0.5-0.3-1.1-0.1-1.4 0.4-5.1 10.2-8.3 21.7-9.1 33.1-5.2-1.2-9.9-4.1-12.9-8.5-0.6-0.9-1.1-1.9-1.1-2.9 0-0.9 0.4-1.8 0.8-2.6 4.3-8.8 9.8-17.1 14.1-25.9 4.2-8.4 7.4-17.4 9.4-26.6 3.9-18.2 3.4-37 4.9-55.5 2.3-2.6 6-4 9.6-3.7 1.1 0.2 2.3 0.5 3.2 1.3 1.6 1.3 1.7 3.6 1.8 5.7 0.6 24.2 0.5 48.8-5.9 72.1zm-21.6 21.9c-0.5-0.3-1.1-0.1-1.4 0.4-2.6 4.8-4.2 10.1-4.7 15.5 0 0.6 0.4 1.1 0.9 1.1q0.1 0 0.1 0c0.5 0 1-0.4 1-0.9 0.5-5.1 2-10.2 4.5-14.7 0.2-0.5 0-1.1-0.4-1.4z"/><path class="b" d="m-186 121.8c-0.1-2.1-0.2-4.4-1.8-5.7-0.9-0.8-2.1-1.1-3.2-1.3q-0.8 0-1.5 0c-0.9-9.2-0.9-18.6 0.1-27.8q-1 0-2 0c-1 9.3-1 18.7-0.1 28-2.3 0.5-4.5 1.7-6.1 3.5-0.3 3.8-0.6 7.6-0.7 11.4 4.6-2.1 10.4-1.9 15.4-0.4q0-3.9-0.1-7.7z"/><path fill-rule="evenodd" class="b" d="m-346.6 120.6c0.1 5.9 0 12-0.5 18.1 0 0.5-0.4 0.9-1 0.9q-8.2-0.1-16.3-0.1c0 4.6-0.1 9.2-0.3 13.7l10.4-0.1c0.3 0 0.6 0.1 0.8 0.3 0.1 0.3 0.2 0.5 0.2 0.8-1.4 12-9.5 23.5-21 30.1-8 4.7-17.9 7.1-28.4 7.1q-4 0-8.1-0.5c-11.2-1.3-21.6-5.1-30.2-10.9-9.2-6.4-16.3-15.3-19.9-25.2-0.1-0.3-0.1-0.6 0.1-0.9 0.2-0.2 0.5-0.4 0.8-0.4h0.3q5.3-0.1 10.4-0.1c-0.1-4.8 0-9.7 0.4-14.6q-8.7-0.1-17.3-0.2c-0.6 0-1-0.4-1-1 0-5.7 0-11.6-0.4-17.1 0-0.2 0.1-0.5 0.3-0.7 0.2-0.2 0.4-0.3 0.7-0.3q9.2-0.3 18.3-0.4 0-6.1 0.1-12.1-1.5 0-3 0-5.5 0-11 0c-0.3 0-0.6-0.2-0.8-0.4-0.2-0.3-0.2-0.6-0.2-0.9 1.9-7.4 6.7-14.4 14.4-20.9 13-10.8 29.4-16.6 45.2-15.9 17 0.7 32.8 8.9 42.2 21.9 3.4 4.6 5.4 9 5.9 13.4 0.1 0.3 0 0.6-0.2 0.8-0.2 0.2-0.4 0.3-0.7 0.3q-4.8 0.3-9.6 0.6c-0.2 4.3-0.3 8.8-0.2 13.3q9.3 0.1 18.6 0.4c0.5 0 1 0.5 1 1zm-100.6-15.6c10.7 0 21.2-0.1 31.1-0.3v-19.6c-6.7-0.5-13.6 2.6-17.8 8-0.3 0.4-0.9 0.5-1.4 0.2-0.4-0.4-0.5-1-0.2-1.4 4.8-6.2 12.8-9.6 20.5-8.7 0.5 0 0.9 0.5 0.9 1v21.5c0 0.5-0.4 1-1 1-9.9 0.2-20.4 0.3-31.1 0.3q-0.1 6-0.1 12c26.2-0.5 52.5-0.4 78.1 0.1-0.1-4.4 0-8.8 0.2-13.2-9.7 0.4-19.6 0.5-29.4 0.3-0.5 0-0.9-0.4-1-1l-0.6-21.7c0-0.2 0.1-0.5 0.3-0.7q0.3-0.3 0.7-0.3c7.7-0.1 15.3 3.1 20.6 8.6 0.4 0.4 0.4 1 0 1.4-0.4 0.4-1.1 0.4-1.5 0-4.6-4.9-11.3-7.8-18.1-8l0.6 19.7c9.8 0.2 19.7 0.1 29.4-0.3q4.7-0.2 9.4-0.5c-0.7-3.7-2.5-7.5-5.4-11.5-9.1-12.4-24.3-20.3-40.7-21-15.2-0.7-31.2 4.9-43.8 15.5-6.9 5.8-11.4 12-13.4 18.6q6.8 0 13.7 0zm81.5 50.2q-0.1 0-0.1 0 0 0 0 0l-32 0.4c-0.2 6.1-0.1 12.2 0.3 18.3 5.9-0.5 11.7-3.1 16-7.1 0.4-0.4 1-0.4 1.4 0 0.4 0.4 0.4 1-0.1 1.4-4.9 4.6-11.5 7.4-18.2 7.7-0.5 0.1-1-0.4-1-0.9-0.5-6.7-0.6-13.6-0.3-20.4 0-0.5 0.4-0.9 1-1l32-0.3c0.2-4.5 0.3-9.2 0.3-13.8q-40.3-0.4-80.5-0.7c-0.4 4.9-0.5 9.8-0.4 14.6 12.2-0.1 23.2 0.2 33.7 0.8 0.5 0.1 0.9 0.5 0.9 1.1q-0.3 9.8-0.7 19.6-0.1 0.5-0.4 0.7-0.3 0.3-0.7 0.3c-7.1-0.3-13.9-3.1-19.1-7.8-0.5-0.4-0.5-1-0.1-1.4 0.3-0.5 1-0.5 1.4-0.1 4.7 4.2 10.7 6.7 16.9 7.2q0.4-8.8 0.7-17.6c-10.4-0.6-21.4-0.9-33.5-0.8q-5.1 0-10.3 0.1c3.6 8.9 10.2 17 18.7 22.8 8.3 5.7 18.4 9.4 29.3 10.6 12.9 1.6 25.5-0.7 35.2-6.3 10.6-6.1 18.1-16.5 19.9-27.5zm17.1-33.6q-9.3-0.3-18.6-0.5c-26.3-0.6-53.2-0.6-80.1-0.1q-9.1 0.2-18.2 0.4c0.3 4.9 0.3 10.1 0.3 15.2q8.2 0.1 16.4 0.2h1q41.2 0.3 82.4 0.7 8.2 0 16.4 0.1c0.4-5.4 0.5-10.8 0.4-16z"/><path class="a" d="m-351.7 135v-10.6c0 0-84.3-1.6-110.5-0.9v10.7z"/></svg>
