<svg version="1.2" xmlns="http://www.w3.org/2000/svg" viewBox="0 0 657 583" width="657" height="583"><style>.a{fill:#f4b869}</style><path class="a" d="m270.1 95.1q3.7 0 7.3-0.1c-0.7 2.4-1 4.8-1.1 7.2 1.8 6.1 7.6 18 26.5 23.1-3-3.7-5.9-7.8-8.8-12.6-3.9-6.5-3.2-12.9-0.1-18.7 32.7-3.2 56.4-12.6 56.4-23.7q0-0.7-0.1-1.5c10.5 1.5 22.2 2.4 34.6 2.4 44.3 0 80.2-11.1 80.2-24.7 0-12.9-31.8-23.5-72.6-24.7-6-11.8-39.2-20.8-79.2-20.8-44.3 0-80.2 11.1-80.2 24.7 0 8.2 12.8 15.4 32.5 19.9-42.2 0.8-75.6 11.5-75.6 24.7 0 13.7 35.9 24.8 80.2 24.8z"/><path class="a" d="m150.5 201.5c69.6 0 126-17.5 126-38.9 0-7.1-6.1-13.8-16.9-19.5q3.6-0.5 7-0.9c0.2-1.9 0.9-4.7 3.1-7.1 3.6-3.9 9.8-4.9 18.3-2.7 12 3 21.5 2.3 27 1.4-2.8-1.4-6.2-2.5-10.1-3.4-14.6-3.2-22.8-10.2-27.4-16.8 1 3.8 2.2 7.4 3.6 10.4-6.1-0.5-11.8-0.4-16.8-0.1q0-0.1 0-0.2c0-13.7-35.9-24.8-80.2-24.8-44.3 0-80.2 11.1-80.2 24.8q0 1.3 0.5 2.6c-46.8 5.7-80 19.8-80 36.3 0 21.4 56.4 38.9 126.1 38.9z"/><path class="a" d="m320.7 137.1c-3.1 1-15.5 4.3-33.4-0.2-9.1-2.3-13.2-0.4-15.1 1.6-1 1.1-1.5 2.3-1.8 3.3 24.7-2 45 3.1 61.5 12.7-0.7-4-3-11.6-11.2-17.4z"/><path class="a" d="m355.7 153.1c-9.9-7.7-20.4-13.6-30.7-18.1 9.9 8.5 10.7 19.3 10.8 22q1.2 0.7 2.4 1.5c-9.7 4.1-15.4 9.2-15.4 14.6 0 10.3 20.2 19.1 49 22.8q0.1 0.3 0.3 0.6c0.8 0.4 19.9 9.4 26 30.7q0.7 2.7 1.2 5.5c1.1-1.7 1.7-4.6 1.8-7.9 0.5-8.1-1.3-16.1-4.9-22.9q-1.1-2.1-2.3-4.2 4.5 0.2 9.1 0.2c44.3 0 80.2-11.1 80.2-24.8 0-13.6-35.9-24.7-80.2-24.7-17.7 0-34 1.7-47.3 4.7z"/><path class="a" d="m376.1 204c6.9 13.6 11.8 28.1 14.9 42 0.9 4 1.5 8.4 2 12.6 3.6-10.8 4.2-20.9 1.6-29.9-3.6-12.7-12.6-20.7-18.5-24.7z"/><path class="a" d="m271.1 318.1c0.9 3.1 3.8 6.2 8 9.3 4.3 3.2 9.1 5.5 14 7.1 26.7 8.5 57.9 21.1 81.2 24.1 6.3 0.8 12.2 0.6 17.5-0.6-28.5-0.5-70.4-21.7-104.8-42.4-8.8-5.3-16.9-8.8-24.4-10.8 3.6 3 6.9 7.3 8.5 13.3z"/><path class="a" d="m355.2 520.2c-3.9-32.9-10.8-35.6-36.4-45.4-5.7-2.2-12.1-4.7-19.5-7.9-28-12.1-38.4-31.1-38.7-44.8-0.3-10.3 4.6-18.8 13.4-23.4 5.3-2.7 8.2-6.2 8.7-10.3 0.9-8.2-8-17.1-8.1-17.2l2.6-3.3c2.9-3.2 4.5-6.7 4.5-10.2 0-11.1-15-21.1-39-28.2 6.4-4.5 18-3.6 32.1-0.2-3.6-3.1-6.2-6.4-7.1-9.7-3.6-12.7-16.7-16.6-19.7-17.3-15.4-1-26.8 3.8-33.6 7.8-4.2 2.5-7.7 6.5-9.9 11.6v0.1c-15-2-31.5-3-48.9-3-69.6 0-126 17.4-126 38.9 0 4.8 2.9 9.5 8.2 13.8-22.3 4.4-37.1 12.1-37.1 20.9 0 11.9 27.2 21.8 63.5 24.2-7.7 3.8-12.1 8.3-12.1 13.1 0 13.6 35.9 24.7 80.2 24.7 44.3 0 80.2-11.1 80.2-24.7q0-1.4-0.5-2.8c13.5 2.6 22.4 8.6 23.1 17.1 3 23 19.7 42.4 41.1 45.8 4.1 0.6 7.9 1.3 11.4 2.2-5.9-4-12.6-7-19-9.9q-1.7-0.7-3.3-1.5c-17-7.7-17.2-26.6-16.9-31.6q-1.1-1.3-2.2-2.7c-7.9-10.4-11.2-20.8-9.9-30.6q0.1-0.5 0.2-1c-1.9 3.4-3 6-3 6 0 0-17.8-5.6-37.9-6.2-11.4-4.5-27.8-7.8-46.6-9.1 5.4-2.6 9.2-5.6 11-8.9 39.5-0.4 74.4-6.4 96.6-15.5 2.7 5.7 1.3 11.4-2.7 14.2q-0.1 0-0.1 0.1 0 0-0.1 0.1-0.1 0-0.1 0c-1.6 1.1-11.9 8.7-13.6 21.1-1.2 8.3 1.8 17.3 8.9 26.7 9 11.8 23.9 19.8 38.4 27.5 5.2 2.8 10.5 5.6 15.5 8.6 14.8 0.2 26 5.3 33.2 15 12.3 16.6 10.6 42.9 9.6 58.6-0.2 2.7-0.3 5.1-0.4 7.1-0.3 9 5.9 17 12.3 22.8h33.6c-14.6-9.1-32.1-30.5-35.9-62.6z"/><path class="a" d="m331.1 386.3c-16.7 0-32.2 1.6-45 4.2-1.1 5.1-4.7 9.3-10.7 12.4-7.3 3.8-11.4 10.7-11.2 19 0.3 11.7 10 29.4 36.3 40.7 7.4 3.2 13.8 5.6 19.4 7.8 19.5 7.5 29.3 11.3 34.8 28q-0.4-5.7-0.6-11.5c-1.4-36-67.8-37.4-76.4-57.4 14.1 3.9 32.9 6.3 53.4 6.3 44.3 0 80.2-11.1 80.2-24.8 0-13.7-35.9-24.7-80.2-24.7z"/><path class="a" d="m653.9 266.3c0-21.5-56.4-38.9-126-38.9-49.1 0-91.7 8.6-112.5 21.3q-4.2-13.4-10.5-28.2c0.1 7.1-0.9 14.7-5.1 17.5 0.5 9.3-1.7 19.3-6.3 29.8 0.1 10.1-1.5 17.4-5.7 14-16.7-13.5-33.3-5.7-45.8-4.6-3.2 0.3-5.6-0.8-7.6-2.6 19.6-4.5 32.3-11.7 32.3-19.8 0-13.7-35.9-24.8-80.2-24.8-44.3 0-80.2 11.1-80.2 24.8 0 13.7 35.9 24.7 80.2 24.7q8 0 15.6-0.4c26.2 14.3 49.7-9.4 74.8 9.6 2.9 2.2 5.3 4.4 7.3 6.4-12.9 5.1-20.5 11.5-20.5 18.4 0 3.5 1.9 6.8 5.4 9.9-4.1-0.4-8.5-1.3-13.2-2.5-8.8-1.7-25.1-4-30.6-0.7-4.5 2.6-15.2 0.8-24.9-1.8 51 29.5 87.2 40.6 106.1 32.7 3.7-2.9 7-6.6 9.7-11 13.3 2.1 28.4 3.3 44.4 3.3 53.5 0 96.9-13.4 96.9-29.9 0-3.2-1.6-6.2-4.6-9.1 57.6-3.6 101-19.3 101-38.1z"/><path class="a" d="m326.9 527.6c5.1-28-17.4-40-41.1-52.7-12.1-6.5-24.4-13.1-33.8-22.1 0.3 6.4 2.5 18.1 14.5 23.5q1.7 0.8 3.3 1.5c10.1 4.5 22.2 9.9 30.1 20 6.8 5.6 10.1 15.7 8.6 35.4-2 27.4-30.4 43.4-38.2 49.6h46.8c0.6-7.9 2.5-17.4 5-29.9 1.4-7.3 3.1-15.6 4.8-25.3z"/><path class="a" d="m341.5 559.9c0.1-2.1 0.2-4.6 0.4-7.4 1-15 2.6-40-8.6-55.1-5.2-7-12.8-11.3-22.6-12.8 13.9 10 23.6 23 19.8 44-1.7 9.7-3.4 18.1-4.9 25.4-2.4 12.3-4.2 21.4-4.8 28.8h30.8c-5.6-6.1-10.3-14-10.1-22.9z"/><path class="a" d="m323.7 316c2.6-1.5 6.6-2 11-2.1-26.1-9.8-56-23.9-79.6-26.7-16.5-1.9-30.4 6.1-40.2 17.6 7.2-3.9 18.2-7.8 32.3-7.1q0.4-0.2 0.8-0.1 0.1 0 0.5 0.1c10 0.7 21.6 3.7 34.4 10.5 13.4 5 35.3 11.1 40.8 7.8z"/></svg>